<?xml version="1.0" standalone="no"?>
<!DOCTYPE svg PUBLIC "-//W3C//DTD SVG 1.1//EN" "http://www.w3.org/Graphics/SVG/1.1/DTD/svg11.dtd" >
<svg xmlns="http://www.w3.org/2000/svg" xmlns:xlink="http://www.w3.org/1999/xlink" version="1.1">
<metadata>
Created by FontForge 20190801 at Sun Apr 30 17:17:54 2017
 By www-data
Copyright (c) 2010 by Brian J. Bonislawsky DBA Astigmatic (AOETI). All rights reserved. Available under the Apache 2.0 licence.http://www.apache.org/licenses/LICENSE-2.0.html
</metadata>
<defs>
<font id="AclonicaRegular" horiz-adv-x="1404" >
  <font-face 
    font-family="AclonicaRegular"
    font-weight="400"
    font-stretch="normal"
    units-per-em="2048"
    panose-1="2 6 5 3 0 0 0 2 0 4"
    ascent="1638"
    descent="-410"
    x-height="1155"
    cap-height="1440"
    bbox="-97 -607 2304 2141"
    underline-thickness="20"
    underline-position="-133"
    unicode-range="U+0020-FB02"
  />
<missing-glyph horiz-adv-x="580" 
 />
    <glyph glyph-name="fi" unicode="fi" horiz-adv-x="1616" 
d="M1183 1660q-43 -15 -70.5 -41t-43.5 -57t-23 -64.5t-9 -63.5t-0.5 -54t2.5 -36q-2 26 -8 57t-18 63t-30 62t-44.5 53t-62 37t-81.5 14q-71 0 -114 -33t-66 -94.5t-31 -149t-8 -197.5h350v-134h-350v-1022h-339v1022h-210v134h210q0 318 137 475.5t418 157.5
q84 0 148.5 -15.5t112 -37t79.5 -43t51 -33.5zM1489 1434q0 -38 -14.5 -72t-39.5 -59t-59 -39.5t-72 -14.5t-71.5 14.5t-58.5 39.5t-39.5 59t-14.5 72t14.5 71.5t39.5 58.5t58.5 39.5t71.5 14.5t72 -14.5t59 -39.5t39.5 -58.5t14.5 -71.5zM1474 0h-339v1154h339v-1154z" />
    <glyph glyph-name="fl" unicode="fl" horiz-adv-x="1596" 
d="M1117 0h338v1687h-130l-208 -351v-1336zM1220 1660l-191 -316q-3 38 -14 87.5t-36.5 93.5t-70 74.5t-113.5 30.5q-71 0 -114 -33t-66 -94.5t-31 -149t-8 -197.5h350v-134h-350v-1022h-339v1022h-210v134h210q0 318 137 475.5t418 157.5q84 0 150.5 -11.5t118 -30
t90.5 -41.5t69 -46z" />
    <glyph glyph-name=".notdef" horiz-adv-x="580" 
 />
    <glyph glyph-name=".null" horiz-adv-x="0" 
 />
    <glyph glyph-name="nonmarkingreturn" horiz-adv-x="580" 
 />
    <glyph glyph-name="space" unicode=" " horiz-adv-x="580" 
 />
    <glyph glyph-name="exclam" unicode="!" horiz-adv-x="667" 
d="M548 1540l-112 -1145h-205l-111 1145h428zM516 150q0 -38 -14.5 -71.5t-39 -58t-58 -39t-70.5 -14.5q-38 0 -71.5 14.5t-58 39t-39 58t-14.5 71.5q0 37 14.5 70.5t39 58t58 39t71.5 14.5q37 0 70.5 -14.5t58 -39t39 -58t14.5 -70.5z" />
    <glyph glyph-name="quotedbl" unicode="&#x22;" horiz-adv-x="1029" 
d="M924 1440l-62 -502h-243l-62 502h367zM473 1440l-61 -502h-244l-61 502h366z" />
    <glyph glyph-name="numbersign" unicode="#" horiz-adv-x="1151" 
d="M1083 987l-51 -186h-128l-58 -197h133l-54 -184h-134l-86 -289h-235l86 289h-127l-86 -289h-236l88 289h-126l54 184h126l60 197h-133l51 186h137l87 295h234l-88 -295h129l88 295h233l-87 -295h123zM669 801h-127l-59 -197h128z" />
    <glyph glyph-name="dollar" unicode="$" horiz-adv-x="956" 
d="M540 586v-235q25 3 50 10t44.5 20t31.5 33t12 50q0 26 -12 45.5t-31.5 34t-44 24.5t-50.5 18zM420 857v232q-24 -3 -47 -10.5t-41 -20t-29 -32.5t-11 -48q0 -27 11 -46.5t29 -34t41 -24t47 -16.5zM540 -33h-120v276q-43 3 -82.5 11.5t-80 25.5t-85.5 42t-100 61l125 169
q15 -38 37.5 -71.5t50.5 -60t62 -44.5t73 -24v266q-56 16 -114.5 36.5t-107.5 52t-80 78.5t-31 117q0 80 26.5 135t72.5 90t106 52t128 22v269h120v-271q36 -2 73.5 -9t77 -23t83 -42t93.5 -66l-125 -169q-27 80 -75.5 134.5t-126.5 65.5v-264q56 -16 116.5 -36.5
t110.5 -52.5t82.5 -79.5t32.5 -117.5q0 -82 -28 -137.5t-75 -90t-109 -51t-130 -20.5v-274z" />
    <glyph glyph-name="percent" unicode="%" horiz-adv-x="1570" 
d="M1502 368q0 -89 -29.5 -152.5t-76 -105t-104.5 -61t-114 -19.5q-57 0 -114.5 21t-103 63t-74 105.5t-28.5 148.5q0 89 29 153t74.5 105t102.5 60.5t114 19.5q61 0 119 -19.5t103.5 -60.5t73.5 -105t28 -153zM1285 1390l-788 -1340h-208l778 1340h218zM712 1062
q0 -89 -29.5 -153t-76 -105t-104.5 -60.5t-114 -19.5q-57 0 -114.5 21t-103 63t-74 105.5t-28.5 148.5q0 89 29 153t74.5 105t102.5 60.5t114 19.5q61 0 119 -19.5t103.5 -60.5t73.5 -105t28 -153zM1311 368q0 45 -6.5 88.5t-22 78.5t-41 56.5t-63.5 21.5q-35 0 -59.5 -21.5
t-40 -56t-22.5 -78.5t-7 -89q0 -44 7 -88t22.5 -78.5t40 -56t59.5 -21.5q33 0 58 22t41.5 57.5t25 79t8.5 85.5zM521 1062q0 45 -6.5 88.5t-22 78t-41 56t-63.5 21.5q-35 0 -59.5 -21.5t-40 -56t-22.5 -78t-7 -88.5q0 -44 7 -88t22.5 -79t40 -56.5t59.5 -21.5q33 0 58 22.5
t41.5 57.5t25 79t8.5 86z" />
    <glyph glyph-name="ampersand" unicode="&#x26;" horiz-adv-x="1612" 
d="M1586 503q-36 -75 -83.5 -144t-106.5 -129l130 -123l-227 -163l-116 123q-91 -49 -189 -72.5t-201 -23.5q-76 0 -158.5 6.5t-163 24t-153 49.5t-127 82t-87 121t-32.5 168q0 76 28.5 141t77 115.5t112 85t134.5 49.5q-35 24 -68.5 58.5t-60 75t-43 84.5t-16.5 88
q0 96 40.5 162t105.5 106.5t146.5 58.5t163.5 18q81 0 164 -18t149.5 -59t108.5 -106.5t42 -161.5q0 -69 -27 -124.5t-71 -100t-99 -79.5t-110 -63l335 -319q22 57 34 117.5t12 121.5zM843 1097q0 35 -9.5 67t-28 56t-47 38.5t-66.5 14.5q-41 0 -68.5 -13.5t-45 -37.5
t-25 -56t-7.5 -69q0 -28 14.5 -58t36 -58t45.5 -53t44 -43q30 16 58.5 38t50 48.5t35 58t13.5 67.5zM1033 218l-439 442q-69 -38 -98.5 -100t-29.5 -138q0 -68 27.5 -120.5t73.5 -88.5t104.5 -54.5t121.5 -18.5q66 0 127 18.5t113 59.5z" />
    <glyph glyph-name="quotesingle" unicode="'" horiz-adv-x="580" 
d="M473 1440l-61 -502h-244l-61 502h366z" />
    <glyph glyph-name="parenleft" unicode="(" horiz-adv-x="718" 
d="M657 -178h-185q-90 97 -161.5 201t-120.5 216.5t-75 235t-26 256.5q0 144 26 265t75.5 231t120.5 213.5t161 212.5h185q-34 -61 -63 -134t-54 -152t-44.5 -162.5t-33 -165.5t-20.5 -160.5t-7 -147.5q0 -243 50.5 -470.5t171.5 -438.5z" />
    <glyph glyph-name="parenright" unicode=")" horiz-adv-x="717" 
d="M628 731q0 -134 -26 -256.5t-75 -235t-120 -216.5t-162 -201h-184q120 210 170.5 438.5t50.5 470.5q0 69 -7 147.5t-20.5 160.5t-33 165.5t-44 162.5t-54 152t-62.5 134h184q90 -109 161 -212.5t120.5 -213.5t75.5 -231t26 -265z" />
    <glyph glyph-name="asterisk" unicode="*" horiz-adv-x="809" 
d="M727 1130l-197 -46l133 -146l-155 -119l-104 173l-103 -173l-156 119l136 146l-197 46l59 183l184 -83l-20 204h195l-20 -202l181 81z" />
    <glyph glyph-name="plus" unicode="+" horiz-adv-x="1005" 
d="M920 629h-269v-308h-297v308h-269v184h269v293h297v-293h269v-184z" />
    <glyph glyph-name="comma" unicode="," horiz-adv-x="578" 
d="M469 150q0 -46 -12 -94t-33.5 -93.5t-50.5 -86t-63 -71.5l-144 76q21 16 42.5 42t25.5 52q-29 9 -52.5 26t-40.5 40.5t-26.5 51t-9.5 57.5q0 37 14.5 70.5t39 58t57.5 39t71 14.5t71 -14.5t58 -39t39 -58t14 -70.5z" />
    <glyph glyph-name="hyphen" unicode="-" horiz-adv-x="954" 
d="M813 629h-672v184h672v-184z" />
    <glyph glyph-name="period" unicode="." horiz-adv-x="574" 
d="M469 150q0 -38 -14 -71.5t-39 -58t-58 -39t-71 -14.5t-71 14.5t-58 39t-39 58t-14 71.5q0 37 14 70.5t39 58t58 39t71 14.5t71 -14.5t58 -39t39 -58t14 -70.5z" />
    <glyph glyph-name="slash" unicode="/" horiz-adv-x="979" 
d="M929 1440l-538 -1440h-338l538 1440h338z" />
    <glyph glyph-name="zero" unicode="0" horiz-adv-x="1625" 
d="M1528 722q0 -132 -30 -238.5t-82.5 -190t-122.5 -144.5t-150 -100.5t-166 -58.5t-170 -19q-85 0 -171 20.5t-165 62t-147.5 103.5t-119 145.5t-79.5 188.5t-29 231q0 133 29.5 240t80.5 191t120 144.5t148 99.5t164 58t169 19q90 0 179 -19t169 -58t148.5 -99.5
t118 -144.5t78 -191t28.5 -240zM1134 722q0 66 -6.5 135t-21 134t-39 122t-61 99.5t-86 67t-113.5 24.5q-59 0 -105.5 -24.5t-82 -66.5t-60 -99t-40 -121.5t-22.5 -134t-7 -136.5q0 -66 7 -135t22.5 -133.5t40 -121.5t60 -99.5t82 -67.5t105.5 -25q56 0 102.5 25.5t83 69
t63 101t44 122t26 132.5t8.5 132z" />
    <glyph glyph-name="one" unicode="1" horiz-adv-x="942" 
d="M878 0h-781v183h192v1074h-192v183h589v-1257h192v-183z" />
    <glyph glyph-name="two" unicode="2" horiz-adv-x="1532" 
d="M1426 1007q0 -89 -24 -153.5t-65 -110.5t-96.5 -77.5t-118.5 -55.5t-130.5 -43t-133.5 -40t-127 -48t-110 -66.5t-84 -95t-48 -133.5h937v-184h-1364q22 138 63 238.5t95 172.5t117.5 120.5t130.5 82t135 56t131 43.5t117.5 44.5t95 58.5t63.5 85.5t23 125.5
q0 68 -23 119t-63 85t-94.5 51t-116.5 17q-65 0 -120.5 -24t-100 -67.5t-77 -104.5t-49.5 -136l-307 170q41 84 116.5 146t167.5 103.5t191.5 62t188.5 20.5q86 0 170 -7t159.5 -26t139.5 -52t111 -84.5t73.5 -123.5t26.5 -169z" />
    <glyph glyph-name="three" unicode="3" horiz-adv-x="1518" 
d="M712 -29q-89 0 -193 20.5t-202 62t-178 103.5t-121 146l357 169q0 -69 28.5 -129.5t75.5 -105.5t107.5 -71t125.5 -26q62 0 121 18.5t104.5 54.5t73.5 88.5t28 120.5q0 75 -25.5 128.5t-70 87.5t-104 50t-127.5 16h-195v170h195q47 0 91.5 12t79 37t55.5 62.5t21 87.5
q0 56 -19 94t-52.5 61.5t-78.5 34t-97 10.5q-50 0 -97 -13t-83 -39t-58 -65.5t-22 -92.5l-285 209q42 52 108 89t141.5 59.5t153 33t142.5 10.5q60 0 127.5 -6.5t133.5 -22.5t127 -43t107 -68t73.5 -98t27.5 -133q0 -46 -20 -89.5t-52 -80.5t-73 -65.5t-83 -44.5
q70 -15 134 -49.5t112.5 -85t77 -115.5t28.5 -141q0 -97 -32.5 -168.5t-87 -121.5t-127 -81.5t-152.5 -49t-163 -24t-158 -6.5z" />
    <glyph glyph-name="four" unicode="4" horiz-adv-x="1439" 
d="M1346 328h-100v-328h-397v328h-823q27 115 70 235t97.5 237t118.5 229t134 211h277q-86 -143 -143.5 -274t-92.5 -233q-41 -119 -64 -222h426v929h397v-929h100v-183z" />
    <glyph glyph-name="five" unicode="5" horiz-adv-x="1526" 
d="M1458 442q0 -97 -32.5 -170t-87 -125t-127 -86t-152.5 -54t-163 -28t-158 -8q-89 0 -193 20.5t-202 62t-178 103.5t-121 146l357 169q0 -69 28.5 -129.5t75.5 -105.5t107.5 -71t125.5 -26q62 0 121 21.5t104.5 61.5t73.5 95.5t28 123.5q0 75 -25.5 132t-70 94.5
t-104 56.5t-127.5 19q-158 0 -273 -12.5t-190 -27.5q-88 -18 -147 -40l150 776h1061v-184h-734l-71 -351q44 4 94.5 6.5t109.5 2.5q133 0 238.5 -21t185.5 -56.5t136 -82.5t91.5 -99.5t52 -107t16.5 -105.5z" />
    <glyph glyph-name="six" unicode="6" horiz-adv-x="1615" 
d="M1528 472q0 -135 -58 -230t-157 -155t-230 -88t-276 -28q-78 0 -161 15t-162 48.5t-149.5 87t-123.5 131.5t-84 182t-31 237q0 124 26.5 231.5t75 196.5t117 158.5t152.5 117.5t181.5 73t203.5 25q102 0 188.5 -11.5t163 -39.5t145.5 -74.5t137 -115.5l-171 -202
q-21 55 -56.5 104.5t-82.5 87t-104.5 59.5t-124.5 22q-94 0 -176.5 -30.5t-146 -92t-104 -155t-50.5 -220.5q43 51 95 83.5t107 51.5t110 26t105 7q135 0 252 -29.5t203.5 -91t136 -156t49.5 -225.5zM1134 472q0 85 -26.5 147.5t-71.5 103.5t-104.5 61t-124.5 20
q-63 0 -120 -21t-101 -62.5t-70 -104t-26 -144.5q0 -73 26.5 -134t71 -105t101.5 -68.5t118 -24.5t120 22.5t105 65t74 104t28 140.5z" />
    <glyph glyph-name="seven" unicode="7" horiz-adv-x="1233" 
d="M605 0h-417l622 1256h-784v184h1181v-184z" />
    <glyph glyph-name="eight" unicode="8" horiz-adv-x="1603" 
d="M1123 422q0 75 -25.5 128.5t-70 87.5t-104 50t-127.5 16q-66 0 -124 -17.5t-100.5 -52.5t-67.5 -88t-25 -124q0 -69 25.5 -121.5t68.5 -88.5t100.5 -54t122.5 -18q62 0 121 18.5t104.5 54.5t73.5 88.5t28 120.5zM447 814q-47 17 -90 45.5t-76.5 64.5t-53.5 79t-20 90
q0 73 27 129.5t73 97.5t106 68.5t125.5 44.5t132 24t125.5 7q60 0 127.5 -6.5t133.5 -22.5t127 -43t107 -68t73.5 -98t27.5 -133q0 -46 -20 -89.5t-52 -80.5t-73 -65.5t-83 -44.5q70 -15 134 -49.5t113 -85t77.5 -115.5t28.5 -141q0 -97 -32.5 -168.5t-87.5 -121.5
t-127.5 -81.5t-152.5 -49t-163 -24t-158 -6.5q-72 0 -152.5 8t-159.5 28t-151.5 53t-127.5 83t-87.5 119t-32.5 160q0 77 30 143t80 117t115.5 85t136.5 47zM796 1273q-50 0 -93.5 -11.5t-76 -35.5t-51 -62t-18.5 -91q0 -51 19 -88.5t51.5 -62t76 -36.5t92.5 -12
q47 0 91.5 12t79 37t55.5 62.5t21 87.5q0 56 -19 94t-52.5 61.5t-78.5 34t-97 10.5z" />
    <glyph glyph-name="nine" unicode="9" horiz-adv-x="1616" 
d="M1520 772q0 -186 -58.5 -334t-160.5 -252t-240 -159.5t-297 -55.5q-102 0 -188.5 11.5t-163 39.5t-146 74t-137.5 115l172 203q21 -55 56.5 -104.5t82.5 -87t104.5 -60t124.5 -22.5q94 0 176.5 30.5t146 92.5t104 155.5t50.5 220.5q-43 -51 -95 -84t-107 -51.5
t-110.5 -25.5t-104.5 -7q-135 0 -252.5 29t-203.5 90.5t-135.5 156t-49.5 225.5q0 135 58 230.5t157 155.5t230 88t276 28q78 0 161 -15t162 -48.5t149.5 -87.5t123.5 -132t84 -182t31 -237zM1126 972q0 73 -27 134t-71 105t-101.5 68.5t-117.5 24.5q-62 0 -120.5 -22.5
t-104.5 -65t-74 -104t-28 -140.5q0 -84 26.5 -146.5t71.5 -104t104.5 -61.5t124.5 -20q63 0 120 21t101 62.5t70 103.5t26 145z" />
    <glyph glyph-name="colon" unicode=":" horiz-adv-x="646" 
d="M505 844q0 -38 -14.5 -71t-39 -58t-58 -39t-70.5 -14q-38 0 -71 14t-57.5 39t-39 58t-14.5 71q0 37 14.5 70.5t39 58t57.5 39t71 14.5q37 0 70.5 -14.5t58 -39t39 -58t14.5 -70.5zM505 150q0 -38 -14.5 -71.5t-39 -58t-58 -39t-70.5 -14.5q-38 0 -71 14.5t-57.5 39
t-39 58t-14.5 71.5q0 37 14.5 70.5t39 58t57.5 39t71 14.5q37 0 70.5 -14.5t58 -39t39 -58t14.5 -70.5z" />
    <glyph glyph-name="semicolon" unicode=";" horiz-adv-x="646" 
d="M505 844q0 -38 -14.5 -71t-39 -58t-58 -39t-70.5 -14q-38 0 -71 14t-57.5 39t-39 58t-14.5 71q0 37 14.5 70.5t39 58t57.5 39t71 14.5q37 0 70.5 -14.5t58 -39t39 -58t14.5 -70.5zM505 150q0 -46 -12 -94t-33.5 -93.5t-50.5 -86t-63 -71.5l-144 76q21 16 42.5 42t25.5 52
q-29 9 -52.5 26t-40.5 40.5t-26.5 51t-9.5 57.5q0 37 14.5 70.5t39 58t57.5 39t71 14.5t71 -14.5t58 -39t39 -58t14 -70.5z" />
    <glyph glyph-name="less" unicode="&#x3c;" horiz-adv-x="916" 
d="M780 1172v-209l-478 -260v-13l478 -274v-196l-714 407v140z" />
    <glyph glyph-name="equal" unicode="=" horiz-adv-x="1115" 
d="M975 799h-835v184h835v-184zM975 469h-835v184h835v-184z" />
    <glyph glyph-name="greater" unicode="&#x3e;" horiz-adv-x="916" 
d="M850 627l-714 -407v196l478 274v13l-478 260v209l714 -405v-140z" />
    <glyph glyph-name="question" unicode="?" horiz-adv-x="1248" 
d="M654 397h-205q0 86 23 147.5t57.5 110.5t75 92t75.5 90.5t58 106.5t23 141q0 66 -11.5 117.5t-36 86.5t-64 53.5t-95.5 18.5q-53 0 -94.5 -26t-71 -65.5t-45 -88t-15.5 -93.5l-275 200q39 73 96 122t125 79t144.5 42.5t154.5 12.5q70 0 141 -15t137 -44.5t123.5 -72.5
t100 -99.5t67 -126t24.5 -150.5q0 -76 -22 -131.5t-58 -97t-82 -73t-94 -58.5t-94 -53t-82 -57.5t-58 -72t-22 -96.5zM737 150q0 -37 -14.5 -70.5t-39.5 -58.5t-58.5 -39.5t-70.5 -14.5t-70 14.5t-58 39.5t-39.5 58.5t-14.5 70.5t14.5 70t39.5 58t58 39.5t70 14.5
t70.5 -14.5t58.5 -39.5t39.5 -58t14.5 -70z" />
    <glyph glyph-name="at" unicode="@" horiz-adv-x="1803" 
d="M1100 523q0 48 -7.5 104t-29 103.5t-60 79t-100.5 31.5q-61 0 -99 -32t-59.5 -80t-29 -103.5t-7.5 -102.5q0 -32 3 -67.5t11 -70.5t22 -67.5t36 -57.5t52 -39.5t71 -14.5q56 0 94 33.5t61 82t32.5 103.5t9.5 98zM1624 581q0 149 -56.5 279.5t-154 228t-228 154
t-279.5 56.5t-279.5 -56.5t-228 -154t-154 -228t-56.5 -279.5t56.5 -279.5t154 -228t228 -154t279.5 -56.5q31 0 66 5t67.5 13t59.5 17.5t44 18.5l45 -113q-69 -27 -136.5 -41t-145.5 -14q-114 0 -220 29.5t-198 83.5t-167.5 129.5t-129.5 167.5t-83.5 198t-29.5 220
t29.5 220t83.5 198t129.5 167.5t167.5 129.5t198 83.5t220 29.5t220 -29.5t198 -83.5t167.5 -129.5t129.5 -167.5t83.5 -198t29.5 -220q0 -92 -22 -179t-69 -155t-120.5 -109.5t-177.5 -41.5q-30 0 -63.5 10.5t-63.5 31t-54 49.5t-34 66q-20 -42 -50.5 -72.5t-66 -50
t-74.5 -28.5t-75 -9q-95 0 -169.5 34t-126.5 92.5t-79.5 138t-27.5 169.5q0 91 27.5 170t79.5 138t126.5 93t169.5 34q48 0 92 -14.5t80 -40.5t63.5 -63.5t43.5 -82.5l109 181h93v-564q0 -51 20 -82t49 -43t61.5 -5t57.5 33q42 45 66.5 122.5t24.5 181.5z" />
    <glyph glyph-name="A" unicode="A" horiz-adv-x="1629" 
d="M1534 689v-19q-2 -84 -17.5 -174t-43.5 -180t-67 -178t-87.5 -168.5t-104.5 -151t-118 -124.5l-149 86q35 59 63.5 128.5t51.5 145.5t39.5 156t27.5 159t16.5 155.5t5.5 145.5q0 54 -0.5 122.5t-8 139.5t-24.5 138.5t-50.5 120.5t-86 85t-130.5 32q-69 0 -118.5 -23.5
t-84 -63t-55 -91.5t-32 -109.5t-15 -116t-3.5 -110.5v-279h431v-165h-431v-350h-397v732q0 157 50 292t141.5 234.5t220 156t286.5 56.5q107 0 200.5 -30.5t170.5 -84t137.5 -127t101 -160.5t61.5 -184t19 -196z" />
    <glyph glyph-name="B" unicode="B" horiz-adv-x="1563" 
d="M1489 391q0 -61 -20 -114t-55 -96.5t-81.5 -77.5t-100 -57t-110.5 -34.5t-112 -11.5h-847v1440h774q51 0 107 -7.5t109.5 -23.5t102 -42t85 -63.5t58 -86.5t21.5 -112q0 -60 -24 -109t-64.5 -87.5t-93 -68t-110.5 -51.5q73 -20 138.5 -53t115 -81t78.5 -113.5t29 -150.5z
M1017 1070q0 122 -64.5 178t-183.5 56h-209v-467h175q54 0 105 13.5t90.5 42t63 72.5t23.5 105zM1087 416q0 59 -15 110.5t-46 89t-77.5 59t-109.5 21.5h-279v-556h244q61 0 113 20t90 56t59 87t21 113z" />
    <glyph glyph-name="C" unicode="C" horiz-adv-x="1540" 
d="M1471 1083l-171 -72q-20 65 -53.5 119t-80 92.5t-105.5 60t-129 21.5q-75 0 -137.5 -24.5t-112 -67.5t-86.5 -100t-62 -121.5t-37 -133.5t-12 -135q0 -105 24.5 -209t78 -187t138.5 -134.5t206 -51.5q64 0 121 21.5t103.5 59t81.5 88.5t56 110l173 -69
q-38 -95 -104 -166.5t-150.5 -118.5t-181 -70.5t-194.5 -23.5q-106 0 -203.5 26t-181.5 74t-152.5 116t-117 151t-75 180.5t-26.5 203.5t26.5 203.5t75 181t117 151.5t152.5 116t181.5 74t203.5 26q102 0 199.5 -24t181.5 -72.5t149.5 -122t103.5 -172.5z" />
    <glyph glyph-name="D" unicode="D" horiz-adv-x="1640" 
d="M1559 722q0 -105 -28 -199.5t-78.5 -174.5t-120.5 -144.5t-154.5 -109.5t-181 -69.5t-198.5 -24.5h-635v1440h635q102 0 198 -24t180.5 -68.5t155 -108.5t121 -143.5t78.5 -174t28 -199.5zM1156 722q0 117 -28.5 222.5t-88.5 185.5t-152.5 127t-221.5 47h-105v-1164h105
q127 0 219.5 47.5t153 128t89.5 185.5t29 221z" />
    <glyph glyph-name="E" unicode="E" horiz-adv-x="1280" 
d="M1197 0h-1034v1440h1034v-184h-637v-445h492v-183h-492v-444h637v-184z" />
    <glyph glyph-name="F" unicode="F" horiz-adv-x="1241" 
d="M560 0h-397v1440h1034v-184h-637v-445h492v-183h-492v-628z" />
    <glyph glyph-name="G" unicode="G" horiz-adv-x="1587" 
d="M1471 1083l-171 -72q-20 65 -53.5 119t-80 92.5t-105.5 60t-129 21.5q-75 0 -137.5 -25t-112 -67.5t-86.5 -99.5t-61.5 -121.5t-37 -133.5t-12.5 -135q0 -105 24.5 -209t78 -187t138.5 -134.5t206 -51.5q66 0 103 29.5t37 103.5v442h397v-715h-115l-70 113
q-96 -73 -211.5 -107.5t-235.5 -34.5q-106 0 -203.5 26t-181.5 74t-152.5 116t-117 151t-75 180.5t-26.5 203.5t26.5 203.5t75 181t117 151.5t152.5 116t181.5 74t203.5 26q102 0 199.5 -24t181.5 -72.5t149.5 -122t103.5 -172.5z" />
    <glyph glyph-name="H" unicode="H" horiz-adv-x="1646" 
d="M560 0h-397v1440h397v-629h526v629h397v-1440h-397v628h-526v-628z" />
    <glyph glyph-name="I" unicode="I" horiz-adv-x="723" 
d="M560 0h-397v1440h397v-1440z" />
    <glyph glyph-name="J" unicode="J" horiz-adv-x="721" 
d="M565 452q0 -139 -35.5 -282.5t-99 -278t-152.5 -251.5t-196 -204l-154 93q60 82 105 186t75 216t45 225t15 215v1069h397v-988z" />
    <glyph glyph-name="K" unicode="K" horiz-adv-x="1480" 
d="M560 0h-397v1440h397v-686q184 141 343.5 313t274.5 374h271q-106 -181 -243 -338t-298 -291l575 -812h-414l-433 612q-19 -13 -37.5 -25t-38.5 -24v-563z" />
    <glyph glyph-name="L" unicode="L" horiz-adv-x="1221" 
d="M1197 0h-1034v1440h397v-1257h637v-183z" />
    <glyph glyph-name="M" unicode="M" horiz-adv-x="2045" 
d="M450 1074l-112 -1074h-245l245 1440h363l337 -1099l341 1099h363l204 -1440h-404l-119 1046l-281 -1046h-363z" />
    <glyph glyph-name="N" unicode="N" horiz-adv-x="1642" 
d="M347 0h-184v1440h258l875 -989v989h183v-1440h-258l-874 988v-988z" />
    <glyph glyph-name="O" unicode="O" horiz-adv-x="1750" 
d="M1666 722q0 -174 -60 -313.5t-166 -236.5t-251 -149t-314 -52t-314 52t-251 149t-166 236.5t-60 313.5q0 177 59.5 316.5t165 236t250.5 148t316 51.5t316 -51.5t250.5 -148t165 -236t59.5 -316.5zM1262 722q0 66 -6 135t-22 134t-43.5 122t-70.5 99.5t-103.5 67
t-141.5 24.5q-82 0 -143 -24.5t-104 -66.5t-70 -99t-42.5 -121.5t-21.5 -134t-6 -136.5q0 -66 6 -135t22 -133.5t43.5 -121.5t70.5 -99.5t103.5 -67.5t141.5 -25q79 0 138 25.5t102 69t71.5 101t45 122t23.5 132.5t7 132z" />
    <glyph glyph-name="P" unicode="P" horiz-adv-x="1498" 
d="M560 0h-397v1440h778q101 0 193.5 -27t163.5 -81.5t113.5 -137t42.5 -193.5q0 -70 -20 -131.5t-55.5 -112.5t-83.5 -92t-105 -69t-120.5 -43t-128.5 -15h-381v-538zM1052 1001q0 139 -70.5 218.5t-212.5 79.5h-209v-625h209q76 0 129.5 24.5t87.5 68.5t50 103.5t16 130.5
z" />
    <glyph glyph-name="Q" unicode="Q" horiz-adv-x="1754" 
d="M1612 -384l-376 -206q-61 52 -120.5 117.5t-112.5 138.5t-97 151t-73 155q-161 7 -298 61.5t-236.5 151.5t-156 232.5t-56.5 304.5q0 177 59.5 316.5t165 236t250.5 148t316 51.5t316 -51.5t250.5 -148t165 -236t59.5 -316.5q0 -149 -44 -272t-123.5 -217t-189.5 -156
t-242 -88q56 -59 122 -114t136.5 -103t143 -87.5t141.5 -68.5zM1264 722q0 66 -6 135t-22 134t-43.5 122t-70.5 99.5t-103.5 67t-141.5 24.5q-82 0 -143 -24.5t-104 -66.5t-70 -99t-42.5 -121.5t-21.5 -134t-6 -136.5q0 -66 6 -135t22 -133.5t43.5 -121.5t70.5 -99.5
t103.5 -67.5t141.5 -25q79 0 138 25.5t102 69t71.5 101t45 122t23.5 132.5t7 132z" />
    <glyph glyph-name="R" unicode="R" horiz-adv-x="1478" 
d="M560 0h-397v1440h708q100 0 193 -23.5t164.5 -74t114 -130.5t42.5 -194q0 -89 -37.5 -167.5t-100 -140t-143.5 -102t-168 -53.5q39 -66 81.5 -125t86 -110.5t86.5 -95t82 -79.5q92 -84 182 -145h-495q-60 57 -114 137q-46 68 -92.5 168.5t-71.5 232.5h-121v-538z
M982 1018q0 145 -70.5 213t-211.5 68h-140v-625h140q75 0 128.5 28.5t87.5 76t50 109.5t16 130z" />
    <glyph glyph-name="S" unicode="S" horiz-adv-x="1427" 
d="M1343 440q0 -93 -23.5 -164t-66 -123t-100.5 -87t-126.5 -56t-145 -30t-155.5 -9q-104 0 -192 15.5t-165.5 49t-149 86.5t-142.5 129l204 207q28 -69 77 -127.5t107.5 -100.5t121.5 -66t119 -24q66 0 124 9.5t101 31.5t67.5 58.5t24.5 91.5q0 42 -19 72t-49.5 51.5
t-69.5 36.5t-79.5 25.5t-79.5 19t-69 17.5q-59 17 -123 36.5t-126 44.5t-117.5 57.5t-97.5 77t-67 103t-25 134.5q0 91 22.5 161.5t63.5 122.5t97 87.5t123 57t142.5 31t154.5 9.5q108 0 196.5 -20t163.5 -57t137.5 -88.5t117.5 -114.5l-204 -207q-24 72 -66.5 130
t-94.5 99.5t-109 64t-110 22.5q-69 0 -127 -9.5t-99.5 -31t-64.5 -58t-23 -90.5q0 -43 17 -73t45.5 -51t64.5 -34.5t74.5 -23.5t76 -17.5t68.5 -16.5q60 -17 126 -36t130 -44.5t122 -58.5t102 -78.5t70 -105t26 -136.5z" />
    <glyph glyph-name="T" unicode="T" horiz-adv-x="1261" 
d="M829 0h-397v1256h-392v184h1181v-184h-392v-1256z" />
    <glyph glyph-name="U" unicode="U" horiz-adv-x="1630" 
d="M585 1440q-27 -81 -47 -167.5t-33 -173t-19.5 -170.5t-6.5 -159q0 -55 0.5 -123.5t8 -139.5t24.5 -138.5t50.5 -120.5t86 -85t130.5 -32q69 0 118.5 23.5t84 63.5t55 92t32 109t15 115.5t3.5 111.5v794h397v-732q0 -157 -50 -292t-141 -234.5t-220 -156t-286 -56.5
q-108 0 -201 30.5t-170.5 84t-138 127t-101 160.5t-61.5 183.5t-19 195.5v20q1 80 16 165.5t40.5 171.5t61.5 170.5t80 162.5h291z" />
    <glyph glyph-name="V" unicode="V" horiz-adv-x="1429" 
d="M909 0h-363l-538 1440h405l399 -1159l361 1159h246z" />
    <glyph glyph-name="W" unicode="W" horiz-adv-x="2057" 
d="M799 0h-363l-378 1440h405l239 -1022l212 1022h364l232 -1048l261 1048h245l-419 -1440h-364l-203 920z" />
    <glyph glyph-name="X" unicode="X" horiz-adv-x="1390" 
d="M1381 0h-405l-338 505l-346 -505h-280l520 662l-520 778h405l327 -489l357 489h280l-531 -647z" />
    <glyph glyph-name="Y" unicode="Y" horiz-adv-x="1328" 
d="M1332 1440l-466 -835v-605h-397v583l-471 857h405l313 -724l336 724h280z" />
    <glyph glyph-name="Z" unicode="Z" horiz-adv-x="1388" 
d="M1298 0h-1207v184h-1l753 1072h-752v184h1207v-184l-753 -1072h753v-184z" />
    <glyph glyph-name="bracketleft" unicode="[" horiz-adv-x="765" 
d="M675 -205h-514v1843h514v-197h-168v-1449h168v-197z" />
    <glyph glyph-name="backslash" unicode="\" horiz-adv-x="972" 
d="M920 0h-338l-530 1442h338z" />
    <glyph glyph-name="bracketright" unicode="]" horiz-adv-x="764" 
d="M604 -205h-514v197h166v1449h-166v197h514v-1843z" />
    <glyph glyph-name="asciicircum" unicode="^" horiz-adv-x="712" 
d="M712 819h-309l-100 348h-13l-114 -348h-176l217 615h280z" />
    <glyph glyph-name="underscore" unicode="_" horiz-adv-x="1443" 
d="M1139 -338h-835v175h835v-175z" />
    <glyph glyph-name="grave" unicode="`" horiz-adv-x="516" 
d="M516 1086h-200l-316 354h317z" />
    <glyph glyph-name="a" unicode="a" horiz-adv-x="1445" 
d="M1304 0h-338v138q-60 -82 -144.5 -121.5t-185.5 -39.5q-132 0 -236 47t-176 128.5t-110 191.5t-38 236t38 236t110 191.5t176 128.5t236 47q67 0 127.5 -20t111 -56.5t89 -88t60.5 -114.5l150 251h130v-1155zM964 580q0 45 -4.5 95t-15.5 99t-30.5 93.5t-50 79
t-73.5 54.5t-100 20t-99 -20.5t-72 -55t-49.5 -79.5t-30.5 -94t-15.5 -98.5t-4.5 -93.5t4.5 -94t15.5 -99t30.5 -94t49.5 -79.5t72 -55t99 -20.5q52 0 92.5 21.5t71 57.5t51.5 82t34 95t19 97.5t6 88.5z" />
    <glyph glyph-name="b" unicode="b" horiz-adv-x="1446" 
d="M1369 576q0 -126 -38 -236t-110 -191.5t-176 -128.5t-236 -47q-67 0 -127.5 20t-111 56.5t-89 87.5t-60.5 114l-150 -251h-130v1580h338v-563q60 83 144.5 122t185.5 39q132 0 236 -47t176 -128t110 -191t38 -236zM1026 576q0 44 -4.5 93.5t-15.5 98.5t-30.5 94
t-49.5 79.5t-72 55t-99 20.5q-52 0 -92.5 -21.5t-71 -57.5t-51.5 -82t-34 -95t-19 -97t-6 -88q0 -45 4.5 -95t15.5 -99.5t30.5 -94t50 -79t73 -54.5t100.5 -20q56 0 98.5 20.5t72.5 55t49.5 80t30.5 94.5t15.5 98.5t4.5 93.5z" />
    <glyph glyph-name="c" unicode="c" horiz-adv-x="1266" 
d="M1207 869l-146 -58q-35 110 -117 169t-197 59q-62 0 -110.5 -19.5t-85 -53.5t-62 -79t-41.5 -96t-23 -105.5t-7 -105.5q0 -55 6 -111t20.5 -107.5t38.5 -96t60.5 -77.5t87 -52t116.5 -19q53 0 101 16t88 45t71 69t49 89l147 -54q-33 -79 -87.5 -136.5t-123.5 -95
t-148 -55.5t-160 -18q-131 0 -243 44.5t-193.5 125t-127.5 191t-46 242.5q0 133 45.5 244t126.5 191t193 124t245 44q84 0 164 -18.5t148.5 -57t123 -97.5t87.5 -141z" />
    <glyph glyph-name="d" unicode="d" horiz-adv-x="1446" 
d="M1305 0h-130l-150 251q-22 -63 -60.5 -114t-89 -87.5t-111 -56.5t-127.5 -20q-132 0 -236 47t-176 128.5t-110 191.5t-38 236t38 236t110 191t176 128t236 47q101 0 185.5 -39t144.5 -122v563h338v-1580zM965 576q0 40 -6 88t-19 97t-34 95t-51.5 82t-71 57.5t-92.5 21.5
q-57 0 -99 -20.5t-72 -55t-49.5 -79.5t-30.5 -94t-15.5 -98.5t-4.5 -93.5t4.5 -93.5t15.5 -98.5t30.5 -94.5t49.5 -80t72 -55t99 -20.5t100 20t73.5 54.5t50 79t30.5 94t15.5 99.5t4.5 95z" />
    <glyph glyph-name="e" unicode="e" horiz-adv-x="1322" 
d="M419 548q62 -14 124 -22t125 -8q66 0 122.5 12.5t98 42t65.5 78.5t24 122q0 59 -16 108t-47.5 84t-77.5 54.5t-107 19.5q-57 0 -102.5 -21t-80 -56.5t-59 -82.5t-40.5 -98t-23 -103t-7 -98v-16t1 -16zM1252 776q0 -71 -23 -126.5t-62.5 -97.5t-91.5 -71t-111 -47.5
t-121.5 -26.5t-121.5 -8q-75 0 -148 10.5t-144 33.5q11 -66 35 -125.5t64 -104t98.5 -70.5t138.5 -26q53 0 101 16t88 45t70.5 69t49.5 89l146 -54q-33 -79 -90.5 -136.5t-130 -95t-154 -55.5t-161.5 -18q-132 0 -244 44.5t-193 124.5t-127 191t-46 243t46 243t127 191
t193 124.5t244 44.5q64 0 131 -9t130 -28.5t119 -50.5t97.5 -76.5t66 -105.5t24.5 -137z" />
    <glyph glyph-name="f" unicode="f" horiz-adv-x="998" 
d="M1220 1630l-191 -316q-3 38 -14 87.5t-36.5 93.5t-70 74.5t-113.5 30.5q-71 0 -114 -28t-66 -84t-31 -139t-8 -193h350v-134h-350v-1022h-339v1022h-210v134h210q0 159 34 273t103 187.5t173.5 108t244.5 34.5q84 0 150.5 -11.5t118 -30t90.5 -41.5t69 -46z" />
    <glyph glyph-name="g" unicode="g" horiz-adv-x="1445" 
d="M1304 139q0 -138 -41 -260t-119 -213.5t-191.5 -145t-258.5 -53.5q-80 0 -161.5 18t-154 55.5t-130 95t-90.5 135.5l146 55q19 -49 49.5 -90t70.5 -70.5t88 -46t101 -16.5q100 0 167.5 41t108.5 107t59 149.5t18 169.5v68q-60 -82 -144.5 -121.5t-185.5 -39.5
q-132 0 -236 47t-176 128.5t-110 191.5t-38 236t38 236t110 191.5t176 128.5t236 47q67 0 127.5 -20t111 -56.5t89 -88t60.5 -114.5l150 251h130v-1016zM964 580q0 45 -4.5 95t-15.5 99t-30.5 93.5t-50 79t-73.5 54.5t-100 20t-99 -20.5t-72 -55t-49.5 -79.5t-30.5 -94
t-15.5 -98.5t-4.5 -93.5t4.5 -94t15.5 -99t30.5 -94t49.5 -79.5t72 -55t99 -20.5q52 0 92.5 21.5t71 57.5t51.5 82t34 95t19 97.5t6 88.5z" />
    <glyph glyph-name="h" unicode="h" 
d="M1322 662q0 -117 -28.5 -244t-79.5 -249t-122 -229.5t-156 -185.5l-127 69q27 50 51 112t43.5 131.5t35 143.5t26 146.5t16 141t5.5 127.5q0 39 -3 83.5t-12.5 89t-25.5 85.5t-42.5 72t-64 50t-88.5 19q-50 0 -89 -22.5t-69 -59t-51.5 -83.5t-35 -96.5t-19.5 -97.5
t-6 -86v-579h-339v1580h338v-595q65 95 159.5 146.5t209.5 51.5q120 0 209 -39t148 -108.5t88 -165t29 -208.5z" />
    <glyph glyph-name="i" unicode="i" horiz-adv-x="623" 
d="M496 1434q0 -38 -14.5 -72t-39.5 -59t-59 -39.5t-72 -14.5t-71.5 14.5t-58.5 39.5t-39.5 59t-14.5 72t14.5 71.5t39.5 58.5t58.5 39.5t71.5 14.5t72 -14.5t59 -39.5t39.5 -58.5t14.5 -71.5zM481 0h-339v1154h339v-1154z" />
    <glyph glyph-name="j" unicode="j" horiz-adv-x="620" 
d="M498 1434q0 -38 -14.5 -72t-39.5 -59t-58.5 -39.5t-71.5 -14.5t-72 14.5t-59 39.5t-39.5 59t-14.5 72t14.5 71.5t39.5 58.5t59 39.5t72 14.5t71.5 -14.5t58.5 -39.5t39.5 -58.5t14.5 -71.5zM483 334q0 -119 -30 -241.5t-84.5 -237t-130 -215t-166.5 -173.5l-132 80
q51 70 89 158.5t63.5 183.5t38.5 191.5t13 183.5v891h339v-821z" />
    <glyph glyph-name="k" unicode="k" horiz-adv-x="1309" 
d="M479 0h-338v1580h338v-1037q83 60 163.5 132t153.5 151.5t135.5 162.5t109.5 166h230q-70 -118 -166 -235.5t-209 -224.5l379 -695h-373l-269 482q-75 -51 -154 -94v-388z" />
    <glyph glyph-name="l" unicode="l" horiz-adv-x="620" 
d="M479 0h-338v1687h130l208 -351v-1336z" />
    <glyph glyph-name="m" unicode="m" horiz-adv-x="2012" 
d="M1928 674q0 -119 -28 -248t-78.5 -251.5t-121.5 -231.5t-158 -189l-127 69q29 52 53 117t44 137t35 148t25.5 151.5t15.5 146.5t5 133q0 35 -2 76t-8.5 82t-19.5 78.5t-35.5 67t-56 47t-80.5 17.5q-46 0 -78.5 -24.5t-55.5 -63.5t-36.5 -88t-20.5 -98.5t-9.5 -94.5
t-2.5 -76v-579h-337v538q0 35 1 84.5t-2.5 103.5t-13 107.5t-30 95.5t-55.5 68.5t-88 26.5q-45 0 -75.5 -25t-51 -64.5t-32 -89t-17 -99t-6.5 -94t-1 -73.5v-579h-339v1155h130l124 -269q42 140 132.5 218.5t240.5 78.5q135 0 224 -56t140 -182q29 55 64.5 99t79 75
t96.5 47.5t117 16.5q118 0 201.5 -38.5t136.5 -106.5t77 -161.5t24 -202.5z" />
    <glyph glyph-name="n" unicode="n" 
d="M1322 662q0 -117 -28.5 -244t-79.5 -249t-122 -229.5t-156 -185.5l-127 69q27 50 51 112t43.5 131.5t35 143.5t26 146.5t16 141t5.5 127.5q0 39 -3 83.5t-12.5 89t-25.5 85.5t-42.5 72t-64 50t-88.5 19q-50 0 -89 -22.5t-69 -59t-51.5 -83.5t-35 -96.5t-19.5 -97.5
t-6 -86v-579h-339v1155h130l155 -269q28 67 70 122t95 94t117.5 60t139.5 21q120 0 209 -39t148 -108.5t88 -165t29 -208.5z" />
    <glyph glyph-name="o" unicode="o" horiz-adv-x="1433" 
d="M1361 580q0 -90 -24 -169t-66.5 -146t-102.5 -120.5t-131.5 -90.5t-153 -57t-167.5 -20t-167 20t-152.5 57t-131.5 90.5t-102.5 120.5t-66.5 146.5t-24 168.5t24 168.5t66.5 146.5t102.5 120.5t131.5 90.5t152.5 57t167 20t167.5 -20t153 -57t131.5 -90.5t102.5 -120.5
t66.5 -146.5t24 -168.5zM1017 580q0 48 -5.5 101.5t-18.5 105t-35.5 99t-55.5 83t-79 57t-107 21.5q-58 0 -103 -22t-78.5 -58.5t-56 -84.5t-36.5 -99.5t-20 -104t-6 -98.5t6 -98.5t20 -104.5t36.5 -99.5t56 -84t78.5 -58.5t103 -22q60 0 106 21.5t79.5 57.5t55.5 83
t35.5 99t19 105t5.5 101z" />
    <glyph glyph-name="p" unicode="p" horiz-adv-x="1445" 
d="M1369 580q0 -126 -38 -236t-110 -191.5t-176 -128.5t-236 -47q-101 0 -185.5 39.5t-144.5 121.5v-671h-338v1688h130l150 -251q22 63 60.5 114.5t89 88t111 56.5t127.5 20q132 0 236 -47t176 -128.5t110 -191.5t38 -236zM1026 580q0 44 -4.5 93.5t-15.5 98.5t-30.5 94
t-49.5 79.5t-72.5 55t-98.5 20.5q-58 0 -100.5 -20t-73 -54.5t-50 -79t-30.5 -93.5t-15.5 -99t-4.5 -95q0 -40 6 -88.5t19 -97.5t34 -95t51.5 -82t71 -57.5t92.5 -21.5q57 0 99 20.5t72 55t49.5 79.5t30.5 94t15.5 99t4.5 94z" />
    <glyph glyph-name="q" unicode="q" horiz-adv-x="1445" 
d="M1304 -533h-338v671q-60 -82 -144.5 -121.5t-185.5 -39.5q-132 0 -236 47t-176 128.5t-110 191.5t-38 236t38 236t110 191.5t176 128.5t236 47q67 0 127.5 -20t111 -56.5t89 -88t60.5 -114.5l150 251h130v-1688zM964 580q0 45 -4.5 95t-15.5 99t-30.5 93.5t-50 79
t-73.5 54.5t-100 20t-99 -20.5t-72 -55t-49.5 -79.5t-30.5 -94t-15.5 -98.5t-4.5 -93.5t4.5 -94t15.5 -99t30.5 -94t49.5 -79.5t72 -55t99 -20.5q52 0 92.5 21.5t71 57.5t51.5 82t34 95t19 97.5t6 88.5z" />
    <glyph glyph-name="r" unicode="r" horiz-adv-x="1123" 
d="M1123 1053l-190 -315q-12 40 -31 90t-47 93.5t-67 73t-90 29.5q-47 0 -81.5 -24t-58.5 -62.5t-39.5 -87t-24 -98t-11.5 -95t-3 -78.5v-579h-339v1155h130l137 -269q28 65 64 119.5t83 94t106.5 61.5t134.5 22q39 0 87 -6.5t94 -22t85 -40.5t61 -61z" />
    <glyph glyph-name="s" unicode="s" horiz-adv-x="1207" 
d="M1135 369q0 -76 -22 -135t-60 -102.5t-90 -73t-111.5 -47.5t-124.5 -26t-129 -8q-86 0 -152 11t-126 35.5t-119.5 63.5t-132.5 95l197 161q27 -51 71.5 -92.5t92.5 -71.5t93 -46t73 -16q23 0 52 1.5t59 6t59 13.5t51.5 24.5t36 39t13.5 56.5q0 34 -17.5 59.5t-45.5 44.5
t-64 32t-72.5 23t-70.5 17.5t-59 14.5q-46 13 -97 26.5t-101 31t-95.5 41.5t-80 57.5t-55 79t-20.5 106.5q0 112 44.5 187.5t117.5 121t166 64.5t189 19q66 0 139 -13.5t142 -40t129 -64.5t100 -87l-197 -162q-22 60 -57.5 103t-77 70.5t-85 40.5t-80.5 13q-36 0 -81 -3
t-84.5 -17t-67 -42.5t-27.5 -78.5q0 -36 16.5 -61.5t43.5 -44t61.5 -31t70.5 -22t70 -16.5t61 -15q46 -13 97.5 -26.5t101.5 -31t96.5 -41t81.5 -57.5t56 -79.5t21 -107.5z" />
    <glyph glyph-name="t" unicode="t" horiz-adv-x="942" 
d="M576 0h-339v1021h-210v134h210v425h339v-425h350v-134h-350v-1021z" />
    <glyph glyph-name="u" unicode="u" 
d="M82 494q0 79 13.5 164t39 170t61.5 168t81 159h247q-25 -75 -44.5 -156.5t-33 -163t-21 -159.5t-7.5 -145q0 -39 3.5 -83.5t12.5 -89t25.5 -85.5t42.5 -72.5t63.5 -50t88.5 -18.5q50 0 89.5 22.5t69.5 59t51 83.5t34.5 96.5t20 97t6.5 85.5v579h338v-1155h-130l-155 269
q-29 -67 -70.5 -121.5t-94.5 -93.5t-117.5 -60t-139.5 -21q-120 0 -209 39t-148 108t-88 164.5t-29 209.5z" />
    <glyph glyph-name="v" unicode="v" horiz-adv-x="1192" 
d="M735 0h-304l-420 1155h338l308 -920l299 920h234z" />
    <glyph glyph-name="w" unicode="w" horiz-adv-x="1730" 
d="M671 0h-304l-316 1155h338l198 -810l165 810h304l202 -832l195 832h234l-350 -1155h-304l-171 702z" />
    <glyph glyph-name="x" unicode="x" horiz-adv-x="1177" 
d="M1162 0h-338l-283 405l-289 -405h-234l435 532l-435 623h338l274 -392l298 392h234l-444 -518z" />
    <glyph glyph-name="y" unicode="y" horiz-adv-x="1175" 
d="M1175 1155l-420 -1016q-72 -174 -160.5 -344.5t-191.5 -327.5l-132 80q25 45 59 104t67 122t61 124.5t43 112.5l-505 1145h338l343 -781l264 781h234z" />
    <glyph glyph-name="z" unicode="z" horiz-adv-x="1132" 
d="M1056 0h-978v134v0l605 887h-605v134h978v-134l-605 -887h605v-134z" />
    <glyph glyph-name="braceleft" unicode="{" horiz-adv-x="886" 
d="M817 -207h-170q-120 0 -195.5 17.5t-118 62.5t-58 121.5t-15.5 195.5v166q0 51 -14.5 92t-40 74.5t-61.5 59.5t-79 47v159q43 21 79 47t61.5 59t40 73.5t14.5 91.5v180q0 118 15.5 195t58 121t118 61.5t195.5 17.5h170v-172q-57 -12 -97 -22.5t-66 -31.5t-38 -58
t-12 -103v-145q0 -79 -17.5 -152t-56.5 -127.5t-102 -86t-154 -27.5q95 -2 158.5 -32t101.5 -82.5t54 -124t16 -155.5v-135q0 -76 9 -117t33 -61.5t65.5 -28t105.5 -16.5v-164z" />
    <glyph glyph-name="bar" unicode="|" horiz-adv-x="618" 
d="M458 -205h-297v1843h297v-1843z" />
    <glyph glyph-name="braceright" unicode="}" horiz-adv-x="885" 
d="M820 629q-43 -21 -79 -47t-61.5 -59.5t-39.5 -74.5t-14 -92v-166q0 -119 -15.5 -195.5t-58.5 -121.5t-118 -62.5t-195 -17.5h-170v164q64 9 105.5 16.5t65.5 28t33 61.5t9 117v135q0 84 15.5 155.5t53.5 124t101.5 82.5t158.5 32q-91 -4 -154 27.5t-102 86t-56 127.5
t-17 152v145q0 66 -12 103t-38 58t-66 31.5t-97 22.5v172h170q120 0 195 -17.5t118 -61.5t58.5 -121t15.5 -195v-180q0 -51 14.5 -91.5t40 -73.5t61 -59t78.5 -47v-159z" />
    <glyph glyph-name="asciitilde" unicode="~" horiz-adv-x="1100" 
d="M981 868q0 -54 -16 -114.5t-48.5 -111.5t-81 -84.5t-112.5 -33.5q-65 0 -116.5 16.5t-93 37t-75.5 37t-64 16.5q-20 0 -33.5 -10.5t-21.5 -26.5t-12 -35t-4 -35h-178q0 57 16 118t49 111.5t82.5 82.5t116.5 32q60 0 110.5 -16t92.5 -35t75.5 -35t59.5 -16q19 0 32.5 10
t22 25.5t12.5 33.5t5 33h182z" />
    <glyph glyph-name="nonbreakingspace" unicode="&#xa0;" horiz-adv-x="580" 
 />
    <glyph glyph-name="exclamdown" unicode="&#xa1;" horiz-adv-x="667" 
d="M516 1308q0 -38 -14.5 -71.5t-39 -58t-58 -39t-70.5 -14.5q-38 0 -71.5 14.5t-58 39t-39 58t-14.5 71.5q0 37 14.5 70.5t39 58t58 39t71.5 14.5q37 0 70.5 -14.5t58 -39t39 -58t14.5 -70.5zM548 -83h-428l111 1145h205z" />
    <glyph glyph-name="cent" unicode="&#xa2;" horiz-adv-x="1036" 
d="M402 421l175 638q-63 -9 -110 -45.5t-78.5 -88.5t-47 -114t-15.5 -122q0 -72 18 -143t58 -125zM821 1469l-90 -330q76 -29 136 -83t91 -136l-110 -46q-18 60 -54 104t-88 66l-194 -709q45 -18 101 -18q41 0 77.5 13.5t66.5 37.5t52 56.5t36 70.5l110 -44
q-24 -61 -66.5 -106.5t-96.5 -75.5t-115.5 -45t-124.5 -15q-19 0 -37 1t-36 4l-66 -243h-133l75 277q-64 27 -117 71t-90.5 101t-58.5 125t-21 144q0 102 37.5 190t102.5 152.5t153.5 101.5t190.5 37q14 0 27 -0.5t27 -1.5l82 301h133z" />
    <glyph glyph-name="sterling" unicode="&#xa3;" horiz-adv-x="1166" 
d="M901 596h-359v-300h509v-147h-827v447h-151v147h151v59q0 127 35 227t99.5 169.5t156 106t203.5 36.5q21 0 50.5 -4t63 -11t68 -16.5t65.5 -21t56 -24.5t39 -26l-153 -253q-9 32 -24.5 72t-38 75t-53 58.5t-71.5 23.5q-56 0 -91 -31.5t-54.5 -87t-26 -130.5t-6.5 -163
v-59h359v-147z" />
    <glyph glyph-name="currency" unicode="&#xa4;" horiz-adv-x="893" 
d="M565 738q0 23 -9 43.5t-24.5 36t-36 24.5t-43.5 9t-43 -9t-35 -24.5t-24 -36t-9 -43.5t8.5 -43.5t23.5 -36.5t35.5 -25t43.5 -9t43.5 9t36 24.5t24.5 36.5t9 44zM705 396l-141 141q-51 -28 -110 -28q-32 0 -60.5 8t-53.5 22l-153 -152l-87 88l155 155q-26 47 -26 106
q0 58 28 109l-142 142l88 87l140 -141q25 14 53 22t58 8q29 0 56 -7t51 -20l129 129l88 -88l-128 -128q31 -51 31 -113q0 -30 -7.5 -58t-21.5 -53l141 -141z" />
    <glyph glyph-name="yen" unicode="&#xa5;" horiz-adv-x="1180" 
d="M1005 527h-253v-383h-318v383h-258v147h223l-342 622h324l250 -579l269 579h224l-346 -622h227v-147z" />
    <glyph glyph-name="brokenbar" unicode="&#xa6;" horiz-adv-x="625" 
d="M461 803h-297v835h297v-835zM461 -205h-297v836h297v-836z" />
    <glyph glyph-name="section" unicode="&#xa7;" horiz-adv-x="1269" 
d="M1163 269q0 -76 -22 -135t-60.5 -102.5t-90 -73t-111.5 -47.5t-124.5 -26t-128.5 -8q-89 0 -157 12t-128 37t-118 63.5t-127 92.5l197 161q19 -36 57 -76t84.5 -73.5t96.5 -55t92 -21.5q36 0 82.5 3.5t88.5 18t71 42.5t29 77q0 48 -33.5 79.5t-88 53.5t-124.5 39
t-143 35.5t-143 42.5t-124.5 61t-88 90.5t-33.5 131.5t26.5 144.5t86.5 118.5q-113 81 -113 217q0 75 20.5 133t56.5 101.5t85.5 73.5t107 48.5t120.5 27t127 8.5q63 0 135.5 -13t142 -39t130.5 -64t102 -89l-197 -162q-17 46 -47 87.5t-69 72.5t-86 49t-98 18
q-36 0 -81.5 -3.5t-85 -17.5t-66.5 -42t-27 -78q0 -35 17 -61t44.5 -45t62 -32t70.5 -22t70 -16t59 -14q46 -13 97.5 -26.5t102 -31t96.5 -41.5t81 -58t56 -79.5t21 -106.5q0 -78 -25.5 -145.5t-84.5 -120.5q110 -78 110 -214zM894 638q0 34 -17.5 59.5t-46 44.5t-64 32.5
t-72 23.5t-70.5 17t-59 14q-40 11 -79.5 21.5t-78.5 22.5q-11 -15 -16 -33.5t-5 -37.5q0 -36 17 -61.5t44 -44.5t62 -32t71 -22t70 -16t59 -14q41 -11 81 -22t80 -23q24 30 24 71z" />
    <glyph glyph-name="dieresis" unicode="&#xa8;" horiz-adv-x="672" 
d="M672 1257q0 -30 -11.5 -57t-31.5 -47t-47 -31.5t-58 -11.5q-30 0 -57 11.5t-47 31.5t-31.5 47t-11.5 57t11.5 57t31.5 47t47 31.5t57 11.5q31 0 58 -11.5t47 -31.5t31.5 -47t11.5 -57zM295 1257q0 -30 -11.5 -57t-31.5 -47t-47 -31.5t-58 -11.5q-30 0 -57 11.5t-47 31.5
t-31.5 47t-11.5 57t11.5 57t31.5 47t47 31.5t57 11.5q31 0 58 -11.5t47 -31.5t31.5 -47t11.5 -57z" />
    <glyph glyph-name="copyright" unicode="&#xa9;" horiz-adv-x="751" 
d="M641 726q0 -55 -21 -103.5t-57 -84.5t-84 -57t-103 -21t-103.5 21t-84.5 57t-57 84.5t-21 103.5t21 103.5t57 84.5t84.5 57t103.5 21t103 -21t84 -57t57 -84.5t21 -103.5zM601 725q0 46 -17.5 87t-48.5 71.5t-72 48t-87 17.5q-47 0 -87.5 -17.5t-71 -48t-48 -71.5
t-17.5 -87q0 -47 17.5 -87.5t48 -71.5t71 -48.5t87.5 -17.5q46 0 87 17.5t72 48.5t48.5 71.5t17.5 87.5zM537 814l-43 -18q-10 32 -33.5 52.5t-58.5 20.5q-28 0 -49 -13.5t-35 -34.5t-21 -46.5t-7 -50.5q0 -26 6 -52t19.5 -46.5t35 -33.5t51.5 -13q32 0 55.5 20t34.5 49
l43 -17q-19 -48 -63.5 -71.5t-93.5 -23.5q-40 0 -74.5 14.5t-60 40t-40 59.5t-14.5 74t14.5 74.5t40 59.5t60 39.5t74.5 14.5q51 0 95 -24t64 -74z" />
    <glyph glyph-name="ordfeminine" unicode="&#xaa;" horiz-adv-x="1192" 
d="M1015 612h-245v86q-42 -52 -99 -77t-124 -25q-92 0 -164.5 33t-123 90t-77.5 134t-27 165t26.5 165t77 134t123.5 90t165 33q46 0 87.5 -13.5t76.5 -37.5t62 -58.5t44 -76.5l100 167h98v-809zM769 1018q0 47 -7 99.5t-27.5 97t-56.5 74t-93 29.5t-92.5 -29.5t-55.5 -74.5
t-27.5 -97.5t-7.5 -98.5t7 -98.5t27.5 -97.5t56 -74.5t92.5 -29.5q34 0 61.5 14.5t47.5 38.5t34.5 55.5t23.5 64.5t13 66t4 61zM1015 299h-860v184h860v-184z" />
    <glyph glyph-name="guillemotleft" unicode="&#xab;" horiz-adv-x="1412" 
d="M688 952v-209l-378 -160v-13l378 -174v-196l-614 307v140zM1268 952v-209l-378 -160v-13l378 -174v-196l-614 307v140z" />
    <glyph glyph-name="logicalnot" unicode="&#xac;" horiz-adv-x="1129" 
d="M976 369h-207v260h-629v184h836v-444z" />
    <glyph glyph-name="uni00AD" unicode="&#xad;" horiz-adv-x="1282" 
d="M1141 629h-1000v184h1000v-184z" />
    <glyph glyph-name="registered" unicode="&#xae;" horiz-adv-x="735" 
d="M418 1246q0 70 -70 70h-35v-156h35q38 0 54 26t16 60zM633 1174q0 -55 -21 -103t-57 -84t-84 -57t-103 -21t-103.5 21t-84.5 57t-57 84t-21 103t21 103.5t57 84.5t84.5 57t103.5 21t103 -21t84 -57t57 -84.5t21 -103.5zM237 991q28 -20 61 -31t70 -11t70.5 11t61.5 31
h-87q-16 14 -29 34q-11 17 -23 42.5t-18 58.5h-30v-135h-76zM214 1336q-32 -31 -51 -73t-19 -90t19 -89.5t51 -72.5v325zM593 1173q0 46 -17.5 87t-48.5 72t-72 48.5t-87 17.5q-38 0 -73 -12t-64 -35h160q25 0 48 -5.5t41 -18.5t28.5 -33t10.5 -48q0 -23 -9.5 -42.5
t-25 -34.5t-35.5 -25.5t-42 -13.5q13 -23 28 -42.5t30 -35t28.5 -27.5t23.5 -20q35 32 55.5 75t20.5 93z" />
    <glyph glyph-name="macron" unicode="&#xaf;" horiz-adv-x="545" 
d="M545 1142h-545v198h545v-198z" />
    <glyph glyph-name="degree" unicode="&#xb0;" horiz-adv-x="638" 
d="M545 1239q0 -47 -18 -88.5t-48.5 -72t-72 -48.5t-88.5 -18t-88 18t-71.5 48.5t-48 72t-17.5 88.5q0 46 17.5 87.5t48 72.5t71.5 49t88 18t88.5 -18t72 -48.5t48.5 -72t18 -88.5zM402 1239q0 34 -25 59t-59 25t-58 -25t-24 -59t23.5 -59t58.5 -25t59.5 24.5t24.5 59.5z
" />
    <glyph glyph-name="plusminus" unicode="&#xb1;" horiz-adv-x="1081" 
d="M958 629h-269v-308h-297v308h-269v184h269v293h297v-293h269v-184zM958 0h-835v184h835v-184z" />
    <glyph glyph-name="twosuperior" unicode="&#xb2;" horiz-adv-x="878" 
d="M122 736q13 81 39 135t59 89t70.5 54.5t75.5 33.5q30 10 62 19.5t58.5 24.5t43.5 39t17 64q0 54 -34 81.5t-86 27.5t-90 -38.5t-55 -111.5l-153 85q20 41 55 71t77 49.5t86.5 28.5t83.5 9q56 0 111 -7.5t98.5 -30.5t70.5 -64.5t27 -108.5q0 -63 -25 -100t-64 -59
t-86.5 -35.5t-93.5 -29.5q-50 -17 -87 -44.5t-50 -81.5h406v-100h-616z" />
    <glyph glyph-name="threesuperior" unicode="&#xb3;" horiz-adv-x="822" 
d="M400 725q-39 0 -86 9t-91 28.5t-81 50t-58 72.5l178 85q0 -34 11.5 -62t31 -47.5t44.5 -30.5t51 -11t50 7.5t42.5 22t29.5 35.5t11 48q0 60 -38 87t-95 27h-95v93h95q39 0 68.5 20t29.5 58q0 43 -27 60t-71 17q-21 0 -40 -5.5t-33 -17.5t-22.5 -31.5t-8.5 -46.5l-148 109
q22 27 53.5 45.5t66 29.5t69 15.5t63.5 4.5q38 0 85 -6.5t88 -25.5t69 -52.5t28 -87.5q0 -37 -25 -69t-57 -51q28 -9 52.5 -25.5t43 -38.5t29.5 -49.5t11 -59.5q0 -68 -32.5 -108.5t-81 -62.5t-105.5 -29t-105 -7z" />
    <glyph glyph-name="acute" unicode="&#xb4;" horiz-adv-x="516" 
d="M516 1440l-317 -354h-199l198 354h318z" />
    <glyph glyph-name="mu" unicode="&#xb5;" horiz-adv-x="1479" 
d="M519 -397h-337v1552h337v-676q0 -62 8 -124t32.5 -111.5t70 -80.5t121.5 -31q50 0 89.5 22.5t69.5 59t51.5 83.5t35 96.5t19.5 97t6 85.5v579h339v-1155h-130l-155 269q-29 -67 -65.5 -122.5t-82.5 -94.5t-101.5 -60t-122.5 -19q-30 0 -59.5 6.5t-54.5 15t-44 18
t-27 17.5v-427z" />
    <glyph glyph-name="paragraph" unicode="&#xb6;" horiz-adv-x="1680" 
d="M1016 0h-336v538h-100q-65 0 -128.5 15t-120.5 43t-105.5 69t-84 92t-55.5 112.5t-20 131.5q0 111 42.5 193.5t113.5 137t164 81.5t194 27h884v-1440h-338v1256h-110v-1256z" />
    <glyph glyph-name="periodcentered" unicode="&#xb7;" horiz-adv-x="601" 
d="M483 702q0 -38 -14.5 -71t-39 -57.5t-58 -39t-70.5 -14.5q-38 0 -71.5 14.5t-58 39t-39 57.5t-14.5 71t14.5 71.5t39 58t58 39t71.5 14.5q37 0 70.5 -14.5t58 -39t39 -58t14.5 -71.5z" />
    <glyph glyph-name="cedilla" unicode="&#xb8;" horiz-adv-x="426" 
d="M426 -207q0 -53 -18 -92t-49.5 -65.5t-74.5 -39.5t-92 -13q-40 0 -75 15.5t-61 41.5t-41 61.5t-15 75.5h113q1 -29 25.5 -43.5t49.5 -14.5q41 0 59.5 16t18.5 58q0 22 -15.5 34t-37.5 18t-45 7.5t-39 1.5l49 217h114l-35 -133q31 0 61.5 -9.5t54.5 -28t38.5 -45.5
t14.5 -62z" />
    <glyph glyph-name="onesuperior" unicode="&#xb9;" horiz-adv-x="600" 
d="M136 739v100h82v449h-82v99h270v-548h82v-100h-352z" />
    <glyph glyph-name="ordmasculine" unicode="&#xba;" horiz-adv-x="1190" 
d="M1046 1018q0 -94 -36.5 -172t-98.5 -133.5t-144 -86t-172 -30.5t-172 30.5t-144 86t-98.5 133.5t-36.5 172t36.5 171.5t98.5 133t144 86.5t172 31t172 -31t144 -86.5t98.5 -133t36.5 -171.5zM798 1018q0 50 -9 106t-31.5 103t-62 78t-100.5 31q-59 0 -98 -31.5t-62 -79.5
t-33 -103.5t-10 -103.5t10 -103.5t33 -103.5t62 -79.5t98 -31.5q61 0 100 31t62 78t32 103t9 106zM1025 299h-860v184h860v-184z" />
    <glyph glyph-name="guillemotright" unicode="&#xbb;" horiz-adv-x="1412" 
d="M758 507l-614 -307v196l378 174v13l-378 160v209l614 -305v-140zM1338 507l-614 -307v196l378 174v13l-378 160v209l614 -305v-140z" />
    <glyph glyph-name="onequarter" unicode="&#xbc;" horiz-adv-x="1327" 
d="M1157 1390l-789 -1340h-208l779 1340h218zM100 739v100h82v449h-82v99h270v-548h82v-100h-352zM1198 189v-143h-192v143h-361q26 112 76 219t114 198h143q-34 -56 -58 -107.5t-40 -93t-25 -72t-13 -44.5h164v405h192v-405h44v-100h-44z" />
    <glyph glyph-name="onehalf" unicode="&#xbd;" horiz-adv-x="1449" 
d="M1157 1390l-789 -1340h-208l779 1340h218zM100 739v100h82v449h-82v99h270v-548h82v-100h-352zM760 45q13 81 39 135t59 88.5t70.5 54.5t75.5 34q29 10 61 19.5t58.5 24.5t43.5 39t17 64q0 54 -34 81.5t-85 27.5q-52 0 -90 -38.5t-55 -111.5l-153 84q20 42 55 72t77 49.5
t86.5 28.5t83.5 9q56 0 111 -7.5t98.5 -30.5t70.5 -64.5t27 -108.5q0 -63 -24.5 -100t-63.5 -59t-87 -35.5t-94 -29.5q-50 -17 -87.5 -44.5t-50.5 -81.5h407v-100h-616z" />
    <glyph glyph-name="threequarters" unicode="&#xbe;" horiz-adv-x="1515" 
d="M1331 1390l-788 -1340h-208l778 1340h218zM1373 189v-143h-193v143h-360q26 112 76 219t114 198h143q-34 -56 -58.5 -107.5t-40.5 -93t-25 -72t-12 -44.5h163v405h193v-405h43v-100h-43zM379 725q-39 0 -86 9t-91 28.5t-81 50t-58 72.5l178 85q0 -34 11.5 -62t31 -47.5
t44.5 -30.5t51 -11t50 7.5t42.5 22t29.5 35.5t11 48q0 60 -38 87t-95 27h-95v93h95q39 0 68.5 20t29.5 58q0 43 -27 60t-71 17q-21 0 -40 -5.5t-33 -17.5t-22.5 -31.5t-8.5 -46.5l-148 109q22 27 53.5 45.5t66 29.5t69 15.5t63.5 4.5q38 0 85 -6.5t88 -25.5t69 -52.5
t28 -87.5q0 -37 -25 -69t-57 -51q28 -9 52.5 -25.5t43 -38.5t29.5 -49.5t11 -59.5q0 -68 -32.5 -108.5t-81 -62.5t-105.5 -29t-105 -7z" />
    <glyph glyph-name="questiondown" unicode="&#xbf;" horiz-adv-x="1244" 
d="M874 1312q0 -37 -14.5 -70t-39.5 -58t-58 -39.5t-70 -14.5t-70 14.5t-58 39.5t-39.5 58t-14.5 70t14.5 70t39.5 58t58 39.5t70 14.5t70 -14.5t58 -39.5t39.5 -58t14.5 -70zM1194 173q-39 -73 -96 -122t-125.5 -79t-145 -42.5t-154.5 -12.5q-70 0 -141 15t-136.5 44.5
t-123 72.5t-100 99.5t-67 126t-24.5 150.5q0 76 22 131.5t58 97t82 73t94 58.5t94 53t82 57.5t58 72t22 96.5h205q0 -86 -23 -147.5t-58 -110.5t-75.5 -92t-75.5 -90.5t-58 -106.5t-23 -141q0 -66 11.5 -117.5t36 -86.5t64 -53.5t95.5 -18.5q52 0 94 26t71.5 66t45 88.5
t15.5 93.5z" />
    <glyph glyph-name="Agrave" unicode="&#xc0;" horiz-adv-x="1629" 
d="M1534 689v-19q-2 -84 -17.5 -174t-43.5 -180t-67 -178t-87.5 -168.5t-104.5 -151t-118 -124.5l-149 86q35 59 63.5 128.5t51.5 145.5t39.5 156t27.5 159t16.5 155.5t5.5 145.5q0 54 -0.5 122.5t-8 139.5t-24.5 138.5t-50.5 120.5t-86 85t-130.5 32q-69 0 -118.5 -23.5
t-84 -63t-55 -91.5t-32 -109.5t-15 -116t-3.5 -110.5v-279h431v-165h-431v-350h-397v732q0 157 50 292t141.5 234.5t220 156t286.5 56.5q107 0 200.5 -30.5t170.5 -84t137.5 -127t101 -160.5t61.5 -184t19 -196zM932 1572h-200l-316 354h317z" />
    <glyph glyph-name="Aacute" unicode="&#xc1;" horiz-adv-x="1629" 
d="M1534 689v-19q-2 -84 -17.5 -174t-43.5 -180t-67 -178t-87.5 -168.5t-104.5 -151t-118 -124.5l-149 86q35 59 63.5 128.5t51.5 145.5t39.5 156t27.5 159t16.5 155.5t5.5 145.5q0 54 -0.5 122.5t-8 139.5t-24.5 138.5t-50.5 120.5t-86 85t-130.5 32q-69 0 -118.5 -23.5
t-84 -63t-55 -91.5t-32 -109.5t-15 -116t-3.5 -110.5v-279h431v-165h-431v-350h-397v732q0 157 50 292t141.5 234.5t220 156t286.5 56.5q107 0 200.5 -30.5t170.5 -84t137.5 -127t101 -160.5t61.5 -184t19 -196zM1250 1917l-317 -354h-199l198 354h318z" />
    <glyph glyph-name="Acircumflex" unicode="&#xc2;" horiz-adv-x="1629" 
d="M1534 689v-19q-2 -84 -17.5 -174t-43.5 -180t-67 -178t-87.5 -168.5t-104.5 -151t-118 -124.5l-149 86q35 59 63.5 128.5t51.5 145.5t39.5 156t27.5 159t16.5 155.5t5.5 145.5q0 54 -0.5 122.5t-8 139.5t-24.5 138.5t-50.5 120.5t-86 85t-130.5 32q-69 0 -118.5 -23.5
t-84 -63t-55 -91.5t-32 -109.5t-15 -116t-3.5 -110.5v-279h431v-165h-431v-350h-397v732q0 157 50 292t141.5 234.5t220 156t286.5 56.5q107 0 200.5 -30.5t170.5 -84t137.5 -127t101 -160.5t61.5 -184t19 -196zM1103 1561h-250l-65 138l-66 -138h-146l193 355h135z" />
    <glyph glyph-name="Atilde" unicode="&#xc3;" horiz-adv-x="1629" 
d="M1534 689v-19q-2 -84 -17.5 -174t-43.5 -180t-67 -178t-87.5 -168.5t-104.5 -151t-118 -124.5l-149 86q35 59 63.5 128.5t51.5 145.5t39.5 156t27.5 159t16.5 155.5t5.5 145.5q0 54 -0.5 122.5t-8 139.5t-24.5 138.5t-50.5 120.5t-86 85t-130.5 32q-69 0 -118.5 -23.5
t-84 -63t-55 -91.5t-32 -109.5t-15 -116t-3.5 -110.5v-279h431v-165h-431v-350h-397v732q0 157 50 292t141.5 234.5t220 156t286.5 56.5q107 0 200.5 -30.5t170.5 -84t137.5 -127t101 -160.5t61.5 -184t19 -196zM1229 1881q-4 -50 -19 -105t-43.5 -101.5t-71.5 -77
t-102 -30.5t-106.5 15t-86 33.5t-70 33.5t-59.5 15q-18 0 -30 -9.5t-20 -24t-11.5 -31.5t-3.5 -32h-155q2 52 17 107.5t44 101.5t73 75.5t105 29.5q54 0 101.5 -15t87 -32.5t71 -32.5t54.5 -15q17 0 29.5 9.5t20 23.5t11.5 31t4 31h160z" />
    <glyph glyph-name="Adieresis" unicode="&#xc4;" horiz-adv-x="1629" 
d="M1534 689v-19q-2 -84 -17.5 -174t-43.5 -180t-67 -178t-87.5 -168.5t-104.5 -151t-118 -124.5l-149 86q35 59 63.5 128.5t51.5 145.5t39.5 156t27.5 159t16.5 155.5t5.5 145.5q0 54 -0.5 122.5t-8 139.5t-24.5 138.5t-50.5 120.5t-86 85t-130.5 32q-69 0 -118.5 -23.5
t-84 -63t-55 -91.5t-32 -109.5t-15 -116t-3.5 -110.5v-279h431v-165h-431v-350h-397v732q0 157 50 292t141.5 234.5t220 156t286.5 56.5q107 0 200.5 -30.5t170.5 -84t137.5 -127t101 -160.5t61.5 -184t19 -196zM1176 1699q0 -30 -11.5 -57t-31.5 -47t-47 -31.5t-58 -11.5
q-30 0 -57 11.5t-47 31.5t-31.5 47t-11.5 57t11.5 57t31.5 47t47 31.5t57 11.5q31 0 58 -11.5t47 -31.5t31.5 -47t11.5 -57zM799 1699q0 -30 -11.5 -57t-31.5 -47t-47 -31.5t-58 -11.5q-30 0 -57 11.5t-47 31.5t-31.5 47t-11.5 57t11.5 57t31.5 47t47 31.5t57 11.5
q31 0 58 -11.5t47 -31.5t31.5 -47t11.5 -57z" />
    <glyph glyph-name="Aring" unicode="&#xc5;" horiz-adv-x="1632" 
d="M1068 1643q0 -57 -25.5 -105t-68.5 -79q132 -26 237.5 -99t178 -177.5t110.5 -232t36 -261.5v-19q-2 -84 -17.5 -174t-43.5 -180t-67 -178t-87.5 -168.5t-104.5 -151t-118 -124.5l-149 86q35 59 63.5 128.5t51.5 145.5t39.5 156t27.5 159t16.5 155.5t5.5 145.5
q0 54 -0.5 122.5t-8 139.5t-24.5 138.5t-50.5 120.5t-86 85t-130.5 32q-69 0 -118.5 -23.5t-84 -63t-55 -91.5t-32 -109.5t-15 -116t-3.5 -110.5v-279h431v-165h-431v-350h-397v732q0 139 39.5 261t112 218t176 160.5t232.5 87.5q-43 31 -68 79t-25 105q0 47 17.5 88.5
t48.5 72.5t72 49t88 18q46 0 87.5 -18t72.5 -49t49 -72.5t18 -88.5zM925 1643q0 34 -25 59t-59 25q-35 0 -58.5 -25t-23.5 -59t23.5 -59t58.5 -25q34 0 59 24.5t25 59.5z" />
    <glyph glyph-name="AE" unicode="&#xc6;" horiz-adv-x="2271" 
d="M2188 0h-851q-51 -91 -111.5 -168.5t-128.5 -137.5l-149 86q35 59 63.5 128.5t51.5 145.5t39.5 156t27.5 159t16.5 155.5t5.5 145.5q0 54 -1 122.5t-9 139.5t-26.5 138.5t-52.5 120.5t-87 85t-131 32q-69 0 -118 -23.5t-82.5 -63t-53.5 -91.5t-30.5 -109.5t-13.5 -116
t-3 -110.5v-279h431v-165h-431v-350h-397v732q0 157 50 287t141.5 223.5t220 145.5t286.5 52h1343v-184h-637v-445h492v-183h-492v-444h637v-184z" />
    <glyph glyph-name="Ccedilla" unicode="&#xc7;" horiz-adv-x="1543" 
d="M1041 -247q0 -53 -18 -92t-49.5 -65.5t-74.5 -39.5t-92 -13q-40 0 -75 15.5t-61 41.5t-41 61.5t-15 75.5h113q1 -29 25.5 -43.5t49.5 -14.5q41 0 59.5 16t18.5 58q0 22 -15.5 34t-37.5 18t-45 7.5t-39 1.5l36 160q-149 10 -276 71.5t-220.5 161t-146.5 231.5t-53 284
q0 106 26.5 203.5t75 181t117 151.5t152.5 116t181.5 74t203.5 26q102 0 199.5 -24t181.5 -72.5t149.5 -122t103.5 -172.5l-171 -72q-20 65 -53.5 119t-80 92.5t-105.5 60t-129 21.5q-75 0 -137.5 -24.5t-112 -67.5t-86.5 -100t-62 -121.5t-37 -133.5t-12 -135
q0 -105 24.5 -209t78 -187t138.5 -134.5t206 -51.5q64 0 121 21.5t103.5 59t81.5 88.5t56 110l173 -69q-35 -89 -95.5 -157t-137.5 -115t-166 -73t-180 -32l-19 -75q31 0 61.5 -9.5t54.5 -28t38.5 -45.5t14.5 -62z" />
    <glyph glyph-name="Egrave" unicode="&#xc8;" horiz-adv-x="1280" 
d="M1197 0h-1034v1440h1034v-184h-637v-445h492v-183h-492v-444h637v-184zM795 1540h-200l-316 354h317z" />
    <glyph glyph-name="Eacute" unicode="&#xc9;" horiz-adv-x="1280" 
d="M1197 0h-1034v1440h1034v-184h-637v-445h492v-183h-492v-444h637v-184zM1100 1890l-317 -354h-199l198 354h318z" />
    <glyph glyph-name="Ecircumflex" unicode="&#xca;" horiz-adv-x="1280" 
d="M1197 0h-1034v1440h1034v-184h-637v-445h492v-183h-492v-444h637v-184zM944 1538h-250l-65 138l-66 -138h-146l193 355h135z" />
    <glyph glyph-name="Edieresis" unicode="&#xcb;" horiz-adv-x="1280" 
d="M1197 0h-1034v1440h1034v-184h-637v-445h492v-183h-492v-444h637v-184zM1016 1684q0 -30 -11.5 -57t-31.5 -47t-47 -31.5t-58 -11.5q-30 0 -57 11.5t-47 31.5t-31.5 47t-11.5 57t11.5 57t31.5 47t47 31.5t57 11.5q31 0 58 -11.5t47 -31.5t31.5 -47t11.5 -57zM639 1684
q0 -30 -11.5 -57t-31.5 -47t-47 -31.5t-58 -11.5q-30 0 -57 11.5t-47 31.5t-31.5 47t-11.5 57t11.5 57t31.5 47t47 31.5t57 11.5q31 0 58 -11.5t47 -31.5t31.5 -47t11.5 -57z" />
    <glyph glyph-name="Igrave" unicode="&#xcc;" horiz-adv-x="723" 
d="M560 0h-397v1440h397v-1440zM469 1540h-200l-316 354h317z" />
    <glyph glyph-name="Iacute" unicode="&#xcd;" horiz-adv-x="723" 
d="M560 0h-397v1440h397v-1440zM777 1894l-317 -354h-199l198 354h318z" />
    <glyph glyph-name="Icircumflex" unicode="&#xce;" horiz-adv-x="723" 
d="M560 0h-397v1440h397v-1440zM625 1537h-250l-65 138l-66 -138h-146l193 355h135z" />
    <glyph glyph-name="Idieresis" unicode="&#xcf;" horiz-adv-x="723" 
d="M560 0h-397v1440h397v-1440zM698 1683q0 -30 -11.5 -57t-31.5 -47t-47 -31.5t-58 -11.5q-30 0 -57 11.5t-47 31.5t-31.5 47t-11.5 57t11.5 57t31.5 47t47 31.5t57 11.5q31 0 58 -11.5t47 -31.5t31.5 -47t11.5 -57zM321 1683q0 -30 -11.5 -57t-31.5 -47t-47 -31.5
t-58 -11.5q-30 0 -57 11.5t-47 31.5t-31.5 47t-11.5 57t11.5 57t31.5 47t47 31.5t57 11.5q31 0 58 -11.5t47 -31.5t31.5 -47t11.5 -57z" />
    <glyph glyph-name="Eth" unicode="&#xd0;" horiz-adv-x="1706" 
d="M229 629h-199v184h199v627h635q102 0 198 -24t180.5 -68.5t155 -108.5t121 -143.5t78.5 -174t28 -199.5t-28 -199.5t-78.5 -174.5t-120.5 -144.5t-154.5 -109.5t-181 -69.5t-198.5 -24.5h-635v629zM866 629h-240v-489h105q127 0 219.5 47.5t153 128t90 185.5t29.5 221
q0 117 -28.5 222.5t-88.5 185.5t-153 127t-222 47h-105v-491h240v-184z" />
    <glyph glyph-name="Ntilde" unicode="&#xd1;" horiz-adv-x="1642" 
d="M347 0h-184v1440h258l875 -989v989h183v-1440h-258l-874 988v-988zM1210 1853q-4 -50 -19 -105t-43.5 -101.5t-71.5 -77t-102 -30.5t-106.5 15t-86 33.5t-70 33.5t-59.5 15q-18 0 -30 -9.5t-20 -24t-11.5 -31.5t-3.5 -32h-155q2 52 17 107.5t44 101.5t73 75.5t105 29.5
q54 0 101.5 -15t87 -32.5t71 -32.5t54.5 -15q17 0 29.5 9.5t20 23.5t11.5 31t4 31h160z" />
    <glyph glyph-name="Ograve" unicode="&#xd2;" horiz-adv-x="1750" 
d="M1666 722q0 -174 -60 -313.5t-166 -236.5t-251 -149t-314 -52t-314 52t-251 149t-166 236.5t-60 313.5q0 177 59.5 316.5t165 236t250.5 148t316 51.5t316 -51.5t250.5 -148t165 -236t59.5 -316.5zM1262 722q0 66 -6 135t-22 134t-43.5 122t-70.5 99.5t-103.5 67
t-141.5 24.5q-82 0 -143 -24.5t-104 -66.5t-70 -99t-42.5 -121.5t-21.5 -134t-6 -136.5q0 -66 6 -135t22 -133.5t43.5 -121.5t70.5 -99.5t103.5 -67.5t141.5 -25q79 0 138 25.5t102 69t71.5 101t45 122t23.5 132.5t7 132zM957 1564h-200l-316 354h317z" />
    <glyph glyph-name="Oacute" unicode="&#xd3;" horiz-adv-x="1750" 
d="M1666 722q0 -174 -60 -313.5t-166 -236.5t-251 -149t-314 -52t-314 52t-251 149t-166 236.5t-60 313.5q0 177 59.5 316.5t165 236t250.5 148t316 51.5t316 -51.5t250.5 -148t165 -236t59.5 -316.5zM1262 722q0 66 -6 135t-22 134t-43.5 122t-70.5 99.5t-103.5 67
t-141.5 24.5q-82 0 -143 -24.5t-104 -66.5t-70 -99t-42.5 -121.5t-21.5 -134t-6 -136.5q0 -66 6 -135t22 -133.5t43.5 -121.5t70.5 -99.5t103.5 -67.5t141.5 -25q79 0 138 25.5t102 69t71.5 101t45 122t23.5 132.5t7 132zM1305 1918l-317 -354h-199l198 354h318z" />
    <glyph glyph-name="Ocircumflex" unicode="&#xd4;" horiz-adv-x="1750" 
d="M1666 722q0 -174 -60 -313.5t-166 -236.5t-251 -149t-314 -52t-314 52t-251 149t-166 236.5t-60 313.5q0 177 59.5 316.5t165 236t250.5 148t316 51.5t316 -51.5t250.5 -148t165 -236t59.5 -316.5zM1262 722q0 66 -6 135t-22 134t-43.5 122t-70.5 99.5t-103.5 67
t-141.5 24.5q-82 0 -143 -24.5t-104 -66.5t-70 -99t-42.5 -121.5t-21.5 -134t-6 -136.5q0 -66 6 -135t22 -133.5t43.5 -121.5t70.5 -99.5t103.5 -67.5t141.5 -25q79 0 138 25.5t102 69t71.5 101t45 122t23.5 132.5t7 132zM1138 1566h-250l-65 138l-66 -138h-146l193 355h135
z" />
    <glyph glyph-name="Otilde" unicode="&#xd5;" horiz-adv-x="1750" 
d="M1666 722q0 -174 -60 -313.5t-166 -236.5t-251 -149t-314 -52t-314 52t-251 149t-166 236.5t-60 313.5q0 177 59.5 316.5t165 236t250.5 148t316 51.5t316 -51.5t250.5 -148t165 -236t59.5 -316.5zM1262 722q0 66 -6 135t-22 134t-43.5 122t-70.5 99.5t-103.5 67
t-141.5 24.5q-82 0 -143 -24.5t-104 -66.5t-70 -99t-42.5 -121.5t-21.5 -134t-6 -136.5q0 -66 6 -135t22 -133.5t43.5 -121.5t70.5 -99.5t103.5 -67.5t141.5 -25q79 0 138 25.5t102 69t71.5 101t45 122t23.5 132.5t7 132zM1264 1881q-4 -50 -19 -105t-43.5 -101.5t-71.5 -77
t-102 -30.5t-106.5 15t-86 33.5t-70 33.5t-59.5 15q-18 0 -30 -9.5t-20 -24t-11.5 -31.5t-3.5 -32h-155q2 52 17 107.5t44 101.5t73 75.5t105 29.5q54 0 101.5 -15t87 -32.5t71 -32.5t54.5 -15q17 0 29.5 9.5t20 23.5t11.5 31t4 31h160z" />
    <glyph glyph-name="Odieresis" unicode="&#xd6;" horiz-adv-x="1750" 
d="M1666 722q0 -174 -60 -313.5t-166 -236.5t-251 -149t-314 -52t-314 52t-251 149t-166 236.5t-60 313.5q0 177 59.5 316.5t165 236t250.5 148t316 51.5t316 -51.5t250.5 -148t165 -236t59.5 -316.5zM1262 722q0 66 -6 135t-22 134t-43.5 122t-70.5 99.5t-103.5 67
t-141.5 24.5q-82 0 -143 -24.5t-104 -66.5t-70 -99t-42.5 -121.5t-21.5 -134t-6 -136.5q0 -66 6 -135t22 -133.5t43.5 -121.5t70.5 -99.5t103.5 -67.5t141.5 -25q79 0 138 25.5t102 69t71.5 101t45 122t23.5 132.5t7 132zM1211 1702q0 -30 -11.5 -57t-31.5 -47t-47 -31.5
t-58 -11.5q-30 0 -57 11.5t-47 31.5t-31.5 47t-11.5 57t11.5 57t31.5 47t47 31.5t57 11.5q31 0 58 -11.5t47 -31.5t31.5 -47t11.5 -57zM834 1702q0 -30 -11.5 -57t-31.5 -47t-47 -31.5t-58 -11.5q-30 0 -57 11.5t-47 31.5t-31.5 47t-11.5 57t11.5 57t31.5 47t47 31.5
t57 11.5q31 0 58 -11.5t47 -31.5t31.5 -47t11.5 -57z" />
    <glyph glyph-name="multiply" unicode="&#xd7;" horiz-adv-x="1113" 
d="M695 746l304 -434h-322l-151 214l-153 -214h-267l308 375l-299 426h322l146 -208l159 208h269z" />
    <glyph glyph-name="Oslash" unicode="&#xd8;" horiz-adv-x="1750" 
d="M516 455l635 722q-44 58 -111 92.5t-165 34.5q-82 0 -143 -24.5t-104 -66.5t-70 -99t-42.5 -121.5t-21.5 -134t-6 -136.5q0 -66 6 -134t22 -133zM1232 998l-638 -724q45 -60 113 -97t168 -37q79 0 138 25.5t102 69t71.5 101t45 122t23.5 132.5t7 132q0 69 -6.5 139.5
t-23.5 136.5zM1621 1440l-161 -183q97 -97 151.5 -231t54.5 -304q0 -174 -60 -313.5t-166 -236.5t-251 -149t-314 -52q-128 0 -240.5 29t-206.5 85l-75 -85h-238l172 195q-96 97 -149.5 229.5t-53.5 297.5q0 177 59.5 316.5t165 236t250.5 148t316 51.5q126 0 237 -27.5
t205 -81.5l66 75h238z" />
    <glyph glyph-name="Ugrave" unicode="&#xd9;" horiz-adv-x="1630" 
d="M585 1440q-27 -81 -47 -167.5t-33 -173t-19.5 -170.5t-6.5 -159q0 -55 0.5 -123.5t8 -139.5t24.5 -138.5t50.5 -120.5t86 -85t130.5 -32q69 0 118.5 23.5t84 63.5t55 92t32 109t15 115.5t3.5 111.5v794h397v-732q0 -157 -50 -292t-141 -234.5t-220 -156t-286 -56.5
q-108 0 -201 30.5t-170.5 84t-138 127t-101 160.5t-61.5 183.5t-19 195.5v20q1 80 16 165.5t40.5 171.5t61.5 170.5t80 162.5h291zM928 1490h-200l-316 354h317z" />
    <glyph glyph-name="Uacute" unicode="&#xda;" horiz-adv-x="1630" 
d="M585 1440q-27 -81 -47 -167.5t-33 -173t-19.5 -170.5t-6.5 -159q0 -55 0.5 -123.5t8 -139.5t24.5 -138.5t50.5 -120.5t86 -85t130.5 -32q69 0 118.5 23.5t84 63.5t55 92t32 109t15 115.5t3.5 111.5v794h397v-732q0 -157 -50 -292t-141 -234.5t-220 -156t-286 -56.5
q-108 0 -201 30.5t-170.5 84t-138 127t-101 160.5t-61.5 183.5t-19 195.5v20q1 80 16 165.5t40.5 171.5t61.5 170.5t80 162.5h291zM1247 1844l-317 -354h-199l198 354h318z" />
    <glyph glyph-name="Ucircumflex" unicode="&#xdb;" horiz-adv-x="1630" 
d="M585 1440q-27 -81 -47 -167.5t-33 -173t-19.5 -170.5t-6.5 -159q0 -55 0.5 -123.5t8 -139.5t24.5 -138.5t50.5 -120.5t86 -85t130.5 -32q69 0 118.5 23.5t84 63.5t55 92t32 109t15 115.5t3.5 111.5v794h397v-732q0 -157 -50 -292t-141 -234.5t-220 -156t-286 -56.5
q-108 0 -201 30.5t-170.5 84t-138 127t-101 160.5t-61.5 183.5t-19 195.5v20q1 80 16 165.5t40.5 171.5t61.5 170.5t80 162.5h291zM1079 1538h-250l-65 138l-66 -138h-146l193 355h135z" />
    <glyph glyph-name="Udieresis" unicode="&#xdc;" horiz-adv-x="1630" 
d="M585 1440q-27 -81 -47 -167.5t-33 -173t-19.5 -170.5t-6.5 -159q0 -55 0.5 -123.5t8 -139.5t24.5 -138.5t50.5 -120.5t86 -85t130.5 -32q69 0 118.5 23.5t84 63.5t55 92t32 109t15 115.5t3.5 111.5v794h397v-732q0 -157 -50 -292t-141 -234.5t-220 -156t-286 -56.5
q-108 0 -201 30.5t-170.5 84t-138 127t-101 160.5t-61.5 183.5t-19 195.5v20q1 80 16 165.5t40.5 171.5t61.5 170.5t80 162.5h291zM1146 1692q0 -30 -11.5 -57t-31.5 -47t-47 -31.5t-58 -11.5q-30 0 -57 11.5t-47 31.5t-31.5 47t-11.5 57t11.5 57t31.5 47t47 31.5t57 11.5
q31 0 58 -11.5t47 -31.5t31.5 -47t11.5 -57zM769 1692q0 -30 -11.5 -57t-31.5 -47t-47 -31.5t-58 -11.5q-30 0 -57 11.5t-47 31.5t-31.5 47t-11.5 57t11.5 57t31.5 47t47 31.5t57 11.5q31 0 58 -11.5t47 -31.5t31.5 -47t11.5 -57z" />
    <glyph glyph-name="Yacute" unicode="&#xdd;" horiz-adv-x="1328" 
d="M1332 1440l-466 -835v-605h-397v583l-471 857h405l313 -724l336 724h280zM1145 1744l-317 -354h-199l198 354h318z" />
    <glyph glyph-name="Thorn" unicode="&#xde;" horiz-adv-x="1502" 
d="M560 1029v-625h209q76 0 129.5 24.5t87.5 68.5t50 103.5t16 130.5q0 139 -70.5 218.5t-212.5 79.5h-209zM560 0h-397v1440h397v-270h381q101 0 193.5 -27t163.5 -81.5t113.5 -137t42.5 -193.5q0 -70 -20 -131.5t-55.5 -112.5t-83.5 -92t-105 -69t-120.5 -43t-128.5 -15
h-381v-268z" />
    <glyph glyph-name="germandbls" unicode="&#xdf;" horiz-adv-x="1832" 
d="M1029 1314q0 25 -3.5 56t-13 63t-26 62t-42.5 53.5t-62.5 37.5t-86.5 14q-57 0 -95.5 -22t-63 -58.5t-37 -83.5t-17.5 -96t-5.5 -97t-0.5 -87v-1156h-339v1022h-210v134h210q0 139 28.5 251t94 190t171.5 120t261 42q55 0 113 -6.5t113 -23.5t104 -45.5t85.5 -72.5
t57.5 -105t21 -142q0 -69 -20 -123t-50 -96.5t-64.5 -76t-64.5 -61.5t-50 -53.5t-20 -51.5q0 -35 17 -61t44.5 -45t62 -32t70.5 -22t70 -16t59 -14q46 -13 97.5 -26.5t102 -31t96.5 -42t81 -58t56 -79t21 -106.5q0 -76 -22 -135t-60.5 -102.5t-90 -73t-111.5 -47.5
t-124.5 -26t-128.5 -8q-89 0 -157 12t-128 37t-118 63.5t-127 92.5l197 161q19 -36 57 -76t84.5 -73.5t96 -55t92.5 -21.5q36 0 82.5 3.5t88.5 18t71 42.5t29 77q0 48 -33.5 79.5t-88 53.5t-124.5 39t-143 35.5t-143 42.5t-124.5 61t-88 90.5t-33.5 131.5q0 56 12 96.5
t32 71t45.5 54t51.5 45t51.5 44.5t45.5 52.5t32 68t12 91.5z" />
    <glyph glyph-name="agrave" unicode="&#xe0;" horiz-adv-x="1445" 
d="M1304 0h-338v138q-60 -82 -144.5 -121.5t-185.5 -39.5q-132 0 -236 47t-176 128.5t-110 191.5t-38 236t38 236t110 191.5t176 128.5t236 47q67 0 127.5 -20t111 -56.5t89 -88t60.5 -114.5l150 251h130v-1155zM964 580q0 45 -4.5 95t-15.5 99t-30.5 93.5t-50 79
t-73.5 54.5t-100 20t-99 -20.5t-72 -55t-49.5 -79.5t-30.5 -94t-15.5 -98.5t-4.5 -93.5t4.5 -94t15.5 -99t30.5 -94t49.5 -79.5t72 -55t99 -20.5q52 0 92.5 21.5t71 57.5t51.5 82t34 95t19 97.5t6 88.5zM782 1283h-200l-316 354h317z" />
    <glyph glyph-name="aacute" unicode="&#xe1;" horiz-adv-x="1445" 
d="M1304 0h-338v138q-60 -82 -144.5 -121.5t-185.5 -39.5q-132 0 -236 47t-176 128.5t-110 191.5t-38 236t38 236t110 191.5t176 128.5t236 47q67 0 127.5 -20t111 -56.5t89 -88t60.5 -114.5l150 251h130v-1155zM964 580q0 45 -4.5 95t-15.5 99t-30.5 93.5t-50 79
t-73.5 54.5t-100 20t-99 -20.5t-72 -55t-49.5 -79.5t-30.5 -94t-15.5 -98.5t-4.5 -93.5t4.5 -94t15.5 -99t30.5 -94t49.5 -79.5t72 -55t99 -20.5q52 0 92.5 21.5t71 57.5t51.5 82t34 95t19 97.5t6 88.5zM1077 1637l-317 -354h-199l198 354h318z" />
    <glyph glyph-name="acircumflex" unicode="&#xe2;" horiz-adv-x="1445" 
d="M1304 0h-338v138q-60 -82 -144.5 -121.5t-185.5 -39.5q-132 0 -236 47t-176 128.5t-110 191.5t-38 236t38 236t110 191.5t176 128.5t236 47q67 0 127.5 -20t111 -56.5t89 -88t60.5 -114.5l150 251h130v-1155zM964 580q0 45 -4.5 95t-15.5 99t-30.5 93.5t-50 79
t-73.5 54.5t-100 20t-99 -20.5t-72 -55t-49.5 -79.5t-30.5 -94t-15.5 -98.5t-4.5 -93.5t4.5 -94t15.5 -99t30.5 -94t49.5 -79.5t72 -55t99 -20.5q52 0 92.5 21.5t71 57.5t51.5 82t34 95t19 97.5t6 88.5zM954 1280h-250l-65 138l-66 -138h-146l193 355h135z" />
    <glyph glyph-name="atilde" unicode="&#xe3;" horiz-adv-x="1445" 
d="M1304 0h-338v138q-60 -82 -144.5 -121.5t-185.5 -39.5q-132 0 -236 47t-176 128.5t-110 191.5t-38 236t38 236t110 191.5t176 128.5t236 47q67 0 127.5 -20t111 -56.5t89 -88t60.5 -114.5l150 251h130v-1155zM964 580q0 45 -4.5 95t-15.5 99t-30.5 93.5t-50 79
t-73.5 54.5t-100 20t-99 -20.5t-72 -55t-49.5 -79.5t-30.5 -94t-15.5 -98.5t-4.5 -93.5t4.5 -94t15.5 -99t30.5 -94t49.5 -79.5t72 -55t99 -20.5q52 0 92.5 21.5t71 57.5t51.5 82t34 95t19 97.5t6 88.5zM1079 1564q-4 -50 -19 -105t-43.5 -101.5t-71.5 -77t-102 -30.5
t-106.5 15t-86 33.5t-70 33.5t-59.5 15q-18 0 -30 -9.5t-20 -24t-11.5 -31.5t-3.5 -32h-155q2 52 17 107.5t44 101.5t73 75.5t105 29.5q54 0 101.5 -15t87 -32.5t71 -32.5t54.5 -15q17 0 29.5 9.5t20 23.5t11.5 31t4 31h160z" />
    <glyph glyph-name="adieresis" unicode="&#xe4;" horiz-adv-x="1445" 
d="M1304 0h-338v138q-60 -82 -144.5 -121.5t-185.5 -39.5q-132 0 -236 47t-176 128.5t-110 191.5t-38 236t38 236t110 191.5t176 128.5t236 47q67 0 127.5 -20t111 -56.5t89 -88t60.5 -114.5l150 251h130v-1155zM964 580q0 45 -4.5 95t-15.5 99t-30.5 93.5t-50 79
t-73.5 54.5t-100 20t-99 -20.5t-72 -55t-49.5 -79.5t-30.5 -94t-15.5 -98.5t-4.5 -93.5t4.5 -94t15.5 -99t30.5 -94t49.5 -79.5t72 -55t99 -20.5q52 0 92.5 21.5t71 57.5t51.5 82t34 95t19 97.5t6 88.5zM1026 1417q0 -30 -11.5 -57t-31.5 -47t-47 -31.5t-58 -11.5
q-30 0 -57 11.5t-47 31.5t-31.5 47t-11.5 57t11.5 57t31.5 47t47 31.5t57 11.5q31 0 58 -11.5t47 -31.5t31.5 -47t11.5 -57zM649 1417q0 -30 -11.5 -57t-31.5 -47t-47 -31.5t-58 -11.5q-30 0 -57 11.5t-47 31.5t-31.5 47t-11.5 57t11.5 57t31.5 47t47 31.5t57 11.5
q31 0 58 -11.5t47 -31.5t31.5 -47t11.5 -57z" />
    <glyph glyph-name="aring" unicode="&#xe5;" horiz-adv-x="1445" 
d="M1304 0h-338v138q-60 -82 -144.5 -121.5t-185.5 -39.5q-132 0 -236 47t-176 128.5t-110 191.5t-38 236t38 236t110 191.5t176 128.5t236 47q67 0 127.5 -20t111 -56.5t89 -88t60.5 -114.5l150 251h130v-1155zM964 580q0 45 -4.5 95t-15.5 99t-30.5 93.5t-50 79
t-73.5 54.5t-100 20t-99 -20.5t-72 -55t-49.5 -79.5t-30.5 -94t-15.5 -98.5t-4.5 -93.5t4.5 -94t15.5 -99t30.5 -94t49.5 -79.5t72 -55t99 -20.5q52 0 92.5 21.5t71 57.5t51.5 82t34 95t19 97.5t6 88.5zM917 1492q0 -47 -18 -88.5t-48.5 -72t-72 -48.5t-88.5 -18t-88.5 18
t-72 48.5t-48 72t-17.5 88.5t17.5 88.5t48.5 72.5t72 49t88 18q46 0 87.5 -18t72.5 -49t49 -72.5t18 -88.5zM774 1492q0 34 -25 59t-59 25q-35 0 -58.5 -25t-23.5 -59t23.5 -59t58.5 -25q34 0 59 24.5t25 59.5z" />
    <glyph glyph-name="ae" unicode="&#xe6;" horiz-adv-x="2152" 
d="M904 612q-63 13 -125 21.5t-125 8.5q-66 0 -122.5 -12.5t-98 -42t-65.5 -78.5t-24 -122q0 -59 16 -108t47.5 -84t78 -54.5t107.5 -19.5q85 0 144.5 33.5t96.5 94t53.5 145t16.5 186.5v32zM1249 548q62 -14 124 -22t125 -8q66 0 122.5 12.5t98 42t65.5 78.5t24 122
q0 59 -16 108t-47.5 84t-77.5 54.5t-107 19.5q-57 0 -102.5 -21t-80 -56.5t-59 -82.5t-40.5 -98t-23 -103t-7 -98q0 -8 0.5 -16t0.5 -16zM2082 776q0 -71 -23 -126.5t-62.5 -97.5t-91.5 -71t-111 -47.5t-121.5 -26.5t-121.5 -8q-75 0 -148 10.5t-144 33.5q11 -66 35 -125.5
t64.5 -104t98.5 -70.5t138 -26q53 0 101 16t88 45t70.5 69t49.5 89l146 -54q-33 -79 -90.5 -136.5t-130 -95t-154 -55.5t-161.5 -18q-92 0 -165 15t-135 46.5t-117.5 81t-112.5 119.5q-19 -48 -58 -94.5t-91.5 -84t-115.5 -60.5t-130 -23q-96 0 -189.5 20.5t-166.5 67.5
t-118 125t-45 193q0 71 23 127t62.5 98t92 71t111.5 47.5t121.5 26.5t121.5 8q74 0 147 -10.5t144 -33.5q-11 66 -35 125t-64 104t-98.5 71t-137.5 26q-53 0 -101 -16t-88 -45t-71 -69.5t-49 -89.5l-147 55q33 79 91 136.5t130 95t153.5 55.5t162.5 18q133 0 244.5 -44.5
t192.5 -125.5q82 81 193.5 125.5t244.5 44.5q64 0 131 -9t130 -28.5t119 -50.5t97.5 -76.5t66 -105.5t24.5 -137z" />
    <glyph glyph-name="ccedilla" unicode="&#xe7;" horiz-adv-x="1268" 
d="M877 -237q0 -53 -18 -92t-49.5 -65.5t-74.5 -39.5t-92 -13q-40 0 -75 15.5t-61 41.5t-41 61.5t-15 75.5h113q1 -29 25.5 -43.5t49.5 -14.5q41 0 59.5 16t18.5 58q0 22 -15.5 34t-37.5 18t-45 7.5t-39 1.5l35 157q-118 12 -217 60.5t-170.5 127.5t-111.5 183.5t-40 227.5
q0 133 45.5 244t126.5 191t193 124t245 44q84 0 164 -18.5t148.5 -57t123 -97.5t87.5 -141l-146 -58q-35 110 -117 169t-197 59q-62 0 -110.5 -19.5t-85 -53.5t-62 -79t-41.5 -96t-23 -105.5t-7 -105.5q0 -55 6 -111t20.5 -107.5t38.5 -96t60.5 -77.5t87 -52t116.5 -19
q53 0 101 16t88 45t71 69t49 89l147 -54q-31 -74 -81 -129t-113.5 -92.5t-136 -58t-148.5 -24.5l-18 -70q31 0 61.5 -9.5t54.5 -28t38.5 -45.5t14.5 -62z" />
    <glyph glyph-name="egrave" unicode="&#xe8;" horiz-adv-x="1322" 
d="M419 548q62 -14 124 -22t125 -8q66 0 122.5 12.5t98 42t65.5 78.5t24 122q0 59 -16 108t-47.5 84t-77.5 54.5t-107 19.5q-57 0 -102.5 -21t-80 -56.5t-59 -82.5t-40.5 -98t-23 -103t-7 -98v-16t1 -16zM1252 776q0 -71 -23 -126.5t-62.5 -97.5t-91.5 -71t-111 -47.5
t-121.5 -26.5t-121.5 -8q-75 0 -148 10.5t-144 33.5q11 -66 35 -125.5t64 -104t98.5 -70.5t138.5 -26q53 0 101 16t88 45t70.5 69t49.5 89l146 -54q-33 -79 -90.5 -136.5t-130 -95t-154 -55.5t-161.5 -18q-132 0 -244 44.5t-193 124.5t-127 191t-46 243t46 243t127 191
t193 124.5t244 44.5q64 0 131 -9t130 -28.5t119 -50.5t97.5 -76.5t66 -105.5t24.5 -137zM804 1283h-200l-316 354h317z" />
    <glyph glyph-name="eacute" unicode="&#xe9;" horiz-adv-x="1322" 
d="M419 548q62 -14 124 -22t125 -8q66 0 122.5 12.5t98 42t65.5 78.5t24 122q0 59 -16 108t-47.5 84t-77.5 54.5t-107 19.5q-57 0 -102.5 -21t-80 -56.5t-59 -82.5t-40.5 -98t-23 -103t-7 -98v-16t1 -16zM1252 776q0 -71 -23 -126.5t-62.5 -97.5t-91.5 -71t-111 -47.5
t-121.5 -26.5t-121.5 -8q-75 0 -148 10.5t-144 33.5q11 -66 35 -125.5t64 -104t98.5 -70.5t138.5 -26q53 0 101 16t88 45t70.5 69t49.5 89l146 -54q-33 -79 -90.5 -136.5t-130 -95t-154 -55.5t-161.5 -18q-132 0 -244 44.5t-193 124.5t-127 191t-46 243t46 243t127 191
t193 124.5t244 44.5q64 0 131 -9t130 -28.5t119 -50.5t97.5 -76.5t66 -105.5t24.5 -137zM1116 1637l-317 -354h-199l198 354h318z" />
    <glyph glyph-name="ecircumflex" unicode="&#xea;" horiz-adv-x="1322" 
d="M419 548q62 -14 124 -22t125 -8q66 0 122.5 12.5t98 42t65.5 78.5t24 122q0 59 -16 108t-47.5 84t-77.5 54.5t-107 19.5q-57 0 -102.5 -21t-80 -56.5t-59 -82.5t-40.5 -98t-23 -103t-7 -98v-16t1 -16zM1252 776q0 -71 -23 -126.5t-62.5 -97.5t-91.5 -71t-111 -47.5
t-121.5 -26.5t-121.5 -8q-75 0 -148 10.5t-144 33.5q11 -66 35 -125.5t64 -104t98.5 -70.5t138.5 -26q53 0 101 16t88 45t70.5 69t49.5 89l146 -54q-33 -79 -90.5 -136.5t-130 -95t-154 -55.5t-161.5 -18q-132 0 -244 44.5t-193 124.5t-127 191t-46 243t46 243t127 191
t193 124.5t244 44.5q64 0 131 -9t130 -28.5t119 -50.5t97.5 -76.5t66 -105.5t24.5 -137zM986 1286h-250l-65 138l-66 -138h-146l193 355h135z" />
    <glyph glyph-name="edieresis" unicode="&#xeb;" horiz-adv-x="1322" 
d="M419 548q62 -14 124 -22t125 -8q66 0 122.5 12.5t98 42t65.5 78.5t24 122q0 59 -16 108t-47.5 84t-77.5 54.5t-107 19.5q-57 0 -102.5 -21t-80 -56.5t-59 -82.5t-40.5 -98t-23 -103t-7 -98v-16t1 -16zM1252 776q0 -71 -23 -126.5t-62.5 -97.5t-91.5 -71t-111 -47.5
t-121.5 -26.5t-121.5 -8q-75 0 -148 10.5t-144 33.5q11 -66 35 -125.5t64 -104t98.5 -70.5t138.5 -26q53 0 101 16t88 45t70.5 69t49.5 89l146 -54q-33 -79 -90.5 -136.5t-130 -95t-154 -55.5t-161.5 -18q-132 0 -244 44.5t-193 124.5t-127 191t-46 243t46 243t127 191
t193 124.5t244 44.5q64 0 131 -9t130 -28.5t119 -50.5t97.5 -76.5t66 -105.5t24.5 -137zM1040 1408q0 -30 -11.5 -57t-31.5 -47t-47 -31.5t-58 -11.5q-30 0 -57 11.5t-47 31.5t-31.5 47t-11.5 57t11.5 57t31.5 47t47 31.5t57 11.5q31 0 58 -11.5t47 -31.5t31.5 -47t11.5 -57
zM663 1408q0 -30 -11.5 -57t-31.5 -47t-47 -31.5t-58 -11.5q-30 0 -57 11.5t-47 31.5t-31.5 47t-11.5 57t11.5 57t31.5 47t47 31.5t57 11.5q31 0 58 -11.5t47 -31.5t31.5 -47t11.5 -57z" />
    <glyph glyph-name="igrave" unicode="&#xec;" horiz-adv-x="623" 
d="M481 0h-339v1154h339v-1154zM419 1255h-200l-316 354h317z" />
    <glyph glyph-name="iacute" unicode="&#xed;" horiz-adv-x="622" 
d="M481 0h-339v1154h339v-1154zM723 1610l-317 -354h-199l198 354h318z" />
    <glyph glyph-name="icircumflex" unicode="&#xee;" horiz-adv-x="623" 
d="M481 0h-339v1154h339v-1154zM575 1258h-250l-65 138l-66 -138h-146l193 355h135z" />
    <glyph glyph-name="idieresis" unicode="&#xef;" horiz-adv-x="622" 
d="M481 0h-339v1154h339v-1154zM648 1403q0 -30 -11.5 -57t-31.5 -47t-47 -31.5t-58 -11.5q-30 0 -57 11.5t-47 31.5t-31.5 47t-11.5 57t11.5 57t31.5 47t47 31.5t57 11.5q31 0 58 -11.5t47 -31.5t31.5 -47t11.5 -57zM271 1403q0 -30 -11.5 -57t-31.5 -47t-47 -31.5
t-58 -11.5q-30 0 -57 11.5t-47 31.5t-31.5 47t-11.5 57t11.5 57t31.5 47t47 31.5t57 11.5q31 0 58 -11.5t47 -31.5t31.5 -47t11.5 -57z" />
    <glyph glyph-name="eth" unicode="&#xf0;" horiz-adv-x="1466" 
d="M1017 580q0 48 -5.5 101.5t-18.5 105t-35.5 99t-55.5 83t-79 57t-107 21.5q-58 0 -103 -22t-78.5 -58.5t-56 -84.5t-36.5 -99.5t-20 -104t-6 -98.5t6 -98.5t20 -104.5t36.5 -99.5t56 -84t78.5 -58.5t103 -22q60 0 106 21.5t79.5 57.5t55.5 83t35.5 99t19 105t5.5 101z
M1315 1498l-169 -53q60 -111 101.5 -226t66.5 -225.5t36 -212t11 -186.5q0 -144 -53 -258.5t-142.5 -194.5t-206 -122.5t-243.5 -42.5q-86 0 -167 20t-152.5 57t-131.5 90.5t-102.5 120.5t-66.5 146.5t-24 168.5t24 168.5t66.5 146.5t102.5 120.5t131.5 90.5t152.5 57
t167 20q78 0 154 -27.5t138 -85.5q-10 70 -30 150t-46 158l-253 -80v184l190 60q-13 29 -25.5 55t-25.5 48l132 80q27 -31 52.5 -62.5t48.5 -63.5l264 83v-184z" />
    <glyph glyph-name="ntilde" unicode="&#xf1;" 
d="M1322 662q0 -117 -28.5 -244t-79.5 -249t-122 -229.5t-156 -185.5l-127 69q27 50 51 112t43.5 131.5t35 143.5t26 146.5t16 141t5.5 127.5q0 39 -3 83.5t-12.5 89t-25.5 85.5t-42.5 72t-64 50t-88.5 19q-50 0 -89 -22.5t-69 -59t-51.5 -83.5t-35 -96.5t-19.5 -97.5
t-6 -86v-579h-339v1155h130l155 -269q28 67 70 122t95 94t117.5 60t139.5 21q120 0 209 -39t148 -108.5t88 -165t29 -208.5zM1121 1591q-4 -50 -19 -105t-43.5 -101.5t-71.5 -77t-102 -30.5t-106.5 15t-86 33.5t-70 33.5t-59.5 15q-18 0 -30 -9.5t-20 -24t-11.5 -31.5
t-3.5 -32h-155q2 52 17 107.5t44 101.5t73 75.5t105 29.5q54 0 101.5 -15t87 -32.5t71 -32.5t54.5 -15q17 0 29.5 9.5t20 23.5t11.5 31t4 31h160z" />
    <glyph glyph-name="ograve" unicode="&#xf2;" horiz-adv-x="1433" 
d="M1361 580q0 -90 -24 -169t-66.5 -146t-102.5 -120.5t-131.5 -90.5t-153 -57t-167.5 -20t-167 20t-152.5 57t-131.5 90.5t-102.5 120.5t-66.5 146.5t-24 168.5t24 168.5t66.5 146.5t102.5 120.5t131.5 90.5t152.5 57t167 20t167.5 -20t153 -57t131.5 -90.5t102.5 -120.5
t66.5 -146.5t24 -168.5zM1017 580q0 48 -5.5 101.5t-18.5 105t-35.5 99t-55.5 83t-79 57t-107 21.5q-58 0 -103 -22t-78.5 -58.5t-56 -84.5t-36.5 -99.5t-20 -104t-6 -98.5t6 -98.5t20 -104.5t36.5 -99.5t56 -84t78.5 -58.5t103 -22q60 0 106 21.5t79.5 57.5t55.5 83
t35.5 99t19 105t5.5 101zM832 1274h-200l-316 354h317z" />
    <glyph glyph-name="oacute" unicode="&#xf3;" horiz-adv-x="1433" 
d="M1361 580q0 -90 -24 -169t-66.5 -146t-102.5 -120.5t-131.5 -90.5t-153 -57t-167.5 -20t-167 20t-152.5 57t-131.5 90.5t-102.5 120.5t-66.5 146.5t-24 168.5t24 168.5t66.5 146.5t102.5 120.5t131.5 90.5t152.5 57t167 20t167.5 -20t153 -57t131.5 -90.5t102.5 -120.5
t66.5 -146.5t24 -168.5zM1017 580q0 48 -5.5 101.5t-18.5 105t-35.5 99t-55.5 83t-79 57t-107 21.5q-58 0 -103 -22t-78.5 -58.5t-56 -84.5t-36.5 -99.5t-20 -104t-6 -98.5t6 -98.5t20 -104.5t36.5 -99.5t56 -84t78.5 -58.5t103 -22q60 0 106 21.5t79.5 57.5t55.5 83
t35.5 99t19 105t5.5 101zM1150 1627l-317 -354h-199l198 354h318z" />
    <glyph glyph-name="ocircumflex" unicode="&#xf4;" horiz-adv-x="1433" 
d="M1361 580q0 -90 -24 -169t-66.5 -146t-102.5 -120.5t-131.5 -90.5t-153 -57t-167.5 -20t-167 20t-152.5 57t-131.5 90.5t-102.5 120.5t-66.5 146.5t-24 168.5t24 168.5t66.5 146.5t102.5 120.5t131.5 90.5t152.5 57t167 20t167.5 -20t153 -57t131.5 -90.5t102.5 -120.5
t66.5 -146.5t24 -168.5zM1017 580q0 48 -5.5 101.5t-18.5 105t-35.5 99t-55.5 83t-79 57t-107 21.5q-58 0 -103 -22t-78.5 -58.5t-56 -84.5t-36.5 -99.5t-20 -104t-6 -98.5t6 -98.5t20 -104.5t36.5 -99.5t56 -84t78.5 -58.5t103 -22q60 0 106 21.5t79.5 57.5t55.5 83
t35.5 99t19 105t5.5 101zM980 1277h-250l-65 138l-66 -138h-146l193 355h135z" />
    <glyph glyph-name="otilde" unicode="&#xf5;" horiz-adv-x="1433" 
d="M1361 580q0 -90 -24 -169t-66.5 -146t-102.5 -120.5t-131.5 -90.5t-153 -57t-167.5 -20t-167 20t-152.5 57t-131.5 90.5t-102.5 120.5t-66.5 146.5t-24 168.5t24 168.5t66.5 146.5t102.5 120.5t131.5 90.5t152.5 57t167 20t167.5 -20t153 -57t131.5 -90.5t102.5 -120.5
t66.5 -146.5t24 -168.5zM1017 580q0 48 -5.5 101.5t-18.5 105t-35.5 99t-55.5 83t-79 57t-107 21.5q-58 0 -103 -22t-78.5 -58.5t-56 -84.5t-36.5 -99.5t-20 -104t-6 -98.5t6 -98.5t20 -104.5t36.5 -99.5t56 -84t78.5 -58.5t103 -22q60 0 106 21.5t79.5 57.5t55.5 83
t35.5 99t19 105t5.5 101zM1106 1583q-4 -50 -19 -105t-43.5 -101.5t-71.5 -77t-102 -30.5t-106.5 15t-86 33.5t-70 33.5t-59.5 15q-18 0 -30 -9.5t-20 -24t-11.5 -31.5t-3.5 -32h-155q2 52 17 107.5t44 101.5t73 75.5t105 29.5q54 0 101.5 -15t87 -32.5t71 -32.5t54.5 -15
q17 0 29.5 9.5t20 23.5t11.5 31t4 31h160z" />
    <glyph glyph-name="odieresis" unicode="&#xf6;" horiz-adv-x="1433" 
d="M1361 580q0 -90 -24 -169t-66.5 -146t-102.5 -120.5t-131.5 -90.5t-153 -57t-167.5 -20t-167 20t-152.5 57t-131.5 90.5t-102.5 120.5t-66.5 146.5t-24 168.5t24 168.5t66.5 146.5t102.5 120.5t131.5 90.5t152.5 57t167 20t167.5 -20t153 -57t131.5 -90.5t102.5 -120.5
t66.5 -146.5t24 -168.5zM1017 580q0 48 -5.5 101.5t-18.5 105t-35.5 99t-55.5 83t-79 57t-107 21.5q-58 0 -103 -22t-78.5 -58.5t-56 -84.5t-36.5 -99.5t-20 -104t-6 -98.5t6 -98.5t20 -104.5t36.5 -99.5t56 -84t78.5 -58.5t103 -22q60 0 106 21.5t79.5 57.5t55.5 83
t35.5 99t19 105t5.5 101zM1053 1404q0 -30 -11.5 -57t-31.5 -47t-47 -31.5t-58 -11.5q-30 0 -57 11.5t-47 31.5t-31.5 47t-11.5 57t11.5 57t31.5 47t47 31.5t57 11.5q31 0 58 -11.5t47 -31.5t31.5 -47t11.5 -57zM676 1404q0 -30 -11.5 -57t-31.5 -47t-47 -31.5t-58 -11.5
q-30 0 -57 11.5t-47 31.5t-31.5 47t-11.5 57t11.5 57t31.5 47t47 31.5t57 11.5q31 0 58 -11.5t47 -31.5t31.5 -47t11.5 -57z" />
    <glyph glyph-name="divide" unicode="&#xf7;" horiz-adv-x="1017" 
d="M926 629h-835v184h835v-184zM654 410q0 -30 -11.5 -57t-31 -46.5t-46 -31t-56.5 -11.5t-57 11.5t-46.5 31t-31 46.5t-11.5 57t11.5 56.5t31 46t46.5 31t57 11.5t56.5 -11.5t46 -31t31 -46t11.5 -56.5zM654 1040q0 -30 -11.5 -57t-31 -46.5t-46 -31t-56.5 -11.5t-57 11.5
t-46.5 31t-31 46.5t-11.5 57t11.5 56.5t31 46t46.5 31t57 11.5t56.5 -11.5t46 -31t31 -46t11.5 -56.5z" />
    <glyph glyph-name="oslash" unicode="&#xf8;" horiz-adv-x="1433" 
d="M438 393l477 560q-34 43 -83 68.5t-116 25.5q-58 0 -103 -22t-78.5 -58.5t-56 -84.5t-36.5 -99.5t-20 -104t-6 -98.5q0 -43 5.5 -91t16.5 -96zM997 770l-477 -559q35 -45 83 -71.5t113 -26.5q60 0 106 21.5t79.5 57.5t55.5 83t35.5 99t19 105t5.5 101q0 45 -4.5 93
t-15.5 97zM1329 1160l-140 -165q80 -78 126 -183t46 -232q0 -90 -24 -169t-66.5 -146t-102.5 -120.5t-131.5 -90.5t-153 -57t-167.5 -20q-88 0 -171 20.5t-156 59.5l-48 -57h-238l140 165q-79 78 -125 183t-46 232q0 89 24 168.5t66.5 146.5t102.5 120.5t131.5 90.5
t152.5 57t167 20q89 0 171.5 -21t155.5 -59l48 57h238z" />
    <glyph glyph-name="ugrave" unicode="&#xf9;" 
d="M82 494q0 79 13.5 164t39 170t61.5 168t81 159h247q-25 -75 -44.5 -156.5t-33 -163t-21 -159.5t-7.5 -145q0 -39 3.5 -83.5t12.5 -89t25.5 -85.5t42.5 -72.5t63.5 -50t88.5 -18.5q50 0 89.5 22.5t69.5 59t51 83.5t34.5 96.5t20 97t6.5 85.5v579h338v-1155h-130l-155 269
q-29 -67 -70.5 -121.5t-94.5 -93.5t-117.5 -60t-139.5 -21q-120 0 -209 39t-148 108t-88 164.5t-29 209.5zM820 1255h-200l-316 354h317z" />
    <glyph glyph-name="uacute" unicode="&#xfa;" 
d="M82 494q0 79 13.5 164t39 170t61.5 168t81 159h247q-25 -75 -44.5 -156.5t-33 -163t-21 -159.5t-7.5 -145q0 -39 3.5 -83.5t12.5 -89t25.5 -85.5t42.5 -72.5t63.5 -50t88.5 -18.5q50 0 89.5 22.5t69.5 59t51 83.5t34.5 96.5t20 97t6.5 85.5v579h338v-1155h-130l-155 269
q-29 -67 -70.5 -121.5t-94.5 -93.5t-117.5 -60t-139.5 -21q-120 0 -209 39t-148 108t-88 164.5t-29 209.5zM1139 1609l-317 -354h-199l198 354h318z" />
    <glyph glyph-name="ucircumflex" unicode="&#xfb;" 
d="M82 494q0 79 13.5 164t39 170t61.5 168t81 159h247q-25 -75 -44.5 -156.5t-33 -163t-21 -159.5t-7.5 -145q0 -39 3.5 -83.5t12.5 -89t25.5 -85.5t42.5 -72.5t63.5 -50t88.5 -18.5q50 0 89.5 22.5t69.5 59t51 83.5t34.5 96.5t20 97t6.5 85.5v579h338v-1155h-130l-155 269
q-29 -67 -70.5 -121.5t-94.5 -93.5t-117.5 -60t-139.5 -21q-120 0 -209 39t-148 108t-88 164.5t-29 209.5zM1000 1257h-250l-65 138l-66 -138h-146l193 355h135z" />
    <glyph glyph-name="udieresis" unicode="&#xfc;" 
d="M82 494q0 79 13.5 164t39 170t61.5 168t81 159h247q-25 -75 -44.5 -156.5t-33 -163t-21 -159.5t-7.5 -145q0 -39 3.5 -83.5t12.5 -89t25.5 -85.5t42.5 -72.5t63.5 -50t88.5 -18.5q50 0 89.5 22.5t69.5 59t51 83.5t34.5 96.5t20 97t6.5 85.5v579h338v-1155h-130l-155 269
q-29 -67 -70.5 -121.5t-94.5 -93.5t-117.5 -60t-139.5 -21q-120 0 -209 39t-148 108t-88 164.5t-29 209.5zM1073 1403q0 -30 -11.5 -57t-31.5 -47t-47 -31.5t-58 -11.5q-30 0 -57 11.5t-47 31.5t-31.5 47t-11.5 57t11.5 57t31.5 47t47 31.5t57 11.5q31 0 58 -11.5t47 -31.5
t31.5 -47t11.5 -57zM696 1403q0 -30 -11.5 -57t-31.5 -47t-47 -31.5t-58 -11.5q-30 0 -57 11.5t-47 31.5t-31.5 47t-11.5 57t11.5 57t31.5 47t47 31.5t57 11.5q31 0 58 -11.5t47 -31.5t31.5 -47t11.5 -57z" />
    <glyph glyph-name="yacute" unicode="&#xfd;" horiz-adv-x="1175" 
d="M1175 1155l-420 -1016q-72 -174 -160.5 -344.5t-191.5 -327.5l-132 80q25 45 59 104t67 122t61 124.5t43 112.5l-505 1145h338l343 -781l264 781h234zM1057 1459l-317 -354h-199l198 354h318z" />
    <glyph glyph-name="thorn" unicode="&#xfe;" horiz-adv-x="1445" 
d="M1026 580q0 44 -4.5 93.5t-15.5 98.5t-30.5 94t-49.5 79.5t-72.5 55t-98.5 20.5q-58 0 -100.5 -20t-73 -54.5t-50 -79t-30.5 -93.5t-15.5 -99t-4.5 -95q0 -40 6 -88.5t19 -97.5t34 -95t51.5 -82t71 -57.5t92.5 -21.5q57 0 99 20.5t72 55t49.5 79.5t30.5 94t15.5 99
t4.5 94zM141 1640h338v-625q57 78 142.5 123t187.5 45q132 0 236 -47t176 -128.5t110 -191.5t38 -236t-38 -236t-110 -191.5t-176 -128.5t-236 -47q-101 0 -185.5 39.5t-144.5 121.5v-671h-338v2173z" />
    <glyph glyph-name="ydieresis" unicode="&#xff;" horiz-adv-x="1175" 
d="M1175 1155l-420 -1016q-72 -174 -160.5 -344.5t-191.5 -327.5l-132 80q25 45 59 104t67 122t61 124.5t43 112.5l-505 1145h338l343 -781l264 781h234zM973 1351q0 -30 -11.5 -57t-31.5 -47t-47 -31.5t-58 -11.5q-30 0 -57 11.5t-47 31.5t-31.5 47t-11.5 57t11.5 57
t31.5 47t47 31.5t57 11.5q31 0 58 -11.5t47 -31.5t31.5 -47t11.5 -57zM596 1351q0 -30 -11.5 -57t-31.5 -47t-47 -31.5t-58 -11.5q-30 0 -57 11.5t-47 31.5t-31.5 47t-11.5 57t11.5 57t31.5 47t47 31.5t57 11.5q31 0 58 -11.5t47 -31.5t31.5 -47t11.5 -57z" />
    <glyph glyph-name="Amacron" unicode="&#x100;" horiz-adv-x="1629" 
d="M1534 689v-19q-2 -84 -17.5 -174t-43.5 -180t-67 -178t-87.5 -168.5t-104.5 -151t-118 -124.5l-149 86q35 59 63.5 128.5t51.5 145.5t39.5 156t27.5 159t16.5 155.5t5.5 145.5q0 54 -0.5 122.5t-8 139.5t-24.5 138.5t-50.5 120.5t-86 85t-130.5 32q-69 0 -118.5 -23.5
t-84 -63t-55 -91.5t-32 -109.5t-15 -116t-3.5 -110.5v-279h431v-165h-431v-350h-397v732q0 157 50 292t141.5 234.5t220 156t286.5 56.5q107 0 200.5 -30.5t170.5 -84t137.5 -127t101 -160.5t61.5 -184t19 -196zM1120 1569h-545v198h545v-198z" />
    <glyph glyph-name="amacron" unicode="&#x101;" horiz-adv-x="1445" 
d="M1304 0h-338v138q-60 -82 -144.5 -121.5t-185.5 -39.5q-132 0 -236 47t-176 128.5t-110 191.5t-38 236t38 236t110 191.5t176 128.5t236 47q67 0 127.5 -20t111 -56.5t89 -88t60.5 -114.5l150 251h130v-1155zM964 580q0 45 -4.5 95t-15.5 99t-30.5 93.5t-50 79
t-73.5 54.5t-100 20t-99 -20.5t-72 -55t-49.5 -79.5t-30.5 -94t-15.5 -98.5t-4.5 -93.5t4.5 -94t15.5 -99t30.5 -94t49.5 -79.5t72 -55t99 -20.5q52 0 92.5 21.5t71 57.5t51.5 82t34 95t19 97.5t6 88.5zM995 1284h-545v198h545v-198z" />
    <glyph glyph-name="Abreve" unicode="&#x102;" horiz-adv-x="1629" 
d="M1534 689v-19q-2 -84 -17.5 -174t-43.5 -180t-67 -178t-87.5 -168.5t-104.5 -151t-118 -124.5l-149 86q35 59 63.5 128.5t51.5 145.5t39.5 156t27.5 159t16.5 155.5t5.5 145.5q0 54 -0.5 122.5t-8 139.5t-24.5 138.5t-50.5 120.5t-86 85t-130.5 32q-69 0 -118.5 -23.5
t-84 -63t-55 -91.5t-32 -109.5t-15 -116t-3.5 -110.5v-279h431v-165h-431v-350h-397v732q0 157 50 292t141.5 234.5t220 156t286.5 56.5q107 0 200.5 -30.5t170.5 -84t137.5 -127t101 -160.5t61.5 -184t19 -196zM1091 1822q-4 -53 -24 -98.5t-53 -79.5t-78 -53.5t-99 -19.5
t-98 20t-76 54.5t-51 80t-23 96.5h145q0 -11 5.5 -30t17.5 -37t31.5 -31.5t48.5 -13.5q31 0 51.5 13.5t33.5 31.5t18.5 37t6.5 30h144z" />
    <glyph glyph-name="abreve" unicode="&#x103;" horiz-adv-x="1445" 
d="M1304 0h-338v138q-60 -82 -144.5 -121.5t-185.5 -39.5q-132 0 -236 47t-176 128.5t-110 191.5t-38 236t38 236t110 191.5t176 128.5t236 47q67 0 127.5 -20t111 -56.5t89 -88t60.5 -114.5l150 251h130v-1155zM964 580q0 45 -4.5 95t-15.5 99t-30.5 93.5t-50 79
t-73.5 54.5t-100 20t-99 -20.5t-72 -55t-49.5 -79.5t-30.5 -94t-15.5 -98.5t-4.5 -93.5t4.5 -94t15.5 -99t30.5 -94t49.5 -79.5t72 -55t99 -20.5q52 0 92.5 21.5t71 57.5t51.5 82t34 95t19 97.5t6 88.5zM911 1536q-4 -53 -24 -98.5t-53 -79.5t-78 -53.5t-99 -19.5t-98 20
t-76 54.5t-51 80t-23 96.5h145q0 -11 5.5 -30t17.5 -37t31.5 -31.5t48.5 -13.5q31 0 51.5 13.5t33.5 31.5t18.5 37t6.5 30h144z" />
    <glyph glyph-name="Aogonek" unicode="&#x104;" horiz-adv-x="1629" 
d="M1324 -413q0 -40 -15 -75t-41 -61.5t-61 -42t-75 -15.5q-51 0 -93.5 15.5t-74 45t-49 71t-17.5 93.5q0 42 20.5 79.5t52.5 69.5l-24 13q35 59 63.5 128.5t51.5 145.5t39.5 156t27.5 159t16.5 155.5t5.5 145.5q0 54 -0.5 122.5t-8 139.5t-24.5 138.5t-50.5 120.5t-86 85
t-130.5 32q-69 0 -118.5 -23.5t-84 -63t-55 -91.5t-32 -109.5t-15 -116t-3.5 -110.5v-279h431v-165h-431v-350h-397v732q0 157 50 292t141.5 234.5t220 156t286.5 56.5q107 0 200.5 -30.5t170.5 -84t137.5 -127t101 -160.5t61.5 -184t19 -196v-19q-2 -84 -17.5 -174
t-43.5 -180t-67 -178t-87.5 -168.5t-104.5 -151t-118 -124.5l-17 10q-22 -44 -22 -86q0 -39 18.5 -64t60.5 -25q25 0 49.5 14.5t25.5 43.5h113z" />
    <glyph glyph-name="aogonek" unicode="&#x105;" horiz-adv-x="1445" 
d="M1355 -223q0 -40 -15 -75t-41 -61.5t-61 -42t-75 -15.5q-51 0 -93.5 15.5t-74 45t-49 71t-17.5 93.5q0 28 10 55t27 51.5t39.5 46t47.5 39.5h-87v138q-60 -82 -144.5 -121.5t-185.5 -39.5q-132 0 -236 47t-176 128.5t-110 191.5t-38 236t38 236t110 191.5t176 128.5
t236 47q67 0 127.5 -20t111 -56.5t89 -88t60.5 -114.5l150 251h130v-1155h-114q-20 -20 -38.5 -42.5t-32.5 -47.5t-22.5 -51t-8.5 -51q0 -39 18.5 -64t60.5 -25q25 0 49.5 14.5t25.5 43.5h113zM964 580q0 45 -4.5 95t-15.5 99t-30.5 93.5t-50 79t-73.5 54.5t-100 20
t-99 -20.5t-72 -55t-49.5 -79.5t-30.5 -94t-15.5 -98.5t-4.5 -93.5t4.5 -94t15.5 -99t30.5 -94t49.5 -79.5t72 -55t99 -20.5q52 0 92.5 21.5t71 57.5t51.5 82t34 95t19 97.5t6 88.5z" />
    <glyph glyph-name="Cacute" unicode="&#x106;" horiz-adv-x="1540" 
d="M1471 1083l-171 -72q-20 65 -53.5 119t-80 92.5t-105.5 60t-129 21.5q-75 0 -137.5 -24.5t-112 -67.5t-86.5 -100t-62 -121.5t-37 -133.5t-12 -135q0 -105 24.5 -209t78 -187t138.5 -134.5t206 -51.5q64 0 121 21.5t103.5 59t81.5 88.5t56 110l173 -69
q-38 -95 -104 -166.5t-150.5 -118.5t-181 -70.5t-194.5 -23.5q-106 0 -203.5 26t-181.5 74t-152.5 116t-117 151t-75 180.5t-26.5 203.5t26.5 203.5t75 181t117 151.5t152.5 116t181.5 74t203.5 26q102 0 199.5 -24t181.5 -72.5t149.5 -122t103.5 -172.5zM1265 1931
l-317 -354h-199l198 354h318z" />
    <glyph glyph-name="cacute" unicode="&#x107;" horiz-adv-x="1266" 
d="M1207 869l-146 -58q-35 110 -117 169t-197 59q-62 0 -110.5 -19.5t-85 -53.5t-62 -79t-41.5 -96t-23 -105.5t-7 -105.5q0 -55 6 -111t20.5 -107.5t38.5 -96t60.5 -77.5t87 -52t116.5 -19q53 0 101 16t88 45t71 69t49 89l147 -54q-33 -79 -87.5 -136.5t-123.5 -95
t-148 -55.5t-160 -18q-131 0 -243 44.5t-193.5 125t-127.5 191t-46 242.5q0 133 45.5 244t126.5 191t193 124t245 44q84 0 164 -18.5t148.5 -57t123 -97.5t87.5 -141zM1095 1637l-317 -354h-199l198 354h318z" />
    <glyph glyph-name="Ccircumflex" unicode="&#x108;" horiz-adv-x="1540" 
d="M1471 1083l-171 -72q-20 65 -53.5 119t-80 92.5t-105.5 60t-129 21.5q-75 0 -137.5 -24.5t-112 -67.5t-86.5 -100t-62 -121.5t-37 -133.5t-12 -135q0 -105 24.5 -209t78 -187t138.5 -134.5t206 -51.5q64 0 121 21.5t103.5 59t81.5 88.5t56 110l173 -69
q-38 -95 -104 -166.5t-150.5 -118.5t-181 -70.5t-194.5 -23.5q-106 0 -203.5 26t-181.5 74t-152.5 116t-117 151t-75 180.5t-26.5 203.5t26.5 203.5t75 181t117 151.5t152.5 116t181.5 74t203.5 26q102 0 199.5 -24t181.5 -72.5t149.5 -122t103.5 -172.5zM1130 1573h-250
l-65 138l-66 -138h-146l193 355h135z" />
    <glyph glyph-name="ccircumflex" unicode="&#x109;" horiz-adv-x="1266" 
d="M1207 869l-146 -58q-35 110 -117 169t-197 59q-62 0 -110.5 -19.5t-85 -53.5t-62 -79t-41.5 -96t-23 -105.5t-7 -105.5q0 -55 6 -111t20.5 -107.5t38.5 -96t60.5 -77.5t87 -52t116.5 -19q53 0 101 16t88 45t71 69t49 89l147 -54q-33 -79 -87.5 -136.5t-123.5 -95
t-148 -55.5t-160 -18q-131 0 -243 44.5t-193.5 125t-127.5 191t-46 242.5q0 133 45.5 244t126.5 191t193 124t245 44q84 0 164 -18.5t148.5 -57t123 -97.5t87.5 -141zM952 1286h-250l-65 138l-66 -138h-146l193 355h135z" />
    <glyph glyph-name="Cdotaccent" unicode="&#x10a;" horiz-adv-x="1540" 
d="M1471 1083l-171 -72q-20 65 -53.5 119t-80 92.5t-105.5 60t-129 21.5q-75 0 -137.5 -24.5t-112 -67.5t-86.5 -100t-62 -121.5t-37 -133.5t-12 -135q0 -105 24.5 -209t78 -187t138.5 -134.5t206 -51.5q64 0 121 21.5t103.5 59t81.5 88.5t56 110l173 -69
q-38 -95 -104 -166.5t-150.5 -118.5t-181 -70.5t-194.5 -23.5q-106 0 -203.5 26t-181.5 74t-152.5 116t-117 151t-75 180.5t-26.5 203.5t26.5 203.5t75 181t117 151.5t152.5 116t181.5 74t203.5 26q102 0 199.5 -24t181.5 -72.5t149.5 -122t103.5 -172.5zM1019 1721
q0 -30 -11.5 -57t-31.5 -47t-47 -31.5t-57 -11.5q-31 0 -58 11.5t-47 31.5t-31.5 47t-11.5 57t11.5 57t31.5 47t47 31.5t58 11.5q30 0 57 -11.5t47 -31.5t31.5 -47t11.5 -57z" />
    <glyph glyph-name="cdotaccent" unicode="&#x10b;" horiz-adv-x="1266" 
d="M1207 869l-146 -58q-35 110 -117 169t-197 59q-62 0 -110.5 -19.5t-85 -53.5t-62 -79t-41.5 -96t-23 -105.5t-7 -105.5q0 -55 6 -111t20.5 -107.5t38.5 -96t60.5 -77.5t87 -52t116.5 -19q53 0 101 16t88 45t71 69t49 89l147 -54q-33 -79 -87.5 -136.5t-123.5 -95
t-148 -55.5t-160 -18q-131 0 -243 44.5t-193.5 125t-127.5 191t-46 242.5q0 133 45.5 244t126.5 191t193 124t245 44q84 0 164 -18.5t148.5 -57t123 -97.5t87.5 -141zM854 1431q0 -30 -11.5 -57t-31.5 -47t-47 -31.5t-57 -11.5q-31 0 -58 11.5t-47 31.5t-31.5 47t-11.5 57
t11.5 57t31.5 47t47 31.5t58 11.5q30 0 57 -11.5t47 -31.5t31.5 -47t11.5 -57z" />
    <glyph glyph-name="Ccaron" unicode="&#x10c;" horiz-adv-x="1540" 
d="M1471 1083l-171 -72q-20 65 -53.5 119t-80 92.5t-105.5 60t-129 21.5q-75 0 -137.5 -24.5t-112 -67.5t-86.5 -100t-62 -121.5t-37 -133.5t-12 -135q0 -105 24.5 -209t78 -187t138.5 -134.5t206 -51.5q64 0 121 21.5t103.5 59t81.5 88.5t56 110l173 -69
q-38 -95 -104 -166.5t-150.5 -118.5t-181 -70.5t-194.5 -23.5q-106 0 -203.5 26t-181.5 74t-152.5 116t-117 151t-75 180.5t-26.5 203.5t26.5 203.5t75 181t117 151.5t152.5 116t181.5 74t203.5 26q102 0 199.5 -24t181.5 -72.5t149.5 -122t103.5 -172.5zM1141 1927
l-199 -354h-165l-193 354h246l66 -137l65 137h180z" />
    <glyph glyph-name="ccaron" unicode="&#x10d;" horiz-adv-x="1266" 
d="M1207 869l-146 -58q-35 110 -117 169t-197 59q-62 0 -110.5 -19.5t-85 -53.5t-62 -79t-41.5 -96t-23 -105.5t-7 -105.5q0 -55 6 -111t20.5 -107.5t38.5 -96t60.5 -77.5t87 -52t116.5 -19q53 0 101 16t88 45t71 69t49 89l147 -54q-33 -79 -87.5 -136.5t-123.5 -95
t-148 -55.5t-160 -18q-131 0 -243 44.5t-193.5 125t-127.5 191t-46 242.5q0 133 45.5 244t126.5 191t193 124t245 44q84 0 164 -18.5t148.5 -57t123 -97.5t87.5 -141zM981 1637l-199 -354h-165l-193 354h246l66 -137l65 137h180z" />
    <glyph glyph-name="Dcaron" unicode="&#x10e;" horiz-adv-x="1640" 
d="M1559 722q0 -105 -28 -199.5t-78.5 -174.5t-120.5 -144.5t-154.5 -109.5t-181 -69.5t-198.5 -24.5h-635v1440h635q102 0 198 -24t180.5 -68.5t155 -108.5t121 -143.5t78.5 -174t28 -199.5zM1156 722q0 117 -28.5 222.5t-88.5 185.5t-152.5 127t-221.5 47h-105v-1164h105
q127 0 219.5 47.5t153 128t89.5 185.5t29 221zM1043 1894l-199 -354h-165l-193 354h246l66 -137l65 137h180z" />
    <glyph glyph-name="dcaron" unicode="&#x10f;" horiz-adv-x="1994" 
d="M1305 0h-130l-150 251q-22 -63 -60.5 -114t-89 -87.5t-111 -56.5t-127.5 -20q-132 0 -236 47t-176 128.5t-110 191.5t-38 236t38 236t110 191t176 128t236 47q101 0 185.5 -39t144.5 -122v563h338v-1580zM965 576q0 40 -6 88t-19 97t-34 95t-51.5 82t-71 57.5t-92.5 21.5
q-57 0 -99 -20.5t-72 -55t-49.5 -79.5t-30.5 -94t-15.5 -98.5t-4.5 -93.5t4.5 -93.5t15.5 -98.5t30.5 -94.5t49.5 -80t72 -55t99 -20.5t100 20t73.5 54.5t50 79t30.5 94t15.5 99.5t4.5 95zM1901 1284q0 -46 -12 -94t-33.5 -93t-50.5 -85.5t-63 -71.5l-144 76q21 16 42.5 42
t25.5 52q-29 9 -52.5 26t-40.5 40t-26.5 50.5t-9.5 57.5q0 37 14.5 70.5t39 58t57.5 39t71 14.5t71 -14t58 -39t39 -58t14 -71z" />
    <glyph glyph-name="Dcroat" unicode="&#x110;" horiz-adv-x="1706" 
d="M229 629h-199v184h199v627h635q102 0 198 -24t180.5 -68.5t155 -108.5t121 -143.5t78.5 -174t28 -199.5t-28 -199.5t-78.5 -174.5t-120.5 -144.5t-154.5 -109.5t-181 -69.5t-198.5 -24.5h-635v629zM866 629h-240v-489h105q127 0 219.5 47.5t153 128t90 185.5t29.5 221
q0 117 -28.5 222.5t-88.5 185.5t-153 127t-222 47h-105v-491h240v-184z" />
    <glyph glyph-name="dcroat" unicode="&#x111;" horiz-adv-x="1446" 
d="M1305 0h-130l-150 251q-22 -63 -60.5 -114t-89 -87.5t-111 -56.5t-127.5 -20q-132 0 -236 47t-176 128.5t-110 191.5t-38 236t38 236t110 191t176 128t236 47q101 0 185.5 -39t144.5 -122v251h-142v184h142v128h338v-128h142v-184h-142v-1268zM965 576q0 40 -6 88t-19 97
t-34 95t-51.5 82t-71 57.5t-92.5 21.5q-57 0 -99 -20.5t-72 -55t-49.5 -79.5t-30.5 -94t-15.5 -98.5t-4.5 -93.5t4.5 -93.5t15.5 -98.5t30.5 -94.5t49.5 -80t72 -55t99 -20.5t100 20t73.5 54.5t50 79t30.5 94t15.5 99.5t4.5 95z" />
    <glyph glyph-name="Emacron" unicode="&#x112;" horiz-adv-x="1280" 
d="M1197 0h-1034v1440h1034v-184h-637v-445h492v-183h-492v-444h637v-184zM912 1537h-545v198h545v-198z" />
    <glyph glyph-name="emacron" unicode="&#x113;" horiz-adv-x="1322" 
d="M419 548q62 -14 124 -22t125 -8q66 0 122.5 12.5t98 42t65.5 78.5t24 122q0 59 -16 108t-47.5 84t-77.5 54.5t-107 19.5q-57 0 -102.5 -21t-80 -56.5t-59 -82.5t-40.5 -98t-23 -103t-7 -98v-16t1 -16zM1252 776q0 -71 -23 -126.5t-62.5 -97.5t-91.5 -71t-111 -47.5
t-121.5 -26.5t-121.5 -8q-75 0 -148 10.5t-144 33.5q11 -66 35 -125.5t64 -104t98.5 -70.5t138.5 -26q53 0 101 16t88 45t70.5 69t49.5 89l146 -54q-33 -79 -90.5 -136.5t-130 -95t-154 -55.5t-161.5 -18q-132 0 -244 44.5t-193 124.5t-127 191t-46 243t46 243t127 191
t193 124.5t244 44.5q64 0 131 -9t130 -28.5t119 -50.5t97.5 -76.5t66 -105.5t24.5 -137zM933 1284h-545v198h545v-198z" />
    <glyph glyph-name="Ebreve" unicode="&#x114;" horiz-adv-x="1280" 
d="M1197 0h-1034v1440h1034v-184h-637v-445h492v-183h-492v-444h637v-184zM906 1788q-4 -53 -24 -98.5t-53 -79.5t-78 -53.5t-99 -19.5t-98 20t-76 54.5t-51 80t-23 96.5h145q0 -11 5.5 -30t17.5 -37t31.5 -31.5t48.5 -13.5q31 0 51.5 13.5t33.5 31.5t18.5 37t6.5 30h144z
" />
    <glyph glyph-name="ebreve" unicode="&#x115;" horiz-adv-x="1322" 
d="M419 548q62 -14 124 -22t125 -8q66 0 122.5 12.5t98 42t65.5 78.5t24 122q0 59 -16 108t-47.5 84t-77.5 54.5t-107 19.5q-57 0 -102.5 -21t-80 -56.5t-59 -82.5t-40.5 -98t-23 -103t-7 -98v-16t1 -16zM1252 776q0 -71 -23 -126.5t-62.5 -97.5t-91.5 -71t-111 -47.5
t-121.5 -26.5t-121.5 -8q-75 0 -148 10.5t-144 33.5q11 -66 35 -125.5t64 -104t98.5 -70.5t138.5 -26q53 0 101 16t88 45t70.5 69t49.5 89l146 -54q-33 -79 -90.5 -136.5t-130 -95t-154 -55.5t-161.5 -18q-132 0 -244 44.5t-193 124.5t-127 191t-46 243t46 243t127 191
t193 124.5t244 44.5q64 0 131 -9t130 -28.5t119 -50.5t97.5 -76.5t66 -105.5t24.5 -137zM942 1533q-4 -53 -24 -98.5t-53 -79.5t-78 -53.5t-99 -19.5t-98 20t-76 54.5t-51 80t-23 96.5h145q0 -11 5.5 -30t17.5 -37t31.5 -31.5t48.5 -13.5q31 0 51.5 13.5t33.5 31.5t18.5 37
t6.5 30h144z" />
    <glyph glyph-name="Edotaccent" unicode="&#x116;" horiz-adv-x="1280" 
d="M1197 0h-1034v1440h1034v-184h-637v-445h492v-183h-492v-444h637v-184zM807 1683q0 -30 -11.5 -57t-31.5 -47t-47 -31.5t-57 -11.5q-31 0 -58 11.5t-47 31.5t-31.5 47t-11.5 57t11.5 57t31.5 47t47 31.5t58 11.5q30 0 57 -11.5t47 -31.5t31.5 -47t11.5 -57z" />
    <glyph glyph-name="edotaccent" unicode="&#x117;" horiz-adv-x="1322" 
d="M419 548q62 -14 124 -22t125 -8q66 0 122.5 12.5t98 42t65.5 78.5t24 122q0 59 -16 108t-47.5 84t-77.5 54.5t-107 19.5q-57 0 -102.5 -21t-80 -56.5t-59 -82.5t-40.5 -98t-23 -103t-7 -98v-16t1 -16zM1252 776q0 -71 -23 -126.5t-62.5 -97.5t-91.5 -71t-111 -47.5
t-121.5 -26.5t-121.5 -8q-75 0 -148 10.5t-144 33.5q11 -66 35 -125.5t64 -104t98.5 -70.5t138.5 -26q53 0 101 16t88 45t70.5 69t49.5 89l146 -54q-33 -79 -90.5 -136.5t-130 -95t-154 -55.5t-161.5 -18q-132 0 -244 44.5t-193 124.5t-127 191t-46 243t46 243t127 191
t193 124.5t244 44.5q64 0 131 -9t130 -28.5t119 -50.5t97.5 -76.5t66 -105.5t24.5 -137zM840 1431q0 -30 -11.5 -57t-31.5 -47t-47 -31.5t-57 -11.5q-31 0 -58 11.5t-47 31.5t-31.5 47t-11.5 57t11.5 57t31.5 47t47 31.5t58 11.5q30 0 57 -11.5t47 -31.5t31.5 -47t11.5 -57z
" />
    <glyph glyph-name="Eogonek" unicode="&#x118;" horiz-adv-x="1280" 
d="M1197 -223q0 -40 -15 -75t-41 -61.5t-61 -42t-75 -15.5q-51 0 -93.5 15.5t-74 45t-49 71t-17.5 93.5q0 28 10 55t27 51.5t39.5 46t47.5 39.5h-732v1440h1034v-184h-637v-445h492v-183h-492v-444h637v-184h-165q-20 -20 -38.5 -42.5t-32.5 -47.5t-22.5 -51t-8.5 -51
q0 -39 18.5 -64t60.5 -25q25 0 49.5 14.5t25.5 43.5h113z" />
    <glyph glyph-name="eogonek" unicode="&#x119;" horiz-adv-x="1322" 
d="M928 -223q0 -40 -15 -75t-41 -61.5t-61 -42t-75 -15.5q-51 0 -93.5 15.5t-74 45t-49 71t-17.5 93.5q0 51 29 95t71 79q-116 13 -213 62.5t-167 128t-109 182t-39 225.5q0 132 46 243t127 191t193 124.5t244 44.5q64 0 131 -9t130 -28.5t119 -50.5t97.5 -76.5t66 -105.5
t24.5 -137q0 -71 -23 -126.5t-62.5 -97.5t-91.5 -71t-111 -47.5t-121.5 -26.5t-121.5 -8q-75 0 -148 10.5t-144 33.5q11 -66 35 -125.5t64 -104t98.5 -70.5t138.5 -26q53 0 101 16t88 45t70.5 69t49.5 89l146 -54q-30 -72 -80.5 -125.5t-114 -91t-136.5 -58.5t-146 -27
q-34 -38 -58 -82.5t-24 -89.5q0 -39 18.5 -64t60.5 -25q25 0 49.5 14.5t25.5 43.5h113zM419 548q62 -14 124 -22t125 -8q66 0 122.5 12.5t98 42t65.5 78.5t24 122q0 59 -16 108t-47.5 84t-77.5 54.5t-107 19.5q-57 0 -102.5 -21t-80 -56.5t-59 -82.5t-40.5 -98t-23 -103
t-7 -98v-16t1 -16z" />
    <glyph glyph-name="Ecaron" unicode="&#x11a;" horiz-adv-x="1280" 
d="M1197 0h-1034v1440h1034v-184h-637v-445h492v-183h-492v-444h637v-184zM964 1894l-199 -354h-165l-193 354h246l66 -137l65 137h180z" />
    <glyph glyph-name="ecaron" unicode="&#x11b;" horiz-adv-x="1322" 
d="M419 548q62 -14 124 -22t125 -8q66 0 122.5 12.5t98 42t65.5 78.5t24 122q0 59 -16 108t-47.5 84t-77.5 54.5t-107 19.5q-57 0 -102.5 -21t-80 -56.5t-59 -82.5t-40.5 -98t-23 -103t-7 -98v-16t1 -16zM1252 776q0 -71 -23 -126.5t-62.5 -97.5t-91.5 -71t-111 -47.5
t-121.5 -26.5t-121.5 -8q-75 0 -148 10.5t-144 33.5q11 -66 35 -125.5t64 -104t98.5 -70.5t138.5 -26q53 0 101 16t88 45t70.5 69t49.5 89l146 -54q-33 -79 -90.5 -136.5t-130 -95t-154 -55.5t-161.5 -18q-132 0 -244 44.5t-193 124.5t-127 191t-46 243t46 243t127 191
t193 124.5t244 44.5q64 0 131 -9t130 -28.5t119 -50.5t97.5 -76.5t66 -105.5t24.5 -137zM972 1637l-199 -354h-165l-193 354h246l66 -137l65 137h180z" />
    <glyph glyph-name="Gcircumflex" unicode="&#x11c;" horiz-adv-x="1587" 
d="M1471 1083l-171 -72q-20 65 -53.5 119t-80 92.5t-105.5 60t-129 21.5q-75 0 -137.5 -25t-112 -67.5t-86.5 -99.5t-61.5 -121.5t-37 -133.5t-12.5 -135q0 -105 24.5 -209t78 -187t138.5 -134.5t206 -51.5q66 0 103 29.5t37 103.5v442h397v-715h-115l-70 113
q-96 -73 -211.5 -107.5t-235.5 -34.5q-106 0 -203.5 26t-181.5 74t-152.5 116t-117 151t-75 180.5t-26.5 203.5t26.5 203.5t75 181t117 151.5t152.5 116t181.5 74t203.5 26q102 0 199.5 -24t181.5 -72.5t149.5 -122t103.5 -172.5zM1057 1575h-250l-65 138l-66 -138h-146
l193 355h135z" />
    <glyph glyph-name="gcircumflex" unicode="&#x11d;" horiz-adv-x="1445" 
d="M1304 139q0 -138 -41 -260t-119 -213.5t-191.5 -145t-258.5 -53.5q-80 0 -161.5 18t-154 55.5t-130 95t-90.5 135.5l146 55q19 -49 49.5 -90t70.5 -70.5t88 -46t101 -16.5q100 0 167.5 41t108.5 107t59 149.5t18 169.5v68q-60 -82 -144.5 -121.5t-185.5 -39.5
q-132 0 -236 47t-176 128.5t-110 191.5t-38 236t38 236t110 191.5t176 128.5t236 47q67 0 127.5 -20t111 -56.5t89 -88t60.5 -114.5l150 251h130v-1016zM964 580q0 45 -4.5 95t-15.5 99t-30.5 93.5t-50 79t-73.5 54.5t-100 20t-99 -20.5t-72 -55t-49.5 -79.5t-30.5 -94
t-15.5 -98.5t-4.5 -93.5t4.5 -94t15.5 -99t30.5 -94t49.5 -79.5t72 -55t99 -20.5q52 0 92.5 21.5t71 57.5t51.5 82t34 95t19 97.5t6 88.5zM986 1285h-250l-65 138l-66 -138h-146l193 355h135z" />
    <glyph glyph-name="Gbreve" unicode="&#x11e;" horiz-adv-x="1587" 
d="M1471 1083l-171 -72q-20 65 -53.5 119t-80 92.5t-105.5 60t-129 21.5q-75 0 -137.5 -25t-112 -67.5t-86.5 -99.5t-61.5 -121.5t-37 -133.5t-12.5 -135q0 -105 24.5 -209t78 -187t138.5 -134.5t206 -51.5q66 0 103 29.5t37 103.5v442h397v-715h-115l-70 113
q-96 -73 -211.5 -107.5t-235.5 -34.5q-106 0 -203.5 26t-181.5 74t-152.5 116t-117 151t-75 180.5t-26.5 203.5t26.5 203.5t75 181t117 151.5t152.5 116t181.5 74t203.5 26q102 0 199.5 -24t181.5 -72.5t149.5 -122t103.5 -172.5zM1044 1828q-4 -53 -24 -98.5t-53 -79.5
t-78 -53.5t-99 -19.5t-98 20t-76 54.5t-51 80t-23 96.5h145q0 -11 5.5 -30t17.5 -37t31.5 -31.5t48.5 -13.5q31 0 51.5 13.5t33.5 31.5t18.5 37t6.5 30h144z" />
    <glyph glyph-name="gbreve" unicode="&#x11f;" horiz-adv-x="1445" 
d="M1304 139q0 -138 -41 -260t-119 -213.5t-191.5 -145t-258.5 -53.5q-80 0 -161.5 18t-154 55.5t-130 95t-90.5 135.5l146 55q19 -49 49.5 -90t70.5 -70.5t88 -46t101 -16.5q100 0 167.5 41t108.5 107t59 149.5t18 169.5v68q-60 -82 -144.5 -121.5t-185.5 -39.5
q-132 0 -236 47t-176 128.5t-110 191.5t-38 236t38 236t110 191.5t176 128.5t236 47q67 0 127.5 -20t111 -56.5t89 -88t60.5 -114.5l150 251h130v-1016zM964 580q0 45 -4.5 95t-15.5 99t-30.5 93.5t-50 79t-73.5 54.5t-100 20t-99 -20.5t-72 -55t-49.5 -79.5t-30.5 -94
t-15.5 -98.5t-4.5 -93.5t4.5 -94t15.5 -99t30.5 -94t49.5 -79.5t72 -55t99 -20.5q52 0 92.5 21.5t71 57.5t51.5 82t34 95t19 97.5t6 88.5zM973 1535q-4 -53 -24 -98.5t-53 -79.5t-78 -53.5t-99 -19.5t-98 20t-76 54.5t-51 80t-23 96.5h145q0 -11 5.5 -30t17.5 -37
t31.5 -31.5t48.5 -13.5q31 0 51.5 13.5t33.5 31.5t18.5 37t6.5 30h144z" />
    <glyph glyph-name="Gdotaccent" unicode="&#x120;" horiz-adv-x="1587" 
d="M1471 1083l-171 -72q-20 65 -53.5 119t-80 92.5t-105.5 60t-129 21.5q-75 0 -137.5 -25t-112 -67.5t-86.5 -99.5t-61.5 -121.5t-37 -133.5t-12.5 -135q0 -105 24.5 -209t78 -187t138.5 -134.5t206 -51.5q66 0 103 29.5t37 103.5v442h397v-715h-115l-70 113
q-96 -73 -211.5 -107.5t-235.5 -34.5q-106 0 -203.5 26t-181.5 74t-152.5 116t-117 151t-75 180.5t-26.5 203.5t26.5 203.5t75 181t117 151.5t152.5 116t181.5 74t203.5 26q102 0 199.5 -24t181.5 -72.5t149.5 -122t103.5 -172.5zM941 1717q0 -30 -11.5 -57t-31.5 -47
t-47 -31.5t-57 -11.5q-31 0 -58 11.5t-47 31.5t-31.5 47t-11.5 57t11.5 57t31.5 47t47 31.5t58 11.5q30 0 57 -11.5t47 -31.5t31.5 -47t11.5 -57z" />
    <glyph glyph-name="gdotaccent" unicode="&#x121;" horiz-adv-x="1445" 
d="M1304 139q0 -138 -41 -260t-119 -213.5t-191.5 -145t-258.5 -53.5q-80 0 -161.5 18t-154 55.5t-130 95t-90.5 135.5l146 55q19 -49 49.5 -90t70.5 -70.5t88 -46t101 -16.5q100 0 167.5 41t108.5 107t59 149.5t18 169.5v68q-60 -82 -144.5 -121.5t-185.5 -39.5
q-132 0 -236 47t-176 128.5t-110 191.5t-38 236t38 236t110 191.5t176 128.5t236 47q67 0 127.5 -20t111 -56.5t89 -88t60.5 -114.5l150 251h130v-1016zM964 580q0 45 -4.5 95t-15.5 99t-30.5 93.5t-50 79t-73.5 54.5t-100 20t-99 -20.5t-72 -55t-49.5 -79.5t-30.5 -94
t-15.5 -98.5t-4.5 -93.5t4.5 -94t15.5 -99t30.5 -94t49.5 -79.5t72 -55t99 -20.5q52 0 92.5 21.5t71 57.5t51.5 82t34 95t19 97.5t6 88.5zM870 1431q0 -30 -11.5 -57t-31.5 -47t-47 -31.5t-57 -11.5q-31 0 -58 11.5t-47 31.5t-31.5 47t-11.5 57t11.5 57t31.5 47t47 31.5
t58 11.5q30 0 57 -11.5t47 -31.5t31.5 -47t11.5 -57z" />
    <glyph glyph-name="Gcommaaccent" unicode="&#x122;" horiz-adv-x="1587" 
d="M1471 1083l-171 -72q-20 65 -53.5 119t-80 92.5t-105.5 60t-129 21.5q-75 0 -137.5 -25t-112 -67.5t-86.5 -99.5t-61.5 -121.5t-37 -133.5t-12.5 -135q0 -105 24.5 -209t78 -187t138.5 -134.5t206 -51.5q66 0 103 29.5t37 103.5v442h397v-715h-115l-70 113
q-96 -73 -211.5 -107.5t-235.5 -34.5q-106 0 -203.5 26t-181.5 74t-152.5 116t-117 151t-75 180.5t-26.5 203.5t26.5 203.5t75 181t117 151.5t152.5 116t181.5 74t203.5 26q102 0 199.5 -24t181.5 -72.5t149.5 -122t103.5 -172.5zM940 -258q0 -37 -9.5 -75.5t-27 -74.5
t-40.5 -68.5t-50 -57.5l-115 61q17 13 34 33.5t20 41.5q-46 14 -74.5 53t-28.5 87q0 30 11.5 56.5t31.5 46.5t46.5 31.5t56.5 11.5t56.5 -11.5t46 -31.5t31 -46.5t11.5 -56.5z" />
    <glyph glyph-name="gcommaaccent" unicode="&#x123;" horiz-adv-x="1445" 
d="M1304 139q0 -138 -41 -260t-119 -213.5t-191.5 -145t-258.5 -53.5q-80 0 -161.5 18t-154 55.5t-130 95t-90.5 135.5l146 55q19 -49 49.5 -90t70.5 -70.5t88 -46t101 -16.5q100 0 167.5 41t108.5 107t59 149.5t18 169.5v68q-60 -82 -144.5 -121.5t-185.5 -39.5
q-132 0 -236 47t-176 128.5t-110 191.5t-38 236t38 236t110 191.5t176 128.5t236 47q67 0 127.5 -20t111 -56.5t89 -88t60.5 -114.5l150 251h130v-1016zM964 580q0 45 -4.5 95t-15.5 99t-30.5 93.5t-50 79t-73.5 54.5t-100 20t-99 -20.5t-72 -55t-49.5 -79.5t-30.5 -94
t-15.5 -98.5t-4.5 -93.5t4.5 -94t15.5 -99t30.5 -94t49.5 -79.5t72 -55t99 -20.5q52 0 92.5 21.5t71 57.5t51.5 82t34 95t19 97.5t6 88.5zM797 1428q0 -30 -11.5 -56.5t-31.5 -46.5t-46.5 -31.5t-56.5 -11.5t-56.5 11.5t-46 31t-31 46.5t-11.5 57q0 36 9.5 74.5t27 75
t40.5 69t50 56.5l115 -60q-17 -14 -34 -34t-20 -42q46 -14 74.5 -52.5t28.5 -86.5z" />
    <glyph glyph-name="Hcircumflex" unicode="&#x124;" horiz-adv-x="1646" 
d="M560 0h-397v1440h397v-629h526v629h397v-1440h-397v628h-526v-628zM1086 1538h-250l-65 138l-66 -138h-146l193 355h135z" />
    <glyph glyph-name="hcircumflex" unicode="&#x125;" 
d="M1322 662q0 -117 -28.5 -244t-79.5 -249t-122 -229.5t-156 -185.5l-127 69q27 50 51 112t43.5 131.5t35 143.5t26 146.5t16 141t5.5 127.5q0 39 -3 83.5t-12.5 89t-25.5 85.5t-42.5 72t-64 50t-88.5 19q-50 0 -89 -22.5t-69 -59t-51.5 -83.5t-35 -96.5t-19.5 -97.5
t-6 -86v-579h-339v1580h338v-595q65 95 159.5 146.5t209.5 51.5q120 0 209 -39t148 -108.5t88 -165t29 -208.5zM1126 1295h-250l-65 138l-66 -138h-146l193 355h135z" />
    <glyph glyph-name="Hbar" unicode="&#x126;" horiz-adv-x="1646" 
d="M560 0h-397v936h-101v198h101v306h397v-306h526v306h397v-306h101v-198h-101v-936h-397v628h-526v-628zM1086 811v125h-526v-125h526z" />
    <glyph glyph-name="hbar" unicode="&#x127;" 
d="M585 1242h-106v-257q65 95 159.5 146.5t209.5 51.5q120 0 209 -39t148 -108.5t88 -165t29 -208.5q0 -117 -28.5 -244t-79.5 -249t-122 -229.5t-156 -185.5l-127 69q27 50 51 112t43.5 131.5t35 143.5t26 146.5t16 141t5.5 127.5q0 39 -3 83.5t-12.5 89t-25.5 85.5
t-42.5 72t-64 50t-88.5 19q-50 0 -89 -22.5t-69 -59t-51.5 -83.5t-35 -96.5t-19.5 -97.5t-6 -86v-579h-339v1242h-101v198h101v140h338v-140h106v-198z" />
    <glyph glyph-name="Itilde" unicode="&#x128;" horiz-adv-x="723" 
d="M560 0h-397v1440h397v-1440zM752 1853q-4 -50 -19 -105t-43.5 -101.5t-71.5 -77t-102 -30.5t-106.5 15t-86 33.5t-70 33.5t-59.5 15q-18 0 -30 -9.5t-20 -24t-11.5 -31.5t-3.5 -32h-155q2 52 17 107.5t44 101.5t73 75.5t105 29.5q54 0 101.5 -15t87 -32.5t71 -32.5
t54.5 -15q17 0 29.5 9.5t20 23.5t11.5 31t4 31h160z" />
    <glyph glyph-name="itilde" unicode="&#x129;" horiz-adv-x="623" 
d="M481 0h-339v1154h339v-1154zM702 1571q-4 -50 -19 -105t-43.5 -101.5t-71.5 -77t-102 -30.5t-106.5 15t-86 33.5t-70 33.5t-59.5 15q-18 0 -30 -9.5t-20 -24t-11.5 -31.5t-3.5 -32h-155q2 52 17 107.5t44 101.5t73 75.5t105 29.5q54 0 101.5 -15t87 -32.5t71 -32.5
t54.5 -15q17 0 29.5 9.5t20 23.5t11.5 31t4 31h160z" />
    <glyph glyph-name="Imacron" unicode="&#x12a;" horiz-adv-x="723" 
d="M560 0h-397v1440h397v-1440zM634 1537h-545v198h545v-198z" />
    <glyph glyph-name="imacron" unicode="&#x12b;" horiz-adv-x="623" 
d="M481 0h-339v1154h339v-1154zM584 1255h-545v198h545v-198z" />
    <glyph glyph-name="Ibreve" unicode="&#x12c;" horiz-adv-x="723" 
d="M560 0h-397v1440h397v-1440zM612 1787q-4 -53 -24 -98.5t-53 -79.5t-78 -53.5t-99 -19.5t-98 20t-76 54.5t-51 80t-23 96.5h145q0 -11 5.5 -30t17.5 -37t31.5 -31.5t48.5 -13.5q31 0 51.5 13.5t33.5 31.5t18.5 37t6.5 30h144z" />
    <glyph glyph-name="ibreve" unicode="&#x12d;" horiz-adv-x="623" 
d="M481 0h-339v1154h339v-1154zM562 1508q-4 -53 -24 -98.5t-53 -79.5t-78 -53.5t-99 -19.5t-98 20t-76 54.5t-51 80t-23 96.5h145q0 -11 5.5 -30t17.5 -37t31.5 -31.5t48.5 -13.5q31 0 51.5 13.5t33.5 31.5t18.5 37t6.5 30h144z" />
    <glyph glyph-name="Iogonek" unicode="&#x12e;" horiz-adv-x="723" 
d="M570 -223q0 -40 -15 -75t-41 -61.5t-61 -42t-75 -15.5q-51 0 -93.5 15.5t-74 45t-49 71t-17.5 93.5q0 28 10 55t27 51.5t39.5 46t47.5 39.5h-105v1440h397v-1440h-155q-20 -20 -38.5 -42.5t-32.5 -47.5t-22.5 -51t-8.5 -51q0 -39 18.5 -64t60.5 -25q25 0 49.5 14.5
t25.5 43.5h113z" />
    <glyph glyph-name="iogonek" unicode="&#x12f;" horiz-adv-x="623" 
d="M524 -223q0 -40 -15 -75t-41 -61.5t-61 -42t-75 -15.5q-51 0 -93.5 15.5t-74 45t-49 71t-17.5 93.5q0 28 10 55t27 51.5t39.5 46t47.5 39.5h-80v1154h339v-1154h-122q-20 -20 -38.5 -42.5t-32.5 -47.5t-22.5 -51t-8.5 -51q0 -39 18.5 -64t60.5 -25q25 0 49.5 14.5
t25.5 43.5h113zM496 1434q0 -38 -14.5 -72t-39.5 -59t-59 -39.5t-72 -14.5t-71.5 14.5t-58.5 39.5t-39.5 59t-14.5 72t14.5 71.5t39.5 58.5t58.5 39.5t71.5 14.5t72 -14.5t59 -39.5t39.5 -58.5t14.5 -71.5z" />
    <glyph glyph-name="Idotaccent" unicode="&#x130;" horiz-adv-x="723" 
d="M560 0h-397v1440h397v-1440zM509 1687q0 -30 -11.5 -57t-31.5 -47t-47 -31.5t-57 -11.5q-31 0 -58 11.5t-47 31.5t-31.5 47t-11.5 57t11.5 57t31.5 47t47 31.5t58 11.5q30 0 57 -11.5t47 -31.5t31.5 -47t11.5 -57z" />
    <glyph glyph-name="dotlessi" unicode="&#x131;" horiz-adv-x="623" 
d="M481 0h-339v1154h339v-1154z" />
    <glyph glyph-name="IJ" unicode="&#x132;" horiz-adv-x="1444" 
d="M560 0h-397v1440h397v-1440zM1288 452q0 -139 -35.5 -282.5t-99 -278t-152.5 -251.5t-196 -204l-154 93q60 82 105 186t75 216t45 225t15 215v1069h397v-988z" />
    <glyph glyph-name="ij" unicode="&#x133;" horiz-adv-x="1243" 
d="M496 1434q0 -38 -14.5 -72t-39.5 -59t-59 -39.5t-72 -14.5t-71.5 14.5t-58.5 39.5t-39.5 59t-14.5 72t14.5 71.5t39.5 58.5t58.5 39.5t71.5 14.5t72 -14.5t59 -39.5t39.5 -58.5t14.5 -71.5zM481 0h-339v1154h339v-1154zM1121 1434q0 -38 -14.5 -72t-39.5 -59t-58.5 -39.5
t-71.5 -14.5t-72 14.5t-59 39.5t-39.5 59t-14.5 72t14.5 71.5t39.5 58.5t59 39.5t72 14.5t71.5 -14.5t58.5 -39.5t39.5 -58.5t14.5 -71.5zM1106 334q0 -119 -30 -241.5t-84.5 -237t-130 -215t-166.5 -173.5l-132 80q51 70 89 158.5t63.5 183.5t38.5 191.5t13 183.5v891h339
v-821z" />
    <glyph glyph-name="Jcircumflex" unicode="&#x134;" horiz-adv-x="721" 
d="M565 452q0 -139 -35.5 -282.5t-99 -278t-152.5 -251.5t-196 -204l-154 93q60 82 105 186t75 216t45 225t15 215v1069h397v-988zM624 1538h-250l-65 138l-66 -138h-146l193 355h135z" />
    <glyph glyph-name="jcircumflex" unicode="&#x135;" horiz-adv-x="620" 
d="M483 334q0 -119 -30 -241.5t-84.5 -237t-130 -215t-166.5 -173.5l-132 80q51 70 89 158.5t63.5 183.5t38.5 191.5t13 183.5v891h339v-821zM573 1254h-250l-65 138l-66 -138h-146l193 355h135z" />
    <glyph glyph-name="Kcommaaccent" unicode="&#x136;" horiz-adv-x="1480" 
d="M560 0h-397v1440h397v-686q184 141 343.5 313t274.5 374h271q-106 -181 -243 -338t-298 -291l575 -812h-414l-433 612q-19 -13 -37.5 -25t-38.5 -24v-563zM880 -258q0 -37 -9.5 -75.5t-27 -74.5t-40.5 -68.5t-50 -57.5l-115 61q17 13 34 33.5t20 41.5q-46 14 -74.5 53
t-28.5 87q0 30 11.5 56.5t31.5 46.5t46.5 31.5t56.5 11.5t56.5 -11.5t46 -31.5t31 -46.5t11.5 -56.5z" />
    <glyph glyph-name="kcommaaccent" unicode="&#x137;" horiz-adv-x="1309" 
d="M479 0h-338v1580h338v-1037q83 60 163.5 132t153.5 151.5t135.5 162.5t109.5 166h230q-70 -118 -166 -235.5t-209 -224.5l379 -695h-373l-269 482q-75 -51 -154 -94v-388zM800 -258q0 -37 -9.5 -75.5t-27 -74.5t-40.5 -68.5t-50 -57.5l-115 61q17 13 34 33.5t20 41.5
q-46 14 -74.5 53t-28.5 87q0 30 11.5 56.5t31.5 46.5t46.5 31.5t56.5 11.5t56.5 -11.5t46 -31.5t31 -46.5t11.5 -56.5z" />
    <glyph glyph-name="kgreenlandic" unicode="&#x138;" horiz-adv-x="1309" 
d="M479 0h-338v1156h338v-613q83 60 163.5 132t153.5 151.5t135.5 162.5t109.5 166h230q-70 -118 -166 -235.5t-209 -224.5l379 -695h-373l-269 482q-75 -51 -154 -94v-388z" />
    <glyph glyph-name="Lacute" unicode="&#x139;" horiz-adv-x="1221" 
d="M1197 0h-1034v1440h397v-1257h637v-183zM780 1894l-317 -354h-199l198 354h318z" />
    <glyph glyph-name="lacute" unicode="&#x13a;" horiz-adv-x="620" 
d="M479 0h-338v1687h130l208 -351v-1336zM716 2141l-317 -354h-199l198 354h318z" />
    <glyph glyph-name="Lcommaaccent" unicode="&#x13b;" horiz-adv-x="1221" 
d="M1197 0h-1034v1440h397v-1257h637v-183zM790 -258q0 -37 -9.5 -75.5t-27 -74.5t-40.5 -68.5t-50 -57.5l-115 61q17 13 34 33.5t20 41.5q-46 14 -74.5 53t-28.5 87q0 30 11.5 56.5t31.5 46.5t46.5 31.5t56.5 11.5t56.5 -11.5t46 -31.5t31 -46.5t11.5 -56.5z" />
    <glyph glyph-name="lcommaaccent" unicode="&#x13c;" horiz-adv-x="620" 
d="M479 0h-338v1687h130l208 -351v-1336zM458 -258q0 -37 -9.5 -75.5t-27 -74.5t-40.5 -68.5t-50 -57.5l-115 61q17 13 34 33.5t20 41.5q-46 14 -74.5 53t-28.5 87q0 30 11.5 56.5t31.5 46.5t46.5 31.5t56.5 11.5t56.5 -11.5t46 -31.5t31 -46.5t11.5 -56.5z" />
    <glyph glyph-name="Lcaron" unicode="&#x13d;" horiz-adv-x="1221" 
d="M1197 0h-1034v1440h397v-1257h637v-183zM1063 1284q0 -46 -12 -94t-33.5 -93t-50.5 -85.5t-63 -71.5l-144 76q21 16 42.5 42t25.5 52q-29 9 -52.5 26t-40.5 40t-26.5 50.5t-9.5 57.5q0 37 14.5 70.5t39 58t57.5 39t71 14.5t71 -14t58 -39t39 -58t14 -71z" />
    <glyph glyph-name="lcaron" unicode="&#x13e;" horiz-adv-x="997" 
d="M479 0h-338v1687h130l208 -351v-1336zM973 1284q0 -46 -12 -94t-33.5 -93t-50.5 -85.5t-63 -71.5l-144 76q21 16 42.5 42t25.5 52q-29 9 -52.5 26t-40.5 40t-26.5 50.5t-9.5 57.5q0 37 14.5 70.5t39 58t57.5 39t71 14.5t71 -14t58 -39t39 -58t14 -71z" />
    <glyph glyph-name="Ldot" unicode="&#x13f;" horiz-adv-x="1221" 
d="M1197 0h-1034v1440h397v-1257h637v-183zM1080 702q0 -38 -14.5 -71t-39 -57.5t-58 -39t-70.5 -14.5q-38 0 -71.5 14.5t-58 39t-39 57.5t-14.5 71t14.5 71.5t39 58t58 39t71.5 14.5q37 0 70.5 -14.5t58 -39t39 -58t14.5 -71.5z" />
    <glyph glyph-name="ldotaccent" unicode="&#x140;" horiz-adv-x="1007" 
d="M479 0h-338v1687h130l208 -351v-1336zM983 702q0 -38 -14.5 -71t-39 -57.5t-58 -39t-70.5 -14.5q-38 0 -71.5 14.5t-58 39t-39 57.5t-14.5 71t14.5 71.5t39 58t58 39t71.5 14.5q37 0 70.5 -14.5t58 -39t39 -58t14.5 -71.5z" />
    <glyph glyph-name="Lslash" unicode="&#x141;" horiz-adv-x="1295" 
d="M874 819l-240 -129v-507h637v-183h-1034v476l-199 -107v214l199 107v750h397v-536l240 129v-214z" />
    <glyph glyph-name="lslash" unicode="&#x142;" horiz-adv-x="825" 
d="M797 819l-218 -130v-689h-339v488l-199 -119v214l199 119v985h130l209 -351v-433l218 130v-214z" />
    <glyph glyph-name="Nacute" unicode="&#x143;" horiz-adv-x="1642" 
d="M347 0h-184v1440h258l875 -989v989h183v-1440h-258l-874 988v-988zM1241 1740l-317 -354h-199l198 354h318z" />
    <glyph glyph-name="nacute" unicode="&#x144;" 
d="M1322 662q0 -117 -28.5 -244t-79.5 -249t-122 -229.5t-156 -185.5l-127 69q27 50 51 112t43.5 131.5t35 143.5t26 146.5t16 141t5.5 127.5q0 39 -3 83.5t-12.5 89t-25.5 85.5t-42.5 72t-64 50t-88.5 19q-50 0 -89 -22.5t-69 -59t-51.5 -83.5t-35 -96.5t-19.5 -97.5
t-6 -86v-579h-339v1155h130l155 -269q28 67 70 122t95 94t117.5 60t139.5 21q120 0 209 -39t148 -108.5t88 -165t29 -208.5zM1112 1649l-317 -354h-199l198 354h318z" />
    <glyph glyph-name="Ncommaaccent" unicode="&#x145;" horiz-adv-x="1642" 
d="M347 0h-184v1440h258l875 -989v989h183v-1440h-258l-874 988v-988zM950 -258q0 -37 -9.5 -75.5t-27 -74.5t-40.5 -68.5t-50 -57.5l-115 61q17 13 34 33.5t20 41.5q-46 14 -74.5 53t-28.5 87q0 30 11.5 56.5t31.5 46.5t46.5 31.5t56.5 11.5t56.5 -11.5t46 -31.5t31 -46.5
t11.5 -56.5z" />
    <glyph glyph-name="ncommaaccent" unicode="&#x146;" 
d="M1322 662q0 -117 -28.5 -244t-79.5 -249t-122 -229.5t-156 -185.5l-127 69q27 50 51 112t43.5 131.5t35 143.5t26 146.5t16 141t5.5 127.5q0 39 -3 83.5t-12.5 89t-25.5 85.5t-42.5 72t-64 50t-88.5 19q-50 0 -89 -22.5t-69 -59t-51.5 -83.5t-35 -96.5t-19.5 -97.5
t-6 -86v-579h-339v1155h130l155 -269q28 67 70 122t95 94t117.5 60t139.5 21q120 0 209 -39t148 -108.5t88 -165t29 -208.5zM770 -258q0 -37 -9.5 -75.5t-27 -74.5t-40.5 -68.5t-50 -57.5l-115 61q17 13 34 33.5t20 41.5q-46 14 -74.5 53t-28.5 87q0 30 11.5 56.5t31.5 46.5
t46.5 31.5t56.5 11.5t56.5 -11.5t46 -31.5t31 -46.5t11.5 -56.5z" />
    <glyph glyph-name="Ncaron" unicode="&#x147;" horiz-adv-x="1642" 
d="M347 0h-184v1440h258l875 -989v989h183v-1440h-258l-874 988v-988zM1118 1740l-199 -354h-165l-193 354h246l66 -137l65 137h180z" />
    <glyph glyph-name="ncaron" unicode="&#x148;" 
d="M1322 662q0 -117 -28.5 -244t-79.5 -249t-122 -229.5t-156 -185.5l-127 69q27 50 51 112t43.5 131.5t35 143.5t26 146.5t16 141t5.5 127.5q0 39 -3 83.5t-12.5 89t-25.5 85.5t-42.5 72t-64 50t-88.5 19q-50 0 -89 -22.5t-69 -59t-51.5 -83.5t-35 -96.5t-19.5 -97.5
t-6 -86v-579h-339v1155h130l155 -269q28 67 70 122t95 94t117.5 60t139.5 21q120 0 209 -39t148 -108.5t88 -165t29 -208.5zM980 1629l-199 -354h-165l-193 354h246l66 -137l65 137h180z" />
    <glyph glyph-name="napostrophe" unicode="&#x149;" horiz-adv-x="1800" 
d="M1718 662q0 -117 -28.5 -244t-79.5 -249t-122 -229.5t-156 -185.5l-127 69q27 50 51 112t43.5 131.5t35 143.5t26 146.5t16 141t5.5 127.5q0 39 -3 83.5t-12.5 89t-25.5 85.5t-42.5 72t-64 50t-88.5 19q-50 0 -89 -22.5t-69 -59t-51.5 -83.5t-35 -96.5t-19.5 -97.5
t-6 -86v-579h-339v1155h130l155 -269q28 67 70 122t95 94t117.5 60t139.5 21q120 0 209 -39t148 -108.5t88 -165t29 -208.5zM438 1284q0 -46 -12 -94t-33.5 -93t-50.5 -85.5t-63 -71.5l-144 76q21 16 42.5 42t25.5 52q-29 9 -52.5 26t-40.5 40t-26.5 50.5t-9.5 57.5
q0 37 14.5 70.5t39 58t57.5 39t71 14.5t71 -14t58 -39t39 -58t14 -71z" />
    <glyph glyph-name="Eng" unicode="&#x14a;" horiz-adv-x="1642" 
d="M347 0h-184v1440h258l875 -989v989h183v-1030q0 -139 -35.5 -282.5t-99 -278t-152.5 -251.5t-196 -204l-154 93q48 67 86.5 148t67.5 169.5t48.5 181t28.5 181.5l-726 821v-988z" />
    <glyph glyph-name="eng" unicode="&#x14b;" 
d="M1322 562q1 -167 -27 -335t-80.5 -322t-129 -285.5t-173.5 -225.5l-132 80q38 59 68.5 131.5t53 152t38 163t25.5 162.5t14.5 151t4.5 130q1 156 -7 279t-32.5 207.5t-71 129t-123.5 44.5q-50 0 -89 -22.5t-69 -59t-51.5 -83.5t-35 -96.5t-19.5 -97.5t-6 -86v-579h-339
v1155h130l155 -269q28 67 70 122t95 94t117.5 60t139.5 21q239 0 355.5 -155.5t118.5 -465.5z" />
    <glyph glyph-name="Omacron" unicode="&#x14c;" horiz-adv-x="1750" 
d="M1666 722q0 -174 -60 -313.5t-166 -236.5t-251 -149t-314 -52t-314 52t-251 149t-166 236.5t-60 313.5q0 177 59.5 316.5t165 236t250.5 148t316 51.5t316 -51.5t250.5 -148t165 -236t59.5 -316.5zM1262 722q0 66 -6 135t-22 134t-43.5 122t-70.5 99.5t-103.5 67
t-141.5 24.5q-82 0 -143 -24.5t-104 -66.5t-70 -99t-42.5 -121.5t-21.5 -134t-6 -136.5q0 -66 6 -135t22 -133.5t43.5 -121.5t70.5 -99.5t103.5 -67.5t141.5 -25q79 0 138 25.5t102 69t71.5 101t45 122t23.5 132.5t7 132zM1147 1583h-545v198h545v-198z" />
    <glyph glyph-name="omacron" unicode="&#x14d;" horiz-adv-x="1433" 
d="M1361 580q0 -90 -24 -169t-66.5 -146t-102.5 -120.5t-131.5 -90.5t-153 -57t-167.5 -20t-167 20t-152.5 57t-131.5 90.5t-102.5 120.5t-66.5 146.5t-24 168.5t24 168.5t66.5 146.5t102.5 120.5t131.5 90.5t152.5 57t167 20t167.5 -20t153 -57t131.5 -90.5t102.5 -120.5
t66.5 -146.5t24 -168.5zM1017 580q0 48 -5.5 101.5t-18.5 105t-35.5 99t-55.5 83t-79 57t-107 21.5q-58 0 -103 -22t-78.5 -58.5t-56 -84.5t-36.5 -99.5t-20 -104t-6 -98.5t6 -98.5t20 -104.5t36.5 -99.5t56 -84t78.5 -58.5t103 -22q60 0 106 21.5t79.5 57.5t55.5 83
t35.5 99t19 105t5.5 101zM989 1283h-545v198h545v-198z" />
    <glyph glyph-name="Obreve" unicode="&#x14e;" horiz-adv-x="1750" 
d="M1666 722q0 -174 -60 -313.5t-166 -236.5t-251 -149t-314 -52t-314 52t-251 149t-166 236.5t-60 313.5q0 177 59.5 316.5t165 236t250.5 148t316 51.5t316 -51.5t250.5 -148t165 -236t59.5 -316.5zM1262 722q0 66 -6 135t-22 134t-43.5 122t-70.5 99.5t-103.5 67
t-141.5 24.5q-82 0 -143 -24.5t-104 -66.5t-70 -99t-42.5 -121.5t-21.5 -134t-6 -136.5q0 -66 6 -135t22 -133.5t43.5 -121.5t70.5 -99.5t103.5 -67.5t141.5 -25q79 0 138 25.5t102 69t71.5 101t45 122t23.5 132.5t7 132zM1126 1834q-4 -53 -24 -98.5t-53 -79.5t-78 -53.5
t-99 -19.5t-98 20t-76 54.5t-51 80t-23 96.5h145q0 -11 5.5 -30t17.5 -37t31.5 -31.5t48.5 -13.5q31 0 51.5 13.5t33.5 31.5t18.5 37t6.5 30h144z" />
    <glyph glyph-name="obreve" unicode="&#x14f;" horiz-adv-x="1433" 
d="M1361 580q0 -90 -24 -169t-66.5 -146t-102.5 -120.5t-131.5 -90.5t-153 -57t-167.5 -20t-167 20t-152.5 57t-131.5 90.5t-102.5 120.5t-66.5 146.5t-24 168.5t24 168.5t66.5 146.5t102.5 120.5t131.5 90.5t152.5 57t167 20t167.5 -20t153 -57t131.5 -90.5t102.5 -120.5
t66.5 -146.5t24 -168.5zM1017 580q0 48 -5.5 101.5t-18.5 105t-35.5 99t-55.5 83t-79 57t-107 21.5q-58 0 -103 -22t-78.5 -58.5t-56 -84.5t-36.5 -99.5t-20 -104t-6 -98.5t6 -98.5t20 -104.5t36.5 -99.5t56 -84t78.5 -58.5t103 -22q60 0 106 21.5t79.5 57.5t55.5 83
t35.5 99t19 105t5.5 101zM967 1537q-4 -53 -24 -98.5t-53 -79.5t-78 -53.5t-99 -19.5t-98 20t-76 54.5t-51 80t-23 96.5h145q0 -11 5.5 -30t17.5 -37t31.5 -31.5t48.5 -13.5q31 0 51.5 13.5t33.5 31.5t18.5 37t6.5 30h144z" />
    <glyph glyph-name="Ohungarumlaut" unicode="&#x150;" horiz-adv-x="1750" 
d="M1666 722q0 -174 -60 -313.5t-166 -236.5t-251 -149t-314 -52t-314 52t-251 149t-166 236.5t-60 313.5q0 177 59.5 316.5t165 236t250.5 148t316 51.5t316 -51.5t250.5 -148t165 -236t59.5 -316.5zM1262 722q0 66 -6 135t-22 134t-43.5 122t-70.5 99.5t-103.5 67
t-141.5 24.5q-82 0 -143 -24.5t-104 -66.5t-70 -99t-42.5 -121.5t-21.5 -134t-6 -136.5q0 -66 6 -135t22 -133.5t43.5 -121.5t70.5 -99.5t103.5 -67.5t141.5 -25q79 0 138 25.5t102 69t71.5 101t45 122t23.5 132.5t7 132zM1483 1931l-316 -354h-200l199 354h317zM1114 1931
l-316 -354h-200l199 354h317z" />
    <glyph glyph-name="ohungarumlaut" unicode="&#x151;" horiz-adv-x="1433" 
d="M1361 580q0 -90 -24 -169t-66.5 -146t-102.5 -120.5t-131.5 -90.5t-153 -57t-167.5 -20t-167 20t-152.5 57t-131.5 90.5t-102.5 120.5t-66.5 146.5t-24 168.5t24 168.5t66.5 146.5t102.5 120.5t131.5 90.5t152.5 57t167 20t167.5 -20t153 -57t131.5 -90.5t102.5 -120.5
t66.5 -146.5t24 -168.5zM1017 580q0 48 -5.5 101.5t-18.5 105t-35.5 99t-55.5 83t-79 57t-107 21.5q-58 0 -103 -22t-78.5 -58.5t-56 -84.5t-36.5 -99.5t-20 -104t-6 -98.5t6 -98.5t20 -104.5t36.5 -99.5t56 -84t78.5 -58.5t103 -22q60 0 106 21.5t79.5 57.5t55.5 83
t35.5 99t19 105t5.5 101zM1311 1637l-316 -354h-200l199 354h317zM942 1637l-316 -354h-200l199 354h317z" />
    <glyph glyph-name="OE" unicode="&#x152;" horiz-adv-x="2387" 
d="M1262 722q0 66 -6 135t-22 134t-43.5 122t-70.5 99.5t-103.5 67t-141.5 24.5q-82 0 -143 -24.5t-104 -66.5t-70 -99t-42.5 -121.5t-21.5 -134t-6 -136.5q0 -66 6 -135t22 -133.5t43.5 -121.5t70.5 -99.5t103.5 -67.5t141.5 -25q79 0 138 25.5t102 69t71.5 101t45 122
t23.5 132.5t7 132zM2304 0h-1034v107q-35 -40 -80.5 -66.5t-97 -42t-107 -21.5t-110.5 -6q-169 0 -314 52t-251 149t-166 236.5t-60 313.5q0 177 59.5 316.5t165 236t250.5 148t316 51.5q55 0 112 -10.5t109.5 -28.5t97.5 -42.5t76 -52.5v100h1034v-184h-637v-445h492v-183
h-492v-444h637v-184z" />
    <glyph glyph-name="oe" unicode="&#x153;" horiz-adv-x="2265" 
d="M1017 580q0 48 -5.5 101.5t-18.5 105t-35.5 99t-55.5 83t-79 57t-107 21.5q-58 0 -103 -22t-78.5 -58.5t-56 -84.5t-36.5 -99.5t-20 -104t-6 -98.5t6 -98.5t20 -104.5t36.5 -99.5t56 -84t78.5 -58.5t103 -22q60 0 106 21.5t79.5 57.5t55.5 83t35.5 99t19 105t5.5 101z
M1361 548q63 -14 125 -22t125 -8q66 0 122.5 12.5t98 42t65.5 78.5t24 122q0 59 -16 108t-47.5 84t-78 54.5t-107.5 19.5q-57 0 -102 -21t-80 -56.5t-59 -82.5t-40 -98t-23 -103t-7 -98v-32zM2195 776q0 -71 -23 -126.5t-62.5 -97.5t-92 -71t-111.5 -47.5t-121.5 -26.5
t-121.5 -8q-74 0 -147 10.5t-144 33.5q11 -66 35 -125.5t64 -104t98 -70.5t138 -26q53 0 101 16t88 45t71 69t49 89l147 -54q-33 -79 -91 -136.5t-130 -95t-153.5 -55.5t-162.5 -18q-137 0 -250.5 47t-195.5 132q-90 -85 -209.5 -132t-254.5 -47q-86 0 -167 20t-152.5 57
t-131.5 90.5t-102.5 120.5t-66.5 146.5t-24 168.5t24 168.5t66.5 146.5t102.5 120.5t131.5 90.5t152.5 57t167 20q135 0 254.5 -47t209.5 -132q82 85 195.5 132t250.5 47q64 0 131.5 -9t130.5 -28.5t119 -50.5t97.5 -76.5t66 -105.5t24.5 -137z" />
    <glyph glyph-name="Racute" unicode="&#x154;" horiz-adv-x="1478" 
d="M560 0h-397v1440h708q100 0 193 -23.5t164.5 -74t114 -130.5t42.5 -194q0 -89 -37.5 -167.5t-100 -140t-143.5 -102t-168 -53.5q39 -66 81.5 -125t86 -110.5t86.5 -95t82 -79.5q92 -84 182 -145h-495q-60 57 -114 137q-46 68 -92.5 168.5t-71.5 232.5h-121v-538z
M982 1018q0 145 -70.5 213t-211.5 68h-140v-625h140q75 0 128.5 28.5t87.5 76t50 109.5t16 130zM1085 1894l-317 -354h-199l198 354h318z" />
    <glyph glyph-name="racute" unicode="&#x155;" horiz-adv-x="1123" 
d="M1123 1053l-190 -315q-12 40 -31 90t-47 93.5t-67 73t-90 29.5q-47 0 -81.5 -24t-58.5 -62.5t-39.5 -87t-24 -98t-11.5 -95t-3 -78.5v-579h-339v1155h130l137 -269q28 65 64 119.5t83 94t106.5 61.5t134.5 22q39 0 87 -6.5t94 -22t85 -40.5t61 -61zM981 1620l-317 -354
h-199l198 354h318z" />
    <glyph glyph-name="Rcommaaccent" unicode="&#x156;" horiz-adv-x="1478" 
d="M560 0h-397v1440h708q100 0 193 -23.5t164.5 -74t114 -130.5t42.5 -194q0 -89 -37.5 -167.5t-100 -140t-143.5 -102t-168 -53.5q39 -66 81.5 -125t86 -110.5t86.5 -95t82 -79.5q92 -84 182 -145h-495q-60 57 -114 137q-46 68 -92.5 168.5t-71.5 232.5h-121v-538z
M982 1018q0 145 -70.5 213t-211.5 68h-140v-625h140q75 0 128.5 28.5t87.5 76t50 109.5t16 130zM830 -258q0 -37 -9.5 -75.5t-27 -74.5t-40.5 -68.5t-50 -57.5l-115 61q17 13 34 33.5t20 41.5q-46 14 -74.5 53t-28.5 87q0 30 11.5 56.5t31.5 46.5t46.5 31.5t56.5 11.5
t56.5 -11.5t46 -31.5t31 -46.5t11.5 -56.5z" />
    <glyph glyph-name="rcommaaccent" unicode="&#x157;" horiz-adv-x="1123" 
d="M1123 1053l-190 -315q-12 40 -31 90t-47 93.5t-67 73t-90 29.5q-47 0 -81.5 -24t-58.5 -62.5t-39.5 -87t-24 -98t-11.5 -95t-3 -78.5v-579h-339v1155h130l137 -269q28 65 64 119.5t83 94t106.5 61.5t134.5 22q39 0 87 -6.5t94 -22t85 -40.5t61 -61zM450 -258
q0 -37 -9.5 -75.5t-27 -74.5t-40.5 -68.5t-50 -57.5l-115 61q17 13 34 33.5t20 41.5q-46 14 -74.5 53t-28.5 87q0 30 11.5 56.5t31.5 46.5t46.5 31.5t56.5 11.5t56.5 -11.5t46 -31.5t31 -46.5t11.5 -56.5z" />
    <glyph glyph-name="Rcaron" unicode="&#x158;" horiz-adv-x="1478" 
d="M560 0h-397v1440h708q100 0 193 -23.5t164.5 -74t114 -130.5t42.5 -194q0 -89 -37.5 -167.5t-100 -140t-143.5 -102t-168 -53.5q39 -66 81.5 -125t86 -110.5t86.5 -95t82 -79.5q92 -84 182 -145h-495q-60 57 -114 137q-46 68 -92.5 168.5t-71.5 232.5h-121v-538z
M982 1018q0 145 -70.5 213t-211.5 68h-140v-625h140q75 0 128.5 28.5t87.5 76t50 109.5t16 130zM957 1890l-199 -354h-165l-193 354h246l66 -137l65 137h180z" />
    <glyph glyph-name="rcaron" unicode="&#x159;" horiz-adv-x="1123" 
d="M1123 1053l-190 -315q-12 40 -31 90t-47 93.5t-67 73t-90 29.5q-47 0 -81.5 -24t-58.5 -62.5t-39.5 -87t-24 -98t-11.5 -95t-3 -78.5v-579h-339v1155h130l137 -269q28 65 64 119.5t83 94t106.5 61.5t134.5 22q39 0 87 -6.5t94 -22t85 -40.5t61 -61zM840 1610l-199 -354
h-165l-193 354h246l66 -137l65 137h180z" />
    <glyph glyph-name="Sacute" unicode="&#x15a;" horiz-adv-x="1427" 
d="M1343 440q0 -93 -23.5 -164t-66 -123t-100.5 -87t-126.5 -56t-145 -30t-155.5 -9q-104 0 -192 15.5t-165.5 49t-149 86.5t-142.5 129l204 207q28 -69 77 -127.5t107.5 -100.5t121.5 -66t119 -24q66 0 124 9.5t101 31.5t67.5 58.5t24.5 91.5q0 42 -19 72t-49.5 51.5
t-69.5 36.5t-79.5 25.5t-79.5 19t-69 17.5q-59 17 -123 36.5t-126 44.5t-117.5 57.5t-97.5 77t-67 103t-25 134.5q0 91 22.5 161.5t63.5 122.5t97 87.5t123 57t142.5 31t154.5 9.5q108 0 196.5 -20t163.5 -57t137.5 -88.5t117.5 -114.5l-204 -207q-24 72 -66.5 130
t-94.5 99.5t-109 64t-110 22.5q-69 0 -127 -9.5t-99.5 -31t-64.5 -58t-23 -90.5q0 -43 17 -73t45.5 -51t64.5 -34.5t74.5 -23.5t76 -17.5t68.5 -16.5q60 -17 126 -36t130 -44.5t122 -58.5t102 -78.5t70 -105t26 -136.5zM1119 1927l-317 -354h-199l198 354h318z" />
    <glyph glyph-name="sacute" unicode="&#x15b;" horiz-adv-x="1207" 
d="M1135 369q0 -76 -22 -135t-60 -102.5t-90 -73t-111.5 -47.5t-124.5 -26t-129 -8q-86 0 -152 11t-126 35.5t-119.5 63.5t-132.5 95l197 161q27 -51 71.5 -92.5t92.5 -71.5t93 -46t73 -16q23 0 52 1.5t59 6t59 13.5t51.5 24.5t36 39t13.5 56.5q0 34 -17.5 59.5t-45.5 44.5
t-64 32t-72.5 23t-70.5 17.5t-59 14.5q-46 13 -97 26.5t-101 31t-95.5 41.5t-80 57.5t-55 79t-20.5 106.5q0 112 44.5 187.5t117.5 121t166 64.5t189 19q66 0 139 -13.5t142 -40t129 -64.5t100 -87l-197 -162q-22 60 -57.5 103t-77 70.5t-85 40.5t-80.5 13q-36 0 -81 -3
t-84.5 -17t-67 -42.5t-27.5 -78.5q0 -36 16.5 -61.5t43.5 -44t61.5 -31t70.5 -22t70 -16.5t61 -15q46 -13 97.5 -26.5t101.5 -31t96.5 -41t81.5 -57.5t56 -79.5t21 -107.5zM1002 1637l-317 -354h-199l198 354h318z" />
    <glyph glyph-name="Scircumflex" unicode="&#x15c;" horiz-adv-x="1427" 
d="M1343 440q0 -93 -23.5 -164t-66 -123t-100.5 -87t-126.5 -56t-145 -30t-155.5 -9q-104 0 -192 15.5t-165.5 49t-149 86.5t-142.5 129l204 207q28 -69 77 -127.5t107.5 -100.5t121.5 -66t119 -24q66 0 124 9.5t101 31.5t67.5 58.5t24.5 91.5q0 42 -19 72t-49.5 51.5
t-69.5 36.5t-79.5 25.5t-79.5 19t-69 17.5q-59 17 -123 36.5t-126 44.5t-117.5 57.5t-97.5 77t-67 103t-25 134.5q0 91 22.5 161.5t63.5 122.5t97 87.5t123 57t142.5 31t154.5 9.5q108 0 196.5 -20t163.5 -57t137.5 -88.5t117.5 -114.5l-204 -207q-24 72 -66.5 130
t-94.5 99.5t-109 64t-110 22.5q-69 0 -127 -9.5t-99.5 -31t-64.5 -58t-23 -90.5q0 -43 17 -73t45.5 -51t64.5 -34.5t74.5 -23.5t76 -17.5t68.5 -16.5q60 -17 126 -36t130 -44.5t122 -58.5t102 -78.5t70 -105t26 -136.5zM977 1575h-250l-65 138l-66 -138h-146l193 355h135z
" />
    <glyph glyph-name="scircumflex" unicode="&#x15d;" horiz-adv-x="1207" 
d="M1135 369q0 -76 -22 -135t-60 -102.5t-90 -73t-111.5 -47.5t-124.5 -26t-129 -8q-86 0 -152 11t-126 35.5t-119.5 63.5t-132.5 95l197 161q27 -51 71.5 -92.5t92.5 -71.5t93 -46t73 -16q23 0 52 1.5t59 6t59 13.5t51.5 24.5t36 39t13.5 56.5q0 34 -17.5 59.5t-45.5 44.5
t-64 32t-72.5 23t-70.5 17.5t-59 14.5q-46 13 -97 26.5t-101 31t-95.5 41.5t-80 57.5t-55 79t-20.5 106.5q0 112 44.5 187.5t117.5 121t166 64.5t189 19q66 0 139 -13.5t142 -40t129 -64.5t100 -87l-197 -162q-22 60 -57.5 103t-77 70.5t-85 40.5t-80.5 13q-36 0 -81 -3
t-84.5 -17t-67 -42.5t-27.5 -78.5q0 -36 16.5 -61.5t43.5 -44t61.5 -31t70.5 -22t70 -16.5t61 -15q46 -13 97.5 -26.5t101.5 -31t96.5 -41t81.5 -57.5t56 -79.5t21 -107.5zM867 1285h-250l-65 138l-66 -138h-146l193 355h135z" />
    <glyph glyph-name="Scedilla" unicode="&#x15e;" horiz-adv-x="1427" 
d="M926 -227q0 -53 -18 -92t-49.5 -65.5t-74.5 -39.5t-92 -13q-40 0 -75 15.5t-61 41.5t-41 61.5t-15 75.5h113q1 -29 25.5 -43.5t49.5 -14.5q41 0 59.5 16t18.5 58q0 22 -15.5 34t-37.5 18t-45 7.5t-39 1.5l31 139q-91 4 -169 22t-148 51.5t-135.5 84t-130.5 120.5l204 207
q28 -69 77 -127.5t107.5 -100.5t121.5 -66t119 -24q66 0 124 9.5t101 31.5t67.5 58.5t24.5 91.5q0 42 -19 72t-49.5 51.5t-69.5 36.5t-79.5 25.5t-79.5 19t-69 17.5q-59 17 -123 36.5t-126 44.5t-117.5 57.5t-97.5 77t-67 103t-25 134.5q0 91 22.5 161.5t63.5 122.5t97 87.5
t123 57t142.5 31t154.5 9.5q108 0 196.5 -20t163.5 -57t137.5 -88.5t117.5 -114.5l-204 -207q-24 72 -66.5 130t-94.5 99.5t-109 64t-110 22.5q-69 0 -127 -9.5t-99.5 -31t-64.5 -58t-23 -90.5q0 -43 17 -73t45.5 -51t64.5 -34.5t74.5 -23.5t76 -17.5t68.5 -16.5
q60 -17 126 -36t130 -44.5t122 -58.5t102 -78.5t70 -105t26 -136.5q0 -89 -21.5 -157.5t-60 -119.5t-92 -86.5t-117 -58t-135 -33.5t-146.5 -13l-14 -54q31 0 61.5 -9.5t54.5 -28t38.5 -45.5t14.5 -62z" />
    <glyph glyph-name="scedilla" unicode="&#x15f;" horiz-adv-x="1207" 
d="M816 -227q0 -53 -18 -92t-49.5 -65.5t-74.5 -39.5t-92 -13q-40 0 -75 15.5t-61 41.5t-41 61.5t-15 75.5h113q1 -29 25.5 -43.5t49.5 -14.5q41 0 59.5 16t18.5 58q0 22 -15.5 34t-37.5 18t-45 7.5t-39 1.5l32 144q-74 3 -133.5 15.5t-114.5 37t-111.5 61.5t-123.5 90
l197 161q27 -51 71.5 -92.5t92.5 -71.5t93 -46t73 -16q23 0 52 1.5t59 6t59 13.5t51.5 24.5t36 39t13.5 56.5q0 34 -17.5 59.5t-45.5 44.5t-64 32t-72.5 23t-70.5 17.5t-59 14.5q-46 13 -97 26.5t-101 31t-95.5 41.5t-80 57.5t-55 79t-20.5 106.5q0 112 44.5 187.5
t117.5 121t166 64.5t189 19q66 0 139 -13.5t142 -40t129 -64.5t100 -87l-197 -162q-22 60 -57.5 103t-77 70.5t-85 40.5t-80.5 13q-36 0 -81 -3t-84.5 -17t-67 -42.5t-27.5 -78.5q0 -36 16.5 -61.5t43.5 -44t61.5 -31t70.5 -22t70 -16.5t61 -15q46 -13 97.5 -26.5t101.5 -31
t96.5 -41t81.5 -57.5t56 -79.5t21 -107.5q0 -105 -40.5 -177t-106.5 -117.5t-151 -68t-174 -27.5l-16 -61q31 0 61.5 -9.5t54.5 -28t38.5 -45.5t14.5 -62z" />
    <glyph glyph-name="Scaron" unicode="&#x160;" horiz-adv-x="1427" 
d="M1343 440q0 -93 -23.5 -164t-66 -123t-100.5 -87t-126.5 -56t-145 -30t-155.5 -9q-104 0 -192 15.5t-165.5 49t-149 86.5t-142.5 129l204 207q28 -69 77 -127.5t107.5 -100.5t121.5 -66t119 -24q66 0 124 9.5t101 31.5t67.5 58.5t24.5 91.5q0 42 -19 72t-49.5 51.5
t-69.5 36.5t-79.5 25.5t-79.5 19t-69 17.5q-59 17 -123 36.5t-126 44.5t-117.5 57.5t-97.5 77t-67 103t-25 134.5q0 91 22.5 161.5t63.5 122.5t97 87.5t123 57t142.5 31t154.5 9.5q108 0 196.5 -20t163.5 -57t137.5 -88.5t117.5 -114.5l-204 -207q-24 72 -66.5 130
t-94.5 99.5t-109 64t-110 22.5q-69 0 -127 -9.5t-99.5 -31t-64.5 -58t-23 -90.5q0 -43 17 -73t45.5 -51t64.5 -34.5t74.5 -23.5t76 -17.5t68.5 -16.5q60 -17 126 -36t130 -44.5t122 -58.5t102 -78.5t70 -105t26 -136.5zM989 1931l-199 -354h-165l-193 354h246l66 -137
l65 137h180z" />
    <glyph glyph-name="scaron" unicode="&#x161;" horiz-adv-x="1207" 
d="M1135 369q0 -76 -22 -135t-60 -102.5t-90 -73t-111.5 -47.5t-124.5 -26t-129 -8q-86 0 -152 11t-126 35.5t-119.5 63.5t-132.5 95l197 161q27 -51 71.5 -92.5t92.5 -71.5t93 -46t73 -16q23 0 52 1.5t59 6t59 13.5t51.5 24.5t36 39t13.5 56.5q0 34 -17.5 59.5t-45.5 44.5
t-64 32t-72.5 23t-70.5 17.5t-59 14.5q-46 13 -97 26.5t-101 31t-95.5 41.5t-80 57.5t-55 79t-20.5 106.5q0 112 44.5 187.5t117.5 121t166 64.5t189 19q66 0 139 -13.5t142 -40t129 -64.5t100 -87l-197 -162q-22 60 -57.5 103t-77 70.5t-85 40.5t-80.5 13q-36 0 -81 -3
t-84.5 -17t-67 -42.5t-27.5 -78.5q0 -36 16.5 -61.5t43.5 -44t61.5 -31t70.5 -22t70 -16.5t61 -15q46 -13 97.5 -26.5t101.5 -31t96.5 -41t81.5 -57.5t56 -79.5t21 -107.5zM880 1637l-199 -354h-165l-193 354h246l66 -137l65 137h180z" />
    <glyph glyph-name="Tcommaaccent" unicode="&#x162;" horiz-adv-x="1261" 
d="M829 0h-397v1256h-392v184h1181v-184h-392v-1256zM770 -258q0 -37 -9.5 -75.5t-27 -74.5t-40.5 -68.5t-50 -57.5l-115 61q17 13 34 33.5t20 41.5q-46 14 -74.5 53t-28.5 87q0 30 11.5 56.5t31.5 46.5t46.5 31.5t56.5 11.5t56.5 -11.5t46 -31.5t31 -46.5t11.5 -56.5z" />
    <glyph glyph-name="tcommaaccent" unicode="&#x163;" horiz-adv-x="942" 
d="M576 0h-339v1021h-210v134h210v425h339v-425h350v-134h-350v-1021zM552 -258q0 -37 -9.5 -75.5t-27 -74.5t-40.5 -68.5t-50 -57.5l-115 61q17 13 34 33.5t20 41.5q-46 14 -74.5 53t-28.5 87q0 30 11.5 56.5t31.5 46.5t46.5 31.5t56.5 11.5t56.5 -11.5t46 -31.5t31 -46.5
t11.5 -56.5z" />
    <glyph glyph-name="Tcaron" unicode="&#x164;" horiz-adv-x="1261" 
d="M829 0h-397v1256h-392v184h1181v-184h-392v-1256zM909 1900l-199 -354h-165l-193 354h246l66 -137l65 137h180z" />
    <glyph glyph-name="tcaron" unicode="&#x165;" horiz-adv-x="1490" 
d="M576 0h-339v1021h-210v134h210v425h339v-425h350v-134h-350v-1021zM1397 1284q0 -46 -12 -94t-33.5 -93t-50.5 -85.5t-63 -71.5l-144 76q21 16 42.5 42t25.5 52q-29 9 -52.5 26t-40.5 40t-26.5 50.5t-9.5 57.5q0 37 14.5 70.5t39 58t57.5 39t71 14.5t71 -14t58 -39
t39 -58t14 -71z" />
    <glyph glyph-name="Tbar" unicode="&#x166;" horiz-adv-x="1261" 
d="M829 0h-397v609h-194v198h194v449h-392v184h1181v-184h-392v-449h194v-198h-194v-609z" />
    <glyph glyph-name="tbar" unicode="&#x167;" horiz-adv-x="942" 
d="M576 0h-339v610h-185v198h185v213h-210v134h210v425h339v-425h350v-134h-350v-213h201v-198h-201v-610z" />
    <glyph glyph-name="Utilde" unicode="&#x168;" horiz-adv-x="1630" 
d="M585 1440q-27 -81 -47 -167.5t-33 -173t-19.5 -170.5t-6.5 -159q0 -55 0.5 -123.5t8 -139.5t24.5 -138.5t50.5 -120.5t86 -85t130.5 -32q69 0 118.5 23.5t84 63.5t55 92t32 109t15 115.5t3.5 111.5v794h397v-732q0 -157 -50 -292t-141 -234.5t-220 -156t-286 -56.5
q-108 0 -201 30.5t-170.5 84t-138 127t-101 160.5t-61.5 183.5t-19 195.5v20q1 80 16 165.5t40.5 171.5t61.5 170.5t80 162.5h291zM1204 1853q-4 -50 -19 -105t-43.5 -101.5t-71.5 -77t-102 -30.5t-106.5 15t-86 33.5t-70 33.5t-59.5 15q-18 0 -30 -9.5t-20 -24t-11.5 -31.5
t-3.5 -32h-155q2 52 17 107.5t44 101.5t73 75.5t105 29.5q54 0 101.5 -15t87 -32.5t71 -32.5t54.5 -15q17 0 29.5 9.5t20 23.5t11.5 31t4 31h160z" />
    <glyph glyph-name="utilde" unicode="&#x169;" 
d="M82 494q0 79 13.5 164t39 170t61.5 168t81 159h247q-25 -75 -44.5 -156.5t-33 -163t-21 -159.5t-7.5 -145q0 -39 3.5 -83.5t12.5 -89t25.5 -85.5t42.5 -72.5t63.5 -50t88.5 -18.5q50 0 89.5 22.5t69.5 59t51 83.5t34.5 96.5t20 97t6.5 85.5v579h338v-1155h-130l-155 269
q-29 -67 -70.5 -121.5t-94.5 -93.5t-117.5 -60t-139.5 -21q-120 0 -209 39t-148 108t-88 164.5t-29 209.5zM1091 1568q-4 -50 -19 -105t-43.5 -101.5t-71.5 -77t-102 -30.5t-106.5 15t-86 33.5t-70 33.5t-59.5 15q-18 0 -30 -9.5t-20 -24t-11.5 -31.5t-3.5 -32h-155
q2 52 17 107.5t44 101.5t73 75.5t105 29.5q54 0 101.5 -15t87 -32.5t71 -32.5t54.5 -15q17 0 29.5 9.5t20 23.5t11.5 31t4 31h160z" />
    <glyph glyph-name="Umacron" unicode="&#x16a;" horiz-adv-x="1630" 
d="M585 1440q-27 -81 -47 -167.5t-33 -173t-19.5 -170.5t-6.5 -159q0 -55 0.5 -123.5t8 -139.5t24.5 -138.5t50.5 -120.5t86 -85t130.5 -32q69 0 118.5 23.5t84 63.5t55 92t32 109t15 115.5t3.5 111.5v794h397v-732q0 -157 -50 -292t-141 -234.5t-220 -156t-286 -56.5
q-108 0 -201 30.5t-170.5 84t-138 127t-101 160.5t-61.5 183.5t-19 195.5v20q1 80 16 165.5t40.5 171.5t61.5 170.5t80 162.5h291zM1105 1536h-545v198h545v-198z" />
    <glyph glyph-name="umacron" unicode="&#x16b;" 
d="M82 494q0 79 13.5 164t39 170t61.5 168t81 159h247q-25 -75 -44.5 -156.5t-33 -163t-21 -159.5t-7.5 -145q0 -39 3.5 -83.5t12.5 -89t25.5 -85.5t42.5 -72.5t63.5 -50t88.5 -18.5q50 0 89.5 22.5t69.5 59t51 83.5t34.5 96.5t20 97t6.5 85.5v579h338v-1155h-130l-155 269
q-29 -67 -70.5 -121.5t-94.5 -93.5t-117.5 -60t-139.5 -21q-120 0 -209 39t-148 108t-88 164.5t-29 209.5zM994 1258h-545v198h545v-198z" />
    <glyph glyph-name="Ubreve" unicode="&#x16c;" horiz-adv-x="1630" 
d="M585 1440q-27 -81 -47 -167.5t-33 -173t-19.5 -170.5t-6.5 -159q0 -55 0.5 -123.5t8 -139.5t24.5 -138.5t50.5 -120.5t86 -85t130.5 -32q69 0 118.5 23.5t84 63.5t55 92t32 109t15 115.5t3.5 111.5v794h397v-732q0 -157 -50 -292t-141 -234.5t-220 -156t-286 -56.5
q-108 0 -201 30.5t-170.5 84t-138 127t-101 160.5t-61.5 183.5t-19 195.5v20q1 80 16 165.5t40.5 171.5t61.5 170.5t80 162.5h291zM1066 1741q-4 -53 -24 -98.5t-53 -79.5t-78 -53.5t-99 -19.5t-98 20t-76 54.5t-51 80t-23 96.5h145q0 -11 5.5 -30t17.5 -37t31.5 -31.5
t48.5 -13.5q31 0 51.5 13.5t33.5 31.5t18.5 37t6.5 30h144z" />
    <glyph glyph-name="ubreve" unicode="&#x16d;" 
d="M82 494q0 79 13.5 164t39 170t61.5 168t81 159h247q-25 -75 -44.5 -156.5t-33 -163t-21 -159.5t-7.5 -145q0 -39 3.5 -83.5t12.5 -89t25.5 -85.5t42.5 -72.5t63.5 -50t88.5 -18.5q50 0 89.5 22.5t69.5 59t51 83.5t34.5 96.5t20 97t6.5 85.5v579h338v-1155h-130l-155 269
q-29 -67 -70.5 -121.5t-94.5 -93.5t-117.5 -60t-139.5 -21q-120 0 -209 39t-148 108t-88 164.5t-29 209.5zM953 1456q-4 -53 -24 -98.5t-53 -79.5t-78 -53.5t-99 -19.5t-98 20t-76 54.5t-51 80t-23 96.5h145q0 -11 5.5 -30t17.5 -37t31.5 -31.5t48.5 -13.5q31 0 51.5 13.5
t33.5 31.5t18.5 37t6.5 30h144z" />
    <glyph glyph-name="Uring" unicode="&#x16e;" horiz-adv-x="1630" 
d="M585 1440q-27 -81 -47 -167.5t-33 -173t-19.5 -170.5t-6.5 -159q0 -55 0.5 -123.5t8 -139.5t24.5 -138.5t50.5 -120.5t86 -85t130.5 -32q69 0 118.5 23.5t84 63.5t55 92t32 109t15 115.5t3.5 111.5v794h397v-732q0 -157 -50 -292t-141 -234.5t-220 -156t-286 -56.5
q-108 0 -201 30.5t-170.5 84t-138 127t-101 160.5t-61.5 183.5t-19 195.5v20q1 80 16 165.5t40.5 171.5t61.5 170.5t80 162.5h291zM1041 1713q0 -47 -18 -88.5t-48.5 -72t-72 -48.5t-88.5 -18t-88.5 18t-72 48.5t-48 72t-17.5 88.5t17.5 88.5t48.5 72.5t72 49t88 18
q46 0 87.5 -18t72.5 -49t49 -72.5t18 -88.5zM898 1713q0 34 -25 59t-59 25q-35 0 -58.5 -25t-23.5 -59t23.5 -59t58.5 -25q34 0 59 24.5t25 59.5z" />
    <glyph glyph-name="uring" unicode="&#x16f;" 
d="M82 494q0 79 13.5 164t39 170t61.5 168t81 159h247q-25 -75 -44.5 -156.5t-33 -163t-21 -159.5t-7.5 -145q0 -39 3.5 -83.5t12.5 -89t25.5 -85.5t42.5 -72.5t63.5 -50t88.5 -18.5q50 0 89.5 22.5t69.5 59t51 83.5t34.5 96.5t20 97t6.5 85.5v579h338v-1155h-130l-155 269
q-29 -67 -70.5 -121.5t-94.5 -93.5t-117.5 -60t-139.5 -21q-120 0 -209 39t-148 108t-88 164.5t-29 209.5zM928 1432q0 -47 -18 -88.5t-48.5 -72t-72 -48.5t-88.5 -18t-88.5 18t-72 48.5t-48 72t-17.5 88.5t17.5 88.5t48.5 72.5t72 49t88 18q46 0 87.5 -18t72.5 -49
t49 -72.5t18 -88.5zM785 1432q0 34 -25 59t-59 25q-35 0 -58.5 -25t-23.5 -59t23.5 -59t58.5 -25q34 0 59 24.5t25 59.5z" />
    <glyph glyph-name="Uhungarumlaut" unicode="&#x170;" horiz-adv-x="1630" 
d="M585 1440q-27 -81 -47 -167.5t-33 -173t-19.5 -170.5t-6.5 -159q0 -55 0.5 -123.5t8 -139.5t24.5 -138.5t50.5 -120.5t86 -85t130.5 -32q69 0 118.5 23.5t84 63.5t55 92t32 109t15 115.5t3.5 111.5v794h397v-732q0 -157 -50 -292t-141 -234.5t-220 -156t-286 -56.5
q-108 0 -201 30.5t-170.5 84t-138 127t-101 160.5t-61.5 183.5t-19 195.5v20q1 80 16 165.5t40.5 171.5t61.5 170.5t80 162.5h291zM1419 1894l-316 -354h-200l199 354h317zM1050 1894l-316 -354h-200l199 354h317z" />
    <glyph glyph-name="uhungarumlaut" unicode="&#x171;" 
d="M82 494q0 79 13.5 164t39 170t61.5 168t81 159h247q-25 -75 -44.5 -156.5t-33 -163t-21 -159.5t-7.5 -145q0 -39 3.5 -83.5t12.5 -89t25.5 -85.5t42.5 -72.5t63.5 -50t88.5 -18.5q50 0 89.5 22.5t69.5 59t51 83.5t34.5 96.5t20 97t6.5 85.5v579h338v-1155h-130l-155 269
q-29 -67 -70.5 -121.5t-94.5 -93.5t-117.5 -60t-139.5 -21q-120 0 -209 39t-148 108t-88 164.5t-29 209.5zM1305 1610l-316 -354h-200l199 354h317zM936 1610l-316 -354h-200l199 354h317z" />
    <glyph glyph-name="Uogonek" unicode="&#x172;" horiz-adv-x="1630" 
d="M1033 -223q0 -40 -15 -75t-41 -61.5t-61 -42t-75 -15.5q-51 0 -93.5 15.5t-74 45t-49 71t-17.5 93.5q0 48 26.5 90.5t65.5 76.5q-95 12 -176.5 48.5t-149 91.5t-120 126.5t-88 153.5t-53.5 172.5t-16 182.5v20q1 80 16 165.5t40.5 171.5t61.5 170.5t80 162.5h291
q-27 -81 -47 -167.5t-33 -173t-19.5 -170.5t-6.5 -159q0 -55 0.5 -123.5t8 -139.5t24.5 -138.5t50.5 -120.5t86 -85t130.5 -32q69 0 118.5 23.5t84 63.5t55 92t32 109t15 115.5t3.5 111.5v794h397v-732q0 -150 -46 -280.5t-130 -228.5t-203 -158t-265 -70
q-31 -36 -52.5 -78.5t-21.5 -84.5q0 -39 18.5 -64t60.5 -25q25 0 49.5 14.5t25.5 43.5h113z" />
    <glyph glyph-name="uogonek" unicode="&#x173;" 
d="M82 494q0 79 13.5 164t39 170t61.5 168t81 159h247q-25 -75 -44.5 -156.5t-33 -163t-21 -159.5t-7.5 -145q0 -39 3.5 -83.5t12.5 -89t25.5 -85.5t42.5 -72.5t63.5 -50t88.5 -18.5q50 0 89.5 22.5t69.5 59t51 83.5t34.5 96.5t20 97t6.5 85.5v579h338v-1155
q-21 -20 -39.5 -42.5t-32.5 -47.5t-22.5 -51t-8.5 -51q0 -39 18.5 -64t60.5 -25q25 0 49.5 14.5t25.5 43.5h113q0 -40 -15 -75t-41 -61.5t-61 -42t-75 -15.5q-51 0 -93.5 15.5t-74 45t-49 71t-17.5 93.5q0 29 10.5 57t28.5 53t41.5 46.5t49.5 39.5l-153 265
q-29 -67 -70.5 -121.5t-94.5 -93.5t-117.5 -60t-139.5 -21q-120 0 -209 39t-148 108t-88 164.5t-29 209.5z" />
    <glyph glyph-name="Wcircumflex" unicode="&#x174;" horiz-adv-x="2057" 
d="M799 0h-363l-378 1440h405l239 -1022l212 1022h364l232 -1048l261 1048h245l-419 -1440h-364l-203 920zM1356 1538h-250l-65 138l-66 -138h-146l193 355h135z" />
    <glyph glyph-name="wcircumflex" unicode="&#x175;" horiz-adv-x="1730" 
d="M671 0h-304l-316 1155h338l198 -810l165 810h304l202 -832l195 832h234l-350 -1155h-304l-171 702zM1170 1258h-250l-65 138l-66 -138h-146l193 355h135z" />
    <glyph glyph-name="Ycircumflex" unicode="&#x176;" horiz-adv-x="1328" 
d="M1332 1440l-466 -835v-605h-397v583l-471 857h405l313 -724l336 724h280zM987 1538h-250l-65 138l-66 -138h-146l193 355h135z" />
    <glyph glyph-name="ycircumflex" unicode="&#x177;" horiz-adv-x="1175" 
d="M1175 1155l-420 -1016q-72 -174 -160.5 -344.5t-191.5 -327.5l-132 80q25 45 59 104t67 122t61 124.5t43 112.5l-505 1145h338l343 -781l264 781h234zM904 1258h-250l-65 138l-66 -138h-146l193 355h135z" />
    <glyph glyph-name="Ydieresis" unicode="&#x178;" horiz-adv-x="1328" 
d="M1332 1440l-466 -835v-605h-397v583l-471 857h405l313 -724l336 724h280zM1065 1634q0 -30 -11.5 -57t-31.5 -47t-47 -31.5t-58 -11.5q-30 0 -57 11.5t-47 31.5t-31.5 47t-11.5 57t11.5 57t31.5 47t47 31.5t57 11.5q31 0 58 -11.5t47 -31.5t31.5 -47t11.5 -57zM688 1634
q0 -30 -11.5 -57t-31.5 -47t-47 -31.5t-58 -11.5q-30 0 -57 11.5t-47 31.5t-31.5 47t-11.5 57t11.5 57t31.5 47t47 31.5t57 11.5q31 0 58 -11.5t47 -31.5t31.5 -47t11.5 -57z" />
    <glyph glyph-name="Zacute" unicode="&#x179;" horiz-adv-x="1388" 
d="M1298 0h-1207v184h-1l753 1072h-752v184h1207v-184l-753 -1072h753v-184zM1090 1890l-317 -354h-199l198 354h318z" />
    <glyph glyph-name="zacute" unicode="&#x17a;" horiz-adv-x="1132" 
d="M1056 0h-978v134v0l605 887h-605v134h978v-134l-605 -887h605v-134zM972 1609l-317 -354h-199l198 354h318z" />
    <glyph glyph-name="Zdotaccent" unicode="&#x17b;" horiz-adv-x="1388" 
d="M1298 0h-1207v184h-1l753 1072h-752v184h1207v-184l-753 -1072h753v-184zM841 1683q0 -30 -11.5 -57t-31.5 -47t-47 -31.5t-57 -11.5q-31 0 -58 11.5t-47 31.5t-31.5 47t-11.5 57t11.5 57t31.5 47t47 31.5t58 11.5q30 0 57 -11.5t47 -31.5t31.5 -47t11.5 -57z" />
    <glyph glyph-name="zdotaccent" unicode="&#x17c;" horiz-adv-x="1132" 
d="M1056 0h-978v134v0l605 887h-605v134h978v-134l-605 -887h605v-134zM713 1403q0 -30 -11.5 -57t-31.5 -47t-47 -31.5t-57 -11.5q-31 0 -58 11.5t-47 31.5t-31.5 47t-11.5 57t11.5 57t31.5 47t47 31.5t58 11.5q30 0 57 -11.5t47 -31.5t31.5 -47t11.5 -57z" />
    <glyph glyph-name="Zcaron" unicode="&#x17d;" horiz-adv-x="1388" 
d="M1298 0h-1207v184h-1l753 1072h-752v184h1207v-184l-753 -1072h753v-184zM973 1890l-199 -354h-165l-193 354h246l66 -137l65 137h180z" />
    <glyph glyph-name="zcaron" unicode="&#x17e;" horiz-adv-x="1132" 
d="M1056 0h-978v134v0l605 887h-605v134h978v-134l-605 -887h605v-134zM846 1610l-199 -354h-165l-193 354h246l66 -137l65 137h180z" />
    <glyph glyph-name="AEacute" unicode="&#x1fc;" horiz-adv-x="2271" 
d="M2188 0h-851q-51 -91 -111.5 -168.5t-128.5 -137.5l-149 86q35 59 63.5 128.5t51.5 145.5t39.5 156t27.5 159t16.5 155.5t5.5 145.5q0 54 -1 122.5t-9 139.5t-26.5 138.5t-52.5 120.5t-87 85t-131 32q-69 0 -118 -23.5t-82.5 -63t-53.5 -91.5t-30.5 -109.5t-13.5 -116
t-3 -110.5v-279h431v-165h-431v-350h-397v732q0 157 50 287t141.5 223.5t220 145.5t286.5 52h1343v-184h-637v-445h492v-183h-492v-444h637v-184zM1670 1897l-317 -354h-199l198 354h318z" />
    <glyph glyph-name="aeacute" unicode="&#x1fd;" horiz-adv-x="2152" 
d="M904 612q-63 13 -125 21.5t-125 8.5q-66 0 -122.5 -12.5t-98 -42t-65.5 -78.5t-24 -122q0 -59 16 -108t47.5 -84t78 -54.5t107.5 -19.5q85 0 144.5 33.5t96.5 94t53.5 145t16.5 186.5v32zM1249 548q62 -14 124 -22t125 -8q66 0 122.5 12.5t98 42t65.5 78.5t24 122
q0 59 -16 108t-47.5 84t-77.5 54.5t-107 19.5q-57 0 -102.5 -21t-80 -56.5t-59 -82.5t-40.5 -98t-23 -103t-7 -98q0 -8 0.5 -16t0.5 -16zM2082 776q0 -71 -23 -126.5t-62.5 -97.5t-91.5 -71t-111 -47.5t-121.5 -26.5t-121.5 -8q-75 0 -148 10.5t-144 33.5q11 -66 35 -125.5
t64.5 -104t98.5 -70.5t138 -26q53 0 101 16t88 45t70.5 69t49.5 89l146 -54q-33 -79 -90.5 -136.5t-130 -95t-154 -55.5t-161.5 -18q-92 0 -165 15t-135 46.5t-117.5 81t-112.5 119.5q-19 -48 -58 -94.5t-91.5 -84t-115.5 -60.5t-130 -23q-96 0 -189.5 20.5t-166.5 67.5
t-118 125t-45 193q0 71 23 127t62.5 98t92 71t111.5 47.5t121.5 26.5t121.5 8q74 0 147 -10.5t144 -33.5q-11 66 -35 125t-64 104t-98.5 71t-137.5 26q-53 0 -101 -16t-88 -45t-71 -69.5t-49 -89.5l-147 55q33 79 91 136.5t130 95t153.5 55.5t162.5 18q133 0 244.5 -44.5
t192.5 -125.5q82 81 193.5 125.5t244.5 44.5q64 0 131 -9t130 -28.5t119 -50.5t97.5 -76.5t66 -105.5t24.5 -137zM1496 1560l-317 -354h-199l198 354h318z" />
    <glyph glyph-name="Oslashacute" unicode="&#x1fe;" horiz-adv-x="1750" 
d="M516 455l635 722q-44 58 -111 92.5t-165 34.5q-82 0 -143 -24.5t-104 -66.5t-70 -99t-42.5 -121.5t-21.5 -134t-6 -136.5q0 -66 6 -134t22 -133zM1232 998l-638 -724q45 -60 113 -97t168 -37q79 0 138 25.5t102 69t71.5 101t45 122t23.5 132.5t7 132q0 69 -6.5 139.5
t-23.5 136.5zM1621 1440l-161 -183q97 -97 151.5 -231t54.5 -304q0 -174 -60 -313.5t-166 -236.5t-251 -149t-314 -52q-128 0 -240.5 29t-206.5 85l-75 -85h-238l172 195q-96 97 -149.5 229.5t-53.5 297.5q0 177 59.5 316.5t165 236t250.5 148t316 51.5q126 0 237 -27.5
t205 -81.5l66 75h238zM1286 1927l-317 -354h-199l198 354h318z" />
    <glyph glyph-name="oslashacute" unicode="&#x1ff;" horiz-adv-x="1433" 
d="M438 393l477 560q-34 43 -83 68.5t-116 25.5q-58 0 -103 -22t-78.5 -58.5t-56 -84.5t-36.5 -99.5t-20 -104t-6 -98.5q0 -43 5.5 -91t16.5 -96zM997 770l-477 -559q35 -45 83 -71.5t113 -26.5q60 0 106 21.5t79.5 57.5t55.5 83t35.5 99t19 105t5.5 101q0 45 -4.5 93
t-15.5 97zM1329 1160l-140 -165q80 -78 126 -183t46 -232q0 -90 -24 -169t-66.5 -146t-102.5 -120.5t-131.5 -90.5t-153 -57t-167.5 -20q-88 0 -171 20.5t-156 59.5l-48 -57h-238l140 165q-79 78 -125 183t-46 232q0 89 24 168.5t66.5 146.5t102.5 120.5t131.5 90.5
t152.5 57t167 20q89 0 171.5 -21t155.5 -59l48 57h238zM1131 1637l-317 -354h-199l198 354h318z" />
    <glyph glyph-name="dotlessj" unicode="&#x237;" horiz-adv-x="620" 
d="M483 334q0 -119 -30 -241.5t-84.5 -237t-130 -215t-166.5 -173.5l-132 80q51 70 89 158.5t63.5 183.5t38.5 191.5t13 183.5v891h339v-821z" />
    <glyph glyph-name="circumflex" unicode="&#x2c6;" horiz-adv-x="527" 
d="M527 1079h-250l-65 138l-66 -138h-146l193 355h135z" />
    <glyph glyph-name="caron" unicode="&#x2c7;" horiz-adv-x="557" 
d="M557 1440l-199 -354h-165l-193 354h246l66 -137l65 137h180z" />
    <glyph glyph-name="breve" unicode="&#x2d8;" horiz-adv-x="502" 
d="M502 1438q-4 -53 -24 -98.5t-53 -79.5t-78 -53.5t-99 -19.5t-98 20t-76 54.5t-51 80t-23 96.5h145q0 -11 5.5 -30t17.5 -37t31.5 -31.5t48.5 -13.5q31 0 51.5 13.5t33.5 31.5t18.5 37t6.5 30h144z" />
    <glyph glyph-name="dotaccent" unicode="&#x2d9;" horiz-adv-x="295" 
d="M295 1257q0 -30 -11.5 -57t-31.5 -47t-47 -31.5t-57 -11.5q-31 0 -58 11.5t-47 31.5t-31.5 47t-11.5 57t11.5 57t31.5 47t47 31.5t58 11.5q30 0 57 -11.5t47 -31.5t31.5 -47t11.5 -57z" />
    <glyph glyph-name="ring" unicode="&#x2da;" horiz-adv-x="453" 
d="M453 1308q0 -47 -18 -88.5t-48.5 -72t-72 -48.5t-88.5 -18t-88.5 18t-72 48.5t-48 72t-17.5 88.5t17.5 88.5t48.5 72.5t72 49t88 18q46 0 87.5 -18t72.5 -49t49 -72.5t18 -88.5zM310 1308q0 34 -25 59t-59 25q-35 0 -58.5 -25t-23.5 -59t23.5 -59t58.5 -25q34 0 59 24.5
t25 59.5z" />
    <glyph glyph-name="ogonek" unicode="&#x2db;" horiz-adv-x="426" 
d="M426 -223q0 -40 -15 -75t-41 -61.5t-61 -42t-75 -15.5q-51 0 -93.5 15.5t-74 45t-49 71t-17.5 93.5q0 39 18.5 75t47.5 66.5t64 54.5t68 39h113q-26 -19 -52.5 -45.5t-49 -57.5t-36.5 -65t-14 -67q0 -39 18.5 -64t60.5 -25q25 0 49.5 14.5t25.5 43.5h113z" />
    <glyph glyph-name="tilde" unicode="&#x2dc;" horiz-adv-x="778" 
d="M778 1413q-4 -50 -19 -105t-43.5 -101.5t-71.5 -77t-102 -30.5t-106.5 15t-86 33.5t-70 33.5t-59.5 15q-18 0 -30 -9.5t-20 -24t-11.5 -31.5t-3.5 -32h-155q2 52 17 107.5t44 101.5t73 75.5t105 29.5q54 0 101.5 -15t87 -32.5t71 -32.5t54.5 -15q17 0 29.5 9.5t20 23.5
t11.5 31t4 31h160z" />
    <glyph glyph-name="hungarumlaut" unicode="&#x2dd;" horiz-adv-x="885" 
d="M885 1440l-316 -354h-200l199 354h317zM516 1440l-316 -354h-200l199 354h317z" />
    <glyph glyph-name="uni0312" unicode="&#x312;" horiz-adv-x="448" 
d="M372 1148q0 -30 -11.5 -56.5t-31.5 -46.5t-46.5 -31.5t-56.5 -11.5t-56.5 11.5t-46 31t-31 46.5t-11.5 57q0 36 9.5 74.5t27 75t40.5 69t50 56.5l115 -60q-17 -14 -34 -34t-20 -42q46 -14 74.5 -52.5t28.5 -86.5z" />
    <glyph glyph-name="uni0315" unicode="&#x315;" horiz-adv-x="438" 
d="M364 1277q0 -36 -9.5 -74.5t-27 -74.5t-40.5 -68.5t-50 -57.5l-115 61q17 13 34 33.5t20 41.5q-46 14 -74.5 53t-28.5 86q0 30 11.5 56.5t31 46.5t46 31.5t56.5 11.5t57 -11.5t46.5 -31t31 -46.5t11.5 -57z" />
    <glyph glyph-name="uni0326" unicode="&#x326;" horiz-adv-x="462" 
d="M375 -258q0 -37 -9.5 -75.5t-27 -74.5t-40.5 -68.5t-50 -57.5l-115 61q17 13 34 33.5t20 41.5q-46 14 -74.5 53t-28.5 87q0 30 11.5 56.5t31.5 46.5t46.5 31.5t56.5 11.5t56.5 -11.5t46 -31.5t31 -46.5t11.5 -56.5z" />
    <glyph glyph-name="Wgrave" unicode="&#x1e80;" horiz-adv-x="2057" 
d="M799 0h-363l-378 1440h405l239 -1022l212 1022h364l232 -1048l261 1048h245l-419 -1440h-364l-203 920zM1198 1536h-200l-316 354h317z" />
    <glyph glyph-name="wgrave" unicode="&#x1e81;" horiz-adv-x="1730" 
d="M671 0h-304l-316 1155h338l198 -810l165 810h304l202 -832l195 832h234l-350 -1155h-304l-171 702zM998 1255h-200l-316 354h317z" />
    <glyph glyph-name="Wacute" unicode="&#x1e82;" horiz-adv-x="2057" 
d="M799 0h-363l-378 1440h405l239 -1022l212 1022h364l232 -1048l261 1048h245l-419 -1440h-364l-203 920zM1508 1894l-317 -354h-199l198 354h318z" />
    <glyph glyph-name="wacute" unicode="&#x1e83;" horiz-adv-x="1730" 
d="M671 0h-304l-316 1155h338l198 -810l165 810h304l202 -832l195 832h234l-350 -1155h-304l-171 702zM1327 1609l-317 -354h-199l198 354h318z" />
    <glyph glyph-name="Wdieresis" unicode="&#x1e84;" horiz-adv-x="2057" 
d="M799 0h-363l-378 1440h405l239 -1022l212 1022h364l232 -1048l261 1048h245l-419 -1440h-364l-203 920zM1438 1683q0 -30 -11.5 -57t-31.5 -47t-47 -31.5t-58 -11.5q-30 0 -57 11.5t-47 31.5t-31.5 47t-11.5 57t11.5 57t31.5 47t47 31.5t57 11.5q31 0 58 -11.5t47 -31.5
t31.5 -47t11.5 -57zM1061 1683q0 -30 -11.5 -57t-31.5 -47t-47 -31.5t-58 -11.5q-30 0 -57 11.5t-47 31.5t-31.5 47t-11.5 57t11.5 57t31.5 47t47 31.5t57 11.5q31 0 58 -11.5t47 -31.5t31.5 -47t11.5 -57z" />
    <glyph glyph-name="wdieresis" unicode="&#x1e85;" horiz-adv-x="1730" 
d="M671 0h-304l-316 1155h338l198 -810l165 810h304l202 -832l195 832h234l-350 -1155h-304l-171 702zM1229 1404q0 -30 -11.5 -57t-31.5 -47t-47 -31.5t-58 -11.5q-30 0 -57 11.5t-47 31.5t-31.5 47t-11.5 57t11.5 57t31.5 47t47 31.5t57 11.5q31 0 58 -11.5t47 -31.5
t31.5 -47t11.5 -57zM852 1404q0 -30 -11.5 -57t-31.5 -47t-47 -31.5t-58 -11.5q-30 0 -57 11.5t-47 31.5t-31.5 47t-11.5 57t11.5 57t31.5 47t47 31.5t57 11.5q31 0 58 -11.5t47 -31.5t31.5 -47t11.5 -57z" />
    <glyph glyph-name="Ygrave" unicode="&#x1ef2;" horiz-adv-x="1328" 
d="M1332 1440l-466 -835v-605h-397v583l-471 857h405l313 -724l336 724h280zM816 1390h-200l-316 354h317z" />
    <glyph glyph-name="ygrave" unicode="&#x1ef3;" horiz-adv-x="1175" 
d="M1175 1155l-420 -1016q-72 -174 -160.5 -344.5t-191.5 -327.5l-132 80q25 45 59 104t67 122t61 124.5t43 112.5l-505 1145h338l343 -781l264 781h234zM734 1105h-200l-316 354h317z" />
    <glyph glyph-name="endash" unicode="&#x2013;" horiz-adv-x="782" 
d="M641 629h-500v184h500v-184z" />
    <glyph glyph-name="emdash" unicode="&#x2014;" horiz-adv-x="1282" 
d="M1141 629h-1000v184h1000v-184z" />
    <glyph glyph-name="quoteleft" unicode="&#x2018;" horiz-adv-x="560" 
d="M465 1122q0 -38 -14.5 -71t-39 -57.5t-58 -39t-70.5 -14.5q-38 0 -71 14t-58 39t-39 58t-14 71q0 46 12 94t33.5 93.5t50.5 86t63 70.5l144 -75q-21 -17 -42.5 -42.5t-25.5 -52.5q28 -9 52 -26t41 -40t26.5 -50.5t9.5 -57.5z" />
    <glyph glyph-name="quoteright" unicode="&#x2019;" horiz-adv-x="548" 
d="M455 1284q0 -46 -12 -94t-33.5 -93t-50.5 -85.5t-63 -71.5l-144 76q21 16 42.5 42t25.5 52q-29 9 -52.5 26t-40.5 40t-26.5 50.5t-9.5 57.5q0 37 14.5 70.5t39 58t57.5 39t71 14.5t71 -14t58 -39t39 -58t14 -71z" />
    <glyph glyph-name="quotesinglbase" unicode="&#x201a;" horiz-adv-x="578" 
d="M469 150q0 -46 -12 -94t-33.5 -93.5t-50.5 -86t-63 -71.5l-144 76q21 16 42.5 42t25.5 52q-29 9 -52.5 26t-40.5 40.5t-26.5 51t-9.5 57.5q0 37 14.5 70.5t39 58t57.5 39t71 14.5t71 -14.5t58 -39t39 -58t14 -70.5z" />
    <glyph glyph-name="quotedblleft" unicode="&#x201c;" horiz-adv-x="1023" 
d="M928 1122q0 -38 -14.5 -71t-39 -57.5t-58 -39t-70.5 -14.5q-38 0 -71 14t-58 39t-39 58t-14 71q0 46 12 94t33.5 93.5t50.5 86t63 70.5l144 -75q-21 -17 -42.5 -42.5t-25.5 -52.5q28 -9 52 -26t41 -40t26.5 -50.5t9.5 -57.5zM465 1122q0 -38 -14.5 -71t-39 -57.5t-58 -39
t-70.5 -14.5q-38 0 -71 14t-58 39t-39 58t-14 71q0 46 12 94t33.5 93.5t50.5 86t63 70.5l144 -75q-21 -17 -42.5 -42.5t-25.5 -52.5q28 -9 52 -26t41 -40t26.5 -50.5t9.5 -57.5z" />
    <glyph glyph-name="quotedblright" unicode="&#x201d;" horiz-adv-x="1011" 
d="M918 1284q0 -46 -12 -94t-33.5 -93t-51 -85.5t-63.5 -71.5l-143 76q10 8 21 18.5t21 23t17 26t9 26.5q-29 9 -52.5 26t-40.5 40t-26.5 50.5t-9.5 57.5q0 37 14.5 70.5t39 58t57.5 39t71 14.5t71 -14t58 -39t39 -58t14 -71zM455 1284q0 -46 -12 -94t-33.5 -93t-50.5 -85.5
t-63 -71.5l-144 76q21 16 42.5 42t25.5 52q-29 9 -52.5 26t-40.5 40t-26.5 50.5t-9.5 57.5q0 37 14.5 70.5t39 58t57.5 39t71 14.5t71 -14t58 -39t39 -58t14 -71z" />
    <glyph glyph-name="quotedblbase" unicode="&#x201e;" horiz-adv-x="1041" 
d="M932 150q0 -46 -12 -94t-33.5 -93.5t-51 -86t-63.5 -71.5l-143 76q10 8 21 18.5t21 23t17 26t9 26.5q-29 9 -52.5 26t-40.5 40.5t-26.5 51t-9.5 57.5q0 37 14.5 70.5t39 58t57.5 39t71 14.5t71 -14.5t58 -39t39 -58t14 -70.5zM469 150q0 -46 -12 -94t-33.5 -93.5
t-50.5 -86t-63 -71.5l-144 76q21 16 42.5 42t25.5 52q-29 9 -52.5 26t-40.5 40.5t-26.5 51t-9.5 57.5q0 37 14.5 70.5t39 58t57.5 39t71 14.5t71 -14.5t58 -39t39 -58t14 -70.5z" />
    <glyph glyph-name="dagger" unicode="&#x2020;" horiz-adv-x="893" 
d="M575 -150h-249v1171h-260v134h260v425h249v-425h250v-134h-250v-1171z" />
    <glyph glyph-name="daggerdbl" unicode="&#x2021;" horiz-adv-x="919" 
d="M839 1021h-250v-612h250v-135h-250v-424h-249v424h-260v135h260v612h-260v134h260v425h249v-425h250v-134z" />
    <glyph glyph-name="bullet" unicode="&#x2022;" horiz-adv-x="726" 
d="M618 686q0 -53 -20 -99.5t-54.5 -81t-81 -54.5t-99.5 -20t-99.5 20t-81 54.5t-54.5 81t-20 99.5t20 99.5t54.5 81t81 54.5t99.5 20t99.5 -20t81 -54.5t54.5 -81t20 -99.5z" />
    <glyph glyph-name="ellipsis" unicode="&#x2026;" horiz-adv-x="1917" 
d="M1813 150q0 -38 -14.5 -71.5t-39 -58t-58 -39t-71.5 -14.5t-71 14.5t-57.5 39t-39 58t-14.5 71.5q0 37 14.5 70.5t39 58t57.5 39t71 14.5t71.5 -14.5t58 -39t39 -58t14.5 -70.5zM1141 150q0 -38 -14.5 -71.5t-39 -58t-58 -39t-70.5 -14.5q-38 0 -71.5 14.5t-58 39t-39 58
t-14.5 71.5q0 37 14.5 70.5t39 58t58 39t71.5 14.5q37 0 70.5 -14.5t58 -39t39 -58t14.5 -70.5zM469 150q0 -38 -14 -71.5t-39 -58t-58 -39t-71 -14.5t-71 14.5t-58 39t-39 58t-14 71.5q0 37 14 70.5t39 58t58 39t71 14.5t71 -14.5t58 -39t39 -58t14 -70.5z" />
    <glyph glyph-name="perthousand" unicode="&#x2030;" horiz-adv-x="2287" 
d="M394 724q-57 0 -114.5 21t-103 63t-74 105.5t-28.5 148.5q0 89 29 153t74.5 105t102.5 60.5t114 19.5q61 0 119 -19.5t103.5 -60.5t73.5 -105t28 -153t-29.5 -153t-76 -105t-104.5 -60.5t-114 -19.5zM394 1306q-35 0 -59.5 -21.5t-40 -56t-22.5 -78t-7 -88.5q0 -44 7 -88
t22.5 -79t40 -56.5t59.5 -21.5q33 0 58 22.5t41.5 57.5t25 79t8.5 86q0 45 -6.5 88.5t-22 78t-41 56t-63.5 21.5zM1184 30q-57 0 -114.5 21t-103 63t-74 105.5t-28.5 148.5q0 89 29 153t74.5 105t102.5 60.5t114 19.5q61 0 119 -19.5t103.5 -60.5t73.5 -105t28 -153
t-29.5 -152.5t-76 -105t-104.5 -61t-114 -19.5zM1184 613q-35 0 -59.5 -21.5t-40 -56t-22.5 -78.5t-7 -89q0 -44 7 -88t22.5 -78.5t40 -56t59.5 -21.5q33 0 58 22t41.5 57.5t25 79t8.5 85.5q0 45 -6.5 88.5t-22 78.5t-41 56.5t-63.5 21.5zM1291 1390l-788 -1340h-208
l778 1340h218zM1898 30q-57 0 -114.5 21t-103 63t-74 105.5t-28.5 148.5q0 89 29 153t75 105t103 60.5t113 19.5q61 0 119.5 -19.5t104 -60.5t73 -105t27.5 -153t-29.5 -152.5t-76 -105t-104 -61t-114.5 -19.5zM1898 613q-35 0 -59.5 -21.5t-39.5 -56t-22 -78.5t-7 -89
q0 -44 7 -88t22 -78.5t39.5 -56t59.5 -21.5q33 0 58 22t41.5 57.5t25 79t8.5 85.5q0 45 -6.5 88.5t-22 78.5t-41 56.5t-63.5 21.5z" />
    <glyph glyph-name="guilsinglleft" unicode="&#x2039;" horiz-adv-x="832" 
d="M688 952v-209l-378 -160v-13l378 -174v-196l-614 307v140z" />
    <glyph glyph-name="guilsinglright" unicode="&#x203a;" horiz-adv-x="832" 
d="M758 507l-614 -307v196l378 174v13l-378 160v209l614 -305v-140z" />
    <glyph glyph-name="fraction" unicode="&#x2044;" horiz-adv-x="963" 
d="M981 1390l-789 -1340h-208l779 1340h218z" />
    <glyph glyph-name="Euro" unicode="&#x20ac;" horiz-adv-x="1543" 
d="M974 520h-294q17 -55 45.5 -103t69 -83.5t93.5 -56t120 -20.5q52 0 97.5 17t83 47t65 70.5t44.5 87.5l138 -54q-30 -77 -83 -134t-120.5 -94.5t-145 -56.5t-155.5 -19q-101 0 -191 29t-164.5 81.5t-130 126t-85.5 162.5h-295l33 147h231q-2 14 -2 27.5v27.5q0 32 3 62
h-205l33 147h204q31 87 86.5 159.5t129.5 124t163.5 80t189.5 28.5q81 0 159.5 -19t146 -57.5t120 -97.5t82.5 -138l-137 -58q-16 52 -43 95.5t-64 74.5t-84.5 48t-103.5 17q-61 0 -111.5 -20.5t-90.5 -55.5t-69.5 -81.5t-48.5 -99.5h380l-34 -147h-380q-3 -32 -3 -62v-27.5
t2 -27.5h355z" />
    <glyph glyph-name="trademark" unicode="&#x2122;" horiz-adv-x="1288" 
d="M1012 946l-37 319l-87 -319h-133l-103 331l-35 -331h-98l86 494h134l108 -350l111 350h134l71 -494h-151zM395 1365v-419h-148v419h-133v75h414v-75h-133z" />
    <glyph glyph-name="partialdiff" unicode="&#x2202;" horiz-adv-x="1452" 
d="M1353 595q0 -144 -53 -258.5t-142.5 -194.5t-206 -122.5t-243.5 -42.5q-86 0 -167 20t-152.5 57t-131.5 90.5t-102.5 120.5t-66.5 146.5t-24 168.5t24 168.5t66.5 146.5t102.5 120.5t131.5 90.5t152.5 57t167 20q78 0 154 -27.5t138 -85.5q-10 70 -30 150t-46 158
t-56 147.5t-58 119.5l132 80q79 -88 140 -184.5t107 -197t77 -201.5t50.5 -197.5t28 -185t8.5 -164.5zM1009 580q0 48 -5.5 101.5t-18.5 105t-35.5 99t-55.5 83t-79 57t-107 21.5q-58 0 -103 -22t-78.5 -58.5t-56 -84.5t-36.5 -99.5t-20 -104t-6 -98.5t6 -98.5t20 -104.5
t36.5 -99.5t56 -84t78.5 -58.5t103 -22q60 0 106 21.5t79.5 57.5t55.5 83t35.5 99t19 105t5.5 101z" />
    <glyph glyph-name="Delta" unicode="&#x2206;" horiz-adv-x="827" 
d="M736 710l-197 -46l133 -146l-155 -119l-104 173l-103 -173l-156 119l136 146l-197 46l59 183l184 -83l-20 204h195l-20 -202l181 81z" />
    <glyph glyph-name="product" unicode="&#x220f;" horiz-adv-x="1524" 
d="M1462 1256h-246v-1256h-338v1256h-232v-1256h-338v1256h-246v184h1400v-184z" />
    <glyph glyph-name="minus" unicode="&#x2212;" horiz-adv-x="1115" 
d="M975 629h-835v184h835v-184z" />
    <glyph glyph-name="approxequal" unicode="&#x2248;" horiz-adv-x="1121" 
d="M996 1088q0 -54 -16 -114.5t-48.5 -111.5t-81 -84.5t-112.5 -33.5q-65 0 -116.5 16.5t-93 37t-75.5 37t-64 16.5q-20 0 -33.5 -10.5t-21.5 -26.5t-12 -35t-4 -35h-178q0 57 16 118t49 111.5t82.5 82.5t116.5 32q60 0 110.5 -16t92.5 -35t75.5 -35t59.5 -16q19 0 32.5 10
t22 25.5t12.5 33.5t5 33h182zM996 688q0 -54 -16 -114.5t-48.5 -111.5t-81 -84.5t-112.5 -33.5q-65 0 -116.5 16.5t-93 37t-75.5 37t-64 16.5q-20 0 -33.5 -10.5t-21.5 -26.5t-12 -35t-4 -35h-178q0 57 16 118t49 111.5t82.5 82.5t116.5 32q60 0 110.5 -16t92.5 -35
t75.5 -35t59.5 -16q19 0 32.5 10t22 25.5t12.5 33.5t5 33h182z" />
    <glyph glyph-name="notequal" unicode="&#x2260;" horiz-adv-x="1059" 
d="M820 1220l-88 -237h214v-184h-283l-54 -146h337v-184h-405l-86 -230h-218l86 230h-212v184h280l54 146h-334v184h403l88 237h218z" />
    </font>
</defs>
</svg>
