<svg width="295" height="236" viewBox="0 0 295 236" fill="none" xmlns="http://www.w3.org/2000/svg">
<path d="M198.735 2.35717C274.259 9.836 293.831 72.6443 294.177 103.114C295.733 86.3209 293.554 47.4379 272.391 26.2479C245.937 -0.239644 201.329 -1.27837 198.735 2.35717Z" fill="#030303"/>
<path d="M240.835 24.6066C212.821 3.85555 84.165 -16.8955 32.2875 61.9586C-23.3112 146.469 89.8405 251.059 177.544 234.193L140.193 209.291C182.732 209.291 204.521 200.991 240.835 182.315C335.252 106.573 268.849 45.3577 240.835 24.6066Z" fill="#FFD04C"/>
<path d="M9.07055 128.483C15.8357 168.429 45.178 192.644 59.0035 199.758C21.151 182.845 9.07055 159.087 1.41947 139.355C-6.23162 93.8518 19.5404 64.8584 19.5404 67.2745C4.64101 102.308 9.07055 111.167 9.07055 128.483Z" fill="#030303"/>
</svg>
