<svg width="295" height="236" viewBox="0 0 295 236" fill="none" xmlns="http://www.w3.org/2000/svg">
<path d="M95.8394 2.35717C20.3162 9.836 0.743774 72.6443 0.397972 103.114C-1.15813 86.3209 1.02042 47.4379 22.1835 26.2479C48.6374 -0.239644 93.2458 -1.27837 95.8394 2.35717Z" fill="#030303"/>
<path d="M53.7398 24.6066C81.7536 3.85555 210.41 -16.8955 262.287 61.9586C317.886 146.469 204.734 251.059 117.03 234.193L154.382 209.291C111.843 209.291 90.054 200.991 53.7398 182.315C-40.6773 106.573 25.7259 45.3577 53.7398 24.6066Z" fill="#FFD04C"/>
<path d="M285.504 128.483C278.739 168.429 249.397 192.644 235.571 199.758C273.424 182.845 285.504 159.087 293.155 139.355C300.806 93.8518 275.034 64.8584 275.034 67.2745C289.934 102.308 285.504 111.167 285.504 128.483Z" fill="#030303"/>
</svg>
